SplineFontDB: 3.2
FontName: IBMPlexSans-Medium
FullName: IBM Plex Sans Medium
FamilyName: IBM Plex Sans Medium
Weight: Medium
Copyright: Copyright 2018 IBM Corp. All rights reserved.
Version: 3.2
ItalicAngle: 0
UnderlinePosition: -123
UnderlineWidth: 78
Ascent: 799
Descent: 225
InvalidEm: 0
sfntRevision: 0x00030083
LayerCount: 2
Layer: 0 1 "Back" 1
Layer: 1 1 "Fore" 0
XUID: [1021 106 -1405311962 28600]
StyleMap: 0x0040
FSType: 0
OS2Version: 4
OS2_WeightWidthSlopeOnly: 1
OS2_UseTypoMetrics: 0
CreationTime: 1585742557
ModificationTime: 1682108963
PfmFamily: 17
TTFWeight: 500
TTFWidth: 5
LineGap: 0
VLineGap: 0
Panose: 2 11 6 3 5 2 3 0 2 3
OS2TypoAscent: 799
OS2TypoAOffset: 0
OS2TypoDescent: -225
OS2TypoDOffset: 0
OS2TypoLinegap: 307
OS2WinAscent: 1050
OS2WinAOffset: 0
OS2WinDescent: 282
OS2WinDOffset: 0
HheadAscent: 1050
HheadAOffset: 0
HheadDescent: -282
HheadDOffset: 0
OS2SubXSize: 666
OS2SubYSize: 614
OS2SubXOff: 0
OS2SubYOff: 77
OS2SupXSize: 666
OS2SupYSize: 614
OS2SupXOff: 0
OS2SupYOff: 358
OS2StrikeYSize: 79
OS2StrikeYPos: 319
OS2CapHeight: 715
OS2XHeight: 532
OS2Vendor: 'IBM '
OS2CodePages: 2000019f.00000000
OS2UnicodeRanges: a00002ef.5000203b.00000000.00000000
Lookup: 1 0 0 "'aalt' Access All Alternates lookup 0" { "'aalt' Access All Alternates lookup 0 subtable"  } ['aalt' ('DFLT' <'dflt' > 'cyrl' <'dflt' > 'grek' <'dflt' > 'latn' <'MOL ' 'ROM ' 'dflt' > ) ]
Lookup: 3 0 0 "'aalt' Access All Alternates lookup 1" { "'aalt' Access All Alternates lookup 1 subtable"  } ['aalt' ('DFLT' <'dflt' > 'cyrl' <'dflt' > 'grek' <'dflt' > 'latn' <'MOL ' 'ROM ' 'dflt' > ) ]
Lookup: 1 0 0 "'locl' Localized Forms in Latin lookup 2" { "'locl' Localized Forms in Latin lookup 2 subtable"  } ['locl' ('latn' <'MOL ' > ) ]
Lookup: 1 0 0 "'locl' Localized Forms in Latin lookup 3" { "'locl' Localized Forms in Latin lookup 3 subtable"  } ['locl' ('latn' <'ROM ' > ) ]

StartChar: .notdef
Encoding: 65536 -1 0
Width: 483
GlyphClass: 1
Flags: W
LayerCount: 2
Fore
SplineSet
33 0 m 1,0,-1
 33 799 l 1,1,-1
 451 799 l 1,2,-1
 451 0 l 1,3,-1
 33 0 l 1,0,-1
112 79 m 1,4,-1
 372 79 l 1,5,-1
 372 720 l 1,6,-1
 112 720 l 1,7,-1
 112 79 l 1,4,-1
EndSplineSet
Validated: 1
EndChar

StartChar: a
Encoding: 97 97 4
Width: 562
GlyphClass: 2
Flags: W
AnchorPoint: "Anchor-2" 265 553 basechar 0
AnchorPoint: "Anchor-1" 532 0 basechar 0
AnchorPoint: "Anchor-0" 261 0 basechar 0
LayerCount: 2
Fore
SplineSet
470 0 m 2,0,1
 426 0 426 0 402.5 25 c 128,-1,2
 379 50 379 50 374 89 c 1,3,-1
 369 89 l 1,4,5
 354 39 354 39 312.5 13.5 c 128,-1,6
 271 -12 271 -12 213 -12 c 0,7,8
 130 -12 130 -12 85.5 31 c 128,-1,9
 41 74 41 74 41 146 c 0,10,11
 41 226 41 226 99 266 c 128,-1,12
 157 306 157 306 268 306 c 2,13,-1
 365 306 l 1,14,-1
 365 351 l 2,15,16
 365 400 365 400 338 427 c 128,-1,17
 311 454 311 454 255 454 c 0,18,19
 208 454 208 454 178 433.5 c 128,-1,20
 148 413 148 413 128 381 c 1,21,-1
 61 441 l 1,22,23
 88 486 88 486 136 515.5 c 128,-1,24
 184 545 184 545 262 545 c 0,25,26
 365 545 365 545 420.5 497 c 128,-1,27
 476 449 476 449 476 358 c 2,28,-1
 476 91 l 1,29,-1
 532 91 l 1,30,-1
 532 0 l 1,31,-1
 470 0 l 2,0,1
245 73 m 0,32,33
 297 73 297 73 331 96 c 128,-1,34
 365 119 365 119 365 158 c 2,35,-1
 365 234 l 1,36,-1
 270 234 l 2,37,38
 154 234 154 234 155 163 c 2,39,-1
 155 144 l 2,40,41
 155 108 155 108 179 90.5 c 128,-1,42
 203 73 203 73 245 73 c 0,32,33
EndSplineSet
Validated: 33
Substitution2: "'salt' Stylistic Alternatives lookup 18 subtable" a.alt01
Substitution2: "'ss01' Style Set 1 lookup 13 subtable" a.alt01
Substitution2: "'ordn' Ordinals lookup 4 subtable" ordfeminine
Substitution2: "'aalt' Access All Alternates lookup 0 subtable" a.alt01
EndChar

StartChar: a.alt01
Encoding: 65537 -1 5
Width: 606
GlyphClass: 2
Flags: W
AnchorPoint: "Anchor-2" 301 553 basechar 0
AnchorPoint: "Anchor-1" 526 0 basechar 0
AnchorPoint: "Anchor-0" 291 0 basechar 0
LayerCount: 2
Fore
SplineSet
415 88 m 1,0,-1
 410 88 l 1,1,2
 393 41 393 41 353 14.5 c 128,-1,3
 313 -12 313 -12 260 -12 c 0,4,5
 159 -12 159 -12 103.5 61 c 128,-1,6
 48 134 48 134 48 266 c 256,7,8
 48 398 48 398 103.5 471.5 c 128,-1,9
 159 545 159 545 260 545 c 0,10,11
 313 545 313 545 352.5 519 c 128,-1,12
 392 493 392 493 410 444 c 1,13,-1
 415 444 l 1,14,-1
 415 532 l 1,15,-1
 526 532 l 1,16,-1
 526 0 l 1,17,-1
 415 0 l 1,18,-1
 415 88 l 1,0,-1
294 84 m 0,19,20
 345 84 345 84 380 109 c 128,-1,21
 415 134 415 134 415 175 c 2,22,-1
 415 357 l 2,23,24
 415 398 415 398 380 423.5 c 128,-1,25
 345 449 345 449 294 449 c 0,26,27
 236 449 236 449 201 411.5 c 128,-1,28
 166 374 166 374 166 312 c 2,29,-1
 166 220 l 2,30,31
 166 159 166 159 201 121.5 c 128,-1,32
 236 84 236 84 294 84 c 0,19,20
EndSplineSet
Validated: 1
EndChar

StartChar: b
Encoding: 98 98 6
Width: 606
GlyphClass: 2
Flags: W
AnchorPoint: "Anchor-0" 319 0 basechar 0
LayerCount: 2
Fore
SplineSet
80 758 m 1,0,-1
 191 758 l 1,1,-1
 191 444 l 1,2,-1
 197 444 l 1,3,4
 214 492 214 492 253.5 518.5 c 128,-1,5
 293 545 293 545 346 545 c 0,6,7
 447 545 447 545 502.5 471.5 c 128,-1,8
 558 398 558 398 558 266 c 256,9,10
 558 134 558 134 502.5 61 c 128,-1,11
 447 -12 447 -12 346 -12 c 0,12,13
 293 -12 293 -12 253.5 14.5 c 128,-1,14
 214 41 214 41 197 88 c 1,15,-1
 191 88 l 1,16,-1
 191 0 l 1,17,-1
 80 0 l 1,18,-1
 80 758 l 1,0,-1
312 84 m 0,19,20
 370 84 370 84 405 121.5 c 128,-1,21
 440 159 440 159 440 220 c 2,22,-1
 440 312 l 2,23,24
 440 373 440 373 405.5 411 c 128,-1,25
 371 449 371 449 312 449 c 0,26,27
 261 449 261 449 226 423.5 c 128,-1,28
 191 398 191 398 191 357 c 2,29,-1
 191 175 l 2,30,31
 191 134 191 134 226 109 c 128,-1,32
 261 84 261 84 312 84 c 0,19,20
EndSplineSet
Validated: 1
EndChar

StartChar: c
Encoding: 99 99 7
Width: 522
GlyphClass: 2
Flags: W
AnchorPoint: "Anchor-2" 282 553 basechar 0
AnchorPoint: "Anchor-0" 276 0 basechar 0
LayerCount: 2
Fore
SplineSet
286 -12 m 0,0,1
 229 -12 229 -12 183.5 7.5 c 128,-1,2
 138 27 138 27 107.5 63 c 128,-1,3
 77 99 77 99 60.5 151 c 128,-1,4
 44 203 44 203 44 266 c 256,5,6
 44 329 44 329 60.5 381 c 128,-1,7
 77 433 77 433 107.5 469.5 c 128,-1,8
 138 506 138 506 183 525.5 c 128,-1,9
 228 545 228 545 286 545 c 0,10,11
 366 545 366 545 417 509 c 128,-1,12
 468 473 468 473 492 414 c 1,13,-1
 399 371 l 1,14,15
 388 408 388 408 360 430 c 128,-1,16
 332 452 332 452 286 452 c 0,17,18
 225 452 225 452 193.5 413.5 c 128,-1,19
 162 375 162 375 162 313 c 2,20,-1
 162 218 l 2,21,22
 162 157 162 157 193 118.5 c 128,-1,23
 224 80 224 80 286 80 c 0,24,25
 335 80 335 80 364 104 c 128,-1,26
 393 128 393 128 411 168 c 1,27,-1
 496 123 l 1,28,29
 469 57 469 57 416 22.5 c 128,-1,30
 363 -12 363 -12 286 -12 c 0,0,1
EndSplineSet
Validated: 1
EndChar

StartChar: d
Encoding: 100 100 8
Width: 606
GlyphClass: 2
Flags: W
AnchorPoint: "Anchor-3" 588 758 basechar 0
AnchorPoint: "Anchor-0" 288 0 basechar 0
LayerCount: 2
Fore
SplineSet
415 88 m 1,0,-1
 410 88 l 1,1,2
 393 41 393 41 353 14.5 c 128,-1,3
 313 -12 313 -12 260 -12 c 0,4,5
 159 -12 159 -12 103.5 61 c 128,-1,6
 48 134 48 134 48 266 c 256,7,8
 48 398 48 398 103.5 471.5 c 128,-1,9
 159 545 159 545 260 545 c 0,10,11
 313 545 313 545 352.5 519 c 128,-1,12
 392 493 392 493 410 444 c 1,13,-1
 415 444 l 1,14,-1
 415 758 l 1,15,-1
 526 758 l 1,16,-1
 526 0 l 1,17,-1
 415 0 l 1,18,-1
 415 88 l 1,0,-1
294 84 m 0,19,20
 345 84 345 84 380 109 c 128,-1,21
 415 134 415 134 415 175 c 2,22,-1
 415 357 l 2,23,24
 415 398 415 398 380 423.5 c 128,-1,25
 345 449 345 449 294 449 c 0,26,27
 236 449 236 449 201 411.5 c 128,-1,28
 166 374 166 374 166 312 c 2,29,-1
 166 220 l 2,30,31
 166 159 166 159 201 121.5 c 128,-1,32
 236 84 236 84 294 84 c 0,19,20
EndSplineSet
Validated: 1
EndChar

StartChar: e
Encoding: 101 101 9
Width: 569
GlyphClass: 2
Flags: W
AnchorPoint: "Anchor-2" 289 553 basechar 0
AnchorPoint: "Anchor-1" 378 0 basechar 0
AnchorPoint: "Anchor-0" 290 0 basechar 0
LayerCount: 2
Fore
SplineSet
289 -12 m 0,0,1
 232 -12 232 -12 186.5 7.5 c 128,-1,2
 141 27 141 27 109.5 63 c 128,-1,3
 78 99 78 99 61 151 c 128,-1,4
 44 203 44 203 44 266 c 256,5,6
 44 329 44 329 61 381 c 128,-1,7
 78 433 78 433 109.5 469.5 c 128,-1,8
 141 506 141 506 186 525.5 c 128,-1,9
 231 545 231 545 289 545 c 0,10,11
 347 545 347 545 391.5 524.5 c 128,-1,12
 436 504 436 504 466 467.5 c 128,-1,13
 496 431 496 431 510.5 383 c 128,-1,14
 525 335 525 335 525 280 c 2,15,-1
 525 238 l 1,16,-1
 160 238 l 1,17,-1
 160 220 l 2,18,19
 160 159 160 159 196 119.5 c 128,-1,20
 232 80 232 80 300 80 c 0,21,22
 349 80 349 80 383 101.5 c 128,-1,23
 417 123 417 123 440 160 c 1,24,-1
 506 95 l 1,25,26
 476 46 476 46 420 17 c 128,-1,27
 364 -12 364 -12 289 -12 c 0,0,1
289 458 m 0,28,29
 260 458 260 458 236 447.5 c 128,-1,30
 212 437 212 437 195 418.5 c 128,-1,31
 178 400 178 400 169 374.5 c 128,-1,32
 160 349 160 349 160 318 c 2,33,-1
 160 311 l 1,34,-1
 408 311 l 1,35,-1
 408 322 l 2,36,37
 408 383 408 383 376 420.5 c 128,-1,38
 344 458 344 458 289 458 c 0,28,29
EndSplineSet
Validated: 1
EndChar

StartChar: f
Encoding: 102 102 10
Width: 348
GlyphClass: 2
Flags: W
AnchorPoint: "Anchor-0" 165 0 basechar 0
LayerCount: 2
Fore
SplineSet
108 441 m 1,0,-1
 27 441 l 1,1,-1
 27 532 l 1,2,-1
 108 532 l 1,3,-1
 108 621 l 2,4,5
 108 686 108 686 141.5 722 c 128,-1,6
 175 758 175 758 243 758 c 2,7,-1
 331 758 l 1,8,-1
 331 667 l 1,9,-1
 219 667 l 1,10,-1
 219 532 l 1,11,-1
 331 532 l 1,12,-1
 331 441 l 1,13,-1
 219 441 l 1,14,-1
 219 0 l 1,15,-1
 108 0 l 1,16,-1
 108 441 l 1,0,-1
EndSplineSet
Validated: 1
EndChar

StartChar: g
Encoding: 103 103 11
Width: 549
GlyphClass: 2
Flags: W
AnchorPoint: "Anchor-2" 275 553 basechar 0
LayerCount: 2
Fore
SplineSet
547 -50 m 0,0,1
 547 -133 547 -133 483.5 -175 c 128,-1,2
 420 -217 420 -217 276 -217 c 0,3,4
 210 -217 210 -217 165 -208.5 c 128,-1,5
 120 -200 120 -200 90.5 -183.5 c 128,-1,6
 61 -167 61 -167 48 -143.5 c 128,-1,7
 35 -120 35 -120 35 -89 c 0,8,9
 35 -45 35 -45 59 -20.5 c 128,-1,10
 83 4 83 4 126 13 c 1,11,-1
 126 25 l 1,12,13
 66 44 66 44 66 106 c 0,14,15
 66 147 66 147 93.5 169 c 128,-1,16
 121 191 121 191 160 201 c 1,17,-1
 160 205 l 1,18,19
 113 228 113 228 87.5 268 c 128,-1,20
 62 308 62 308 62 362 c 0,21,22
 62 444 62 444 117 494.5 c 128,-1,23
 172 545 172 545 274 545 c 0,24,25
 330 545 330 545 371 528 c 1,26,-1
 371 543 l 2,27,28
 371 579 371 579 387.5 598.5 c 128,-1,29
 404 618 404 618 440 618 c 2,30,-1
 522 618 l 1,31,-1
 522 528 l 1,32,-1
 414 528 l 1,33,-1
 414 507 l 1,34,35
 450 483 450 483 469 446 c 128,-1,36
 488 409 488 409 488 362 c 0,37,38
 488 281 488 281 433 231.5 c 128,-1,39
 378 182 378 182 275 182 c 0,40,41
 236 182 236 182 206 190 c 1,42,43
 186 183 186 183 170.5 170.5 c 128,-1,44
 155 158 155 158 155 137 c 0,45,46
 155 115 155 115 174.5 106 c 128,-1,47
 194 97 194 97 229 97 c 2,48,-1
 360 97 l 2,49,50
 458 97 458 97 502.5 58 c 128,-1,51
 547 19 547 19 547 -50 c 0,0,1
442 -62 m 0,52,53
 442 -34 442 -34 421 -18 c 128,-1,54
 400 -2 400 -2 345 -2 c 2,55,-1
 165 -2 l 1,56,57
 128 -24 128 -24 128 -63 c 0,58,59
 128 -96 128 -96 154 -116 c 128,-1,60
 180 -136 180 -136 243 -136 c 2,61,-1
 312 -136 l 2,62,63
 442 -136 442 -136 442 -62 c 0,52,53
275 263 m 256,64,65
 324 263 324 263 351.5 285 c 128,-1,66
 379 307 379 307 379 353 c 2,67,-1
 379 374 l 2,68,69
 379 420 379 420 352 442 c 128,-1,70
 325 464 325 464 275 464 c 256,71,72
 226 464 226 464 199 442 c 128,-1,73
 172 420 172 420 172 374 c 2,74,-1
 172 353 l 2,75,76
 172 307 172 307 199 285 c 128,-1,77
 226 263 226 263 275 263 c 256,64,65
EndSplineSet
Validated: 1
Substitution2: "Single Substitution lookup 22 subtable" g.alt02
Substitution2: "'salt' Stylistic Alternatives lookup 18 subtable" g.alt01
Substitution2: "'ss02' Style Set 2 lookup 14 subtable" g.alt01
AlternateSubs2: "'aalt' Access All Alternates lookup 1 subtable" g.alt01 g.alt02
EndChar

StartChar: g.alt01
Encoding: 65538 -1 12
Width: 606
GlyphClass: 2
Flags: W
AnchorPoint: "Anchor-2" 294 553 basechar 0
LayerCount: 2
Fore
SplineSet
526 24 m 2,0,1
 526 -90 526 -90 463 -153.5 c 128,-1,2
 400 -217 400 -217 280 -217 c 0,3,4
 209 -217 209 -217 160.5 -196 c 128,-1,5
 112 -175 112 -175 81 -142 c 1,6,-1
 143 -70 l 1,7,8
 195 -125 195 -125 279 -125 c 0,9,10
 346 -125 346 -125 380.5 -88.5 c 128,-1,11
 415 -52 415 -52 415 15 c 2,12,-1
 415 92 l 1,13,-1
 410 92 l 1,14,15
 393 45 393 45 353 18.5 c 128,-1,16
 313 -8 313 -8 260 -8 c 0,17,18
 159 -8 159 -8 103.5 64.5 c 128,-1,19
 48 137 48 137 48 268 c 256,20,21
 48 399 48 399 103.5 472 c 128,-1,22
 159 545 159 545 260 545 c 0,23,24
 313 545 313 545 352.5 519 c 128,-1,25
 392 493 392 493 410 444 c 1,26,-1
 415 444 l 1,27,-1
 415 532 l 1,28,-1
 526 532 l 1,29,-1
 526 24 l 2,0,1
294 88 m 0,30,31
 345 88 345 88 380 113 c 128,-1,32
 415 138 415 138 415 179 c 2,33,-1
 415 357 l 2,34,35
 415 398 415 398 380 423.5 c 128,-1,36
 345 449 345 449 294 449 c 0,37,38
 236 449 236 449 201 411.5 c 128,-1,39
 166 374 166 374 166 312 c 2,40,-1
 166 224 l 2,41,42
 166 163 166 163 201 125.5 c 128,-1,43
 236 88 236 88 294 88 c 0,30,31
EndSplineSet
Validated: 1
EndChar

StartChar: g.alt02
Encoding: 65539 -1 13
Width: 556
GlyphClass: 2
Flags: W
AnchorPoint: "Anchor-2" 278 553 basechar 0
LayerCount: 2
Fore
SplineSet
547 -50 m 0,0,1
 547 -133 547 -133 483.5 -175 c 128,-1,2
 420 -217 420 -217 276 -217 c 0,3,4
 210 -217 210 -217 165 -208.5 c 128,-1,5
 120 -200 120 -200 90.5 -183.5 c 128,-1,6
 61 -167 61 -167 48 -143.5 c 128,-1,7
 35 -120 35 -120 35 -89 c 0,8,9
 35 -45 35 -45 59 -20.5 c 128,-1,10
 83 4 83 4 126 13 c 1,11,-1
 126 25 l 1,12,13
 66 44 66 44 66 106 c 0,14,15
 66 148 66 148 94 169.5 c 128,-1,16
 122 191 122 191 161 201 c 1,17,-1
 161 205 l 1,18,19
 113 228 113 228 87.5 268 c 128,-1,20
 62 308 62 308 62 362 c 0,21,22
 62 444 62 444 117.5 494.5 c 128,-1,23
 173 545 173 545 274 545 c 0,24,25
 323 545 323 545 364 532 c 1,26,-1
 535 532 l 1,27,-1
 535 452 l 1,28,-1
 460 452 l 1,29,30
 489 415 489 415 488 362 c 0,31,32
 488 281 488 281 433 231.5 c 128,-1,33
 378 182 378 182 275 182 c 0,34,35
 238 182 238 182 206 190 c 1,36,37
 186 183 186 183 170.5 170.5 c 128,-1,38
 155 158 155 158 155 137 c 0,39,40
 155 115 155 115 174.5 106 c 128,-1,41
 194 97 194 97 229 97 c 2,42,-1
 360 97 l 2,43,44
 458 97 458 97 502.5 58 c 128,-1,45
 547 19 547 19 547 -50 c 0,0,1
275 263 m 256,46,47
 324 263 324 263 351.5 285 c 128,-1,48
 379 307 379 307 379 353 c 2,49,-1
 379 374 l 2,50,51
 379 420 379 420 352 442 c 128,-1,52
 325 464 325 464 275 464 c 256,53,54
 226 464 226 464 199 442 c 128,-1,55
 172 420 172 420 172 374 c 2,56,-1
 172 353 l 2,57,58
 172 307 172 307 199 285 c 128,-1,59
 226 263 226 263 275 263 c 256,46,47
442 -62 m 0,60,61
 442 -34 442 -34 421 -18 c 128,-1,62
 400 -2 400 -2 345 -2 c 2,63,-1
 165 -2 l 1,64,65
 128 -24 128 -24 128 -63 c 0,66,67
 128 -96 128 -96 154 -116 c 128,-1,68
 180 -136 180 -136 243 -136 c 2,69,-1
 312 -136 l 2,70,71
 442 -136 442 -136 442 -62 c 0,60,61
EndSplineSet
Validated: 33
EndChar

StartChar: h
Encoding: 104 104 14
Width: 593
GlyphClass: 2
Flags: W
AnchorPoint: "Anchor-2" 137 715 basechar 0
AnchorPoint: "Anchor-0" 300 0 basechar 0
LayerCount: 2
Fore
SplineSet
80 758 m 1,0,-1
 191 758 l 1,1,-1
 191 444 l 1,2,-1
 197 444 l 1,3,4
 214 487 214 487 249.5 516 c 128,-1,5
 285 545 285 545 346 545 c 0,6,7
 428 545 428 545 473.5 491 c 128,-1,8
 519 437 519 437 519 338 c 2,9,-1
 519 0 l 1,10,-1
 408 0 l 1,11,-1
 408 325 l 2,12,13
 408 449 408 449 307 449 c 0,14,15
 285 449 285 449 264.5 443 c 128,-1,16
 244 437 244 437 227.5 426 c 128,-1,17
 211 415 211 415 201 397.5 c 128,-1,18
 191 380 191 380 191 357 c 2,19,-1
 191 0 l 1,20,-1
 80 0 l 1,21,-1
 80 758 l 1,0,-1
EndSplineSet
Validated: 1
EndChar

StartChar: i
Encoding: 105 105 15
Width: 271
GlyphClass: 2
Flags: W
AnchorPoint: "Anchor-1" 191 0 basechar 0
AnchorPoint: "Anchor-0" 136 0 basechar 0
LayerCount: 2
Fore
SplineSet
136 628 m 256,0,1
 101 628 101 628 85.5 644 c 128,-1,2
 70 660 70 660 70 686 c 2,3,-1
 70 703 l 2,4,5
 70 729 70 729 85.5 745.5 c 128,-1,6
 101 762 101 762 136 762 c 256,7,8
 171 762 171 762 186.5 745.5 c 128,-1,9
 202 729 202 729 202 703 c 2,10,-1
 202 686 l 2,11,12
 202 660 202 660 186.5 644 c 128,-1,13
 171 628 171 628 136 628 c 256,0,1
80 532 m 1,14,-1
 191 532 l 1,15,-1
 191 0 l 1,16,-1
 80 0 l 1,17,-1
 80 532 l 1,14,-1
EndSplineSet
Validated: 1
Substitution2: "Single Substitution lookup 22 subtable" dotlessi
EndChar

StartChar: j
Encoding: 106 106 16
Width: 271
GlyphClass: 1
Flags: W
LayerCount: 2
Fore
SplineSet
80 532 m 1,0,-1
 191 532 l 1,1,-1
 191 -72 l 2,2,3
 191 -133 191 -133 160 -169 c 128,-1,4
 129 -205 129 -205 61 -205 c 2,5,-1
 -3 -205 l 1,6,-1
 -3 -114 l 1,7,-1
 80 -114 l 1,8,-1
 80 532 l 1,0,-1
136 628 m 256,9,10
 101 628 101 628 85.5 644 c 128,-1,11
 70 660 70 660 70 686 c 2,12,-1
 70 703 l 2,13,14
 70 729 70 729 85.5 745.5 c 128,-1,15
 101 762 101 762 136 762 c 256,16,17
 171 762 171 762 186.5 745.5 c 128,-1,18
 202 729 202 729 202 703 c 2,19,-1
 202 686 l 2,20,21
 202 660 202 660 186.5 644 c 128,-1,22
 171 628 171 628 136 628 c 256,9,10
EndSplineSet
Validated: 1
Substitution2: "Single Substitution lookup 22 subtable" uni0237
EndChar

StartChar: k
Encoding: 107 107 17
Width: 560
GlyphClass: 2
Flags: W
AnchorPoint: "Anchor-0" 313 0 basechar 0
LayerCount: 2
Fore
SplineSet
80 758 m 1,0,-1
 191 758 l 1,1,-1
 191 293 l 1,2,-1
 197 293 l 1,3,-1
 270 388 l 1,4,-1
 398 532 l 1,5,-1
 528 532 l 1,6,-1
 342 327 l 1,7,-1
 551 0 l 1,8,-1
 418 0 l 1,9,-1
 265 254 l 1,10,-1
 191 174 l 1,11,-1
 191 0 l 1,12,-1
 80 0 l 1,13,-1
 80 758 l 1,0,-1
EndSplineSet
Validated: 1
EndChar

StartChar: l
Encoding: 108 108 18
Width: 291
GlyphClass: 2
Flags: W
AnchorPoint: "Anchor-3" 254 758 basechar 0
AnchorPoint: "Anchor-2" 136 758 basechar 0
AnchorPoint: "Anchor-0" 173 0 basechar 0
LayerCount: 2
Fore
SplineSet
194 0 m 2,0,1
 137 0 137 0 108.5 29 c 128,-1,2
 80 58 80 58 80 111 c 2,3,-1
 80 758 l 1,4,-1
 191 758 l 1,5,-1
 191 91 l 1,6,-1
 265 91 l 1,7,-1
 265 0 l 1,8,-1
 194 0 l 2,0,1
EndSplineSet
Validated: 1
EndChar

StartChar: m
Encoding: 109 109 19
Width: 903
GlyphClass: 2
Flags: W
AnchorPoint: "Anchor-2" 454 553 basechar 0
AnchorPoint: "Anchor-0" 454 0 basechar 0
LayerCount: 2
Fore
SplineSet
80 0 m 1,0,-1
 80 532 l 1,1,-1
 191 532 l 1,2,-1
 191 444 l 1,3,-1
 197 444 l 1,4,5
 205 464 205 464 216.5 483 c 128,-1,6
 228 502 228 502 245 515.5 c 128,-1,7
 262 529 262 529 285 537 c 128,-1,8
 308 545 308 545 339 545 c 0,9,10
 393 545 393 545 435 518.5 c 128,-1,11
 477 492 477 492 497 436 c 1,12,-1
 500 436 l 1,13,14
 514 481 514 481 555 513 c 128,-1,15
 596 545 596 545 660 545 c 0,16,17
 740 545 740 545 784 491 c 128,-1,18
 828 437 828 437 828 338 c 2,19,-1
 828 0 l 1,20,-1
 717 0 l 1,21,-1
 717 325 l 2,22,23
 717 386 717 386 693.5 417.5 c 128,-1,24
 670 449 670 449 618 449 c 0,25,26
 596 449 596 449 577 443 c 128,-1,27
 558 437 558 437 543 426 c 128,-1,28
 528 415 528 415 519 397.5 c 128,-1,29
 510 380 510 380 510 357 c 2,30,-1
 510 0 l 1,31,-1
 398 0 l 1,32,-1
 398 325 l 2,33,34
 398 449 398 449 301 449 c 0,35,36
 281 449 281 449 261 443 c 128,-1,37
 241 437 241 437 225.5 426 c 128,-1,38
 210 415 210 415 200.5 397.5 c 128,-1,39
 191 380 191 380 191 357 c 2,40,-1
 191 0 l 1,41,-1
 80 0 l 1,0,-1
EndSplineSet
Validated: 1
EndChar

StartChar: n
Encoding: 110 110 20
Width: 593
GlyphClass: 2
Flags: W
AnchorPoint: "Anchor-2" 300 553 basechar 0
AnchorPoint: "Anchor-0" 300 0 basechar 0
LayerCount: 2
Fore
SplineSet
80 0 m 1,0,-1
 80 532 l 1,1,-1
 191 532 l 1,2,-1
 191 444 l 1,3,-1
 197 444 l 1,4,5
 214 487 214 487 249.5 516 c 128,-1,6
 285 545 285 545 346 545 c 0,7,8
 428 545 428 545 473.5 491 c 128,-1,9
 519 437 519 437 519 338 c 2,10,-1
 519 0 l 1,11,-1
 408 0 l 1,12,-1
 408 324 l 2,13,14
 408 449 408 449 307 449 c 0,15,16
 285 449 285 449 264.5 443 c 128,-1,17
 244 437 244 437 227.5 426 c 128,-1,18
 211 415 211 415 201 397.5 c 128,-1,19
 191 380 191 380 191 356 c 2,20,-1
 191 0 l 1,21,-1
 80 0 l 1,0,-1
EndSplineSet
Validated: 1
EndChar

StartChar: o
Encoding: 111 111 21
Width: 577
GlyphClass: 2
Flags: W
AnchorPoint: "Anchor-2" 287 553 basechar 0
AnchorPoint: "Anchor-0" 287 0 basechar 0
LayerCount: 2
Fore
SplineSet
289 -12 m 256,0,1
 234 -12 234 -12 188 7.5 c 128,-1,2
 142 27 142 27 110.5 63 c 128,-1,3
 79 99 79 99 61.5 151 c 128,-1,4
 44 203 44 203 44 266 c 256,5,6
 44 329 44 329 61.5 381 c 128,-1,7
 79 433 79 433 110.5 469.5 c 128,-1,8
 142 506 142 506 187.5 525.5 c 128,-1,9
 233 545 233 545 289 545 c 256,10,11
 344 545 344 545 389.5 525.5 c 128,-1,12
 435 506 435 506 467 469.5 c 128,-1,13
 499 433 499 433 516.5 381.5 c 128,-1,14
 534 330 534 330 534 266 c 256,15,16
 534 203 534 203 516.5 151 c 128,-1,17
 499 99 499 99 467 63 c 128,-1,18
 435 27 435 27 389.5 7.5 c 128,-1,19
 344 -12 344 -12 289 -12 c 256,0,1
289 80 m 256,20,21
 346 80 346 80 381 115.5 c 128,-1,22
 416 151 416 151 416 221 c 2,23,-1
 416 311 l 2,24,25
 416 382 416 382 381 417.5 c 128,-1,26
 346 453 346 453 289 453 c 256,27,28
 232 453 232 453 197 417.5 c 128,-1,29
 162 382 162 382 162 311 c 2,30,-1
 162 221 l 2,31,32
 162 150 162 150 197 115 c 128,-1,33
 232 80 232 80 289 80 c 256,20,21
EndSplineSet
Validated: 1
Substitution2: "'ordn' Ordinals lookup 4 subtable" ordmasculine
EndChar

StartChar: p
Encoding: 112 112 22
Width: 606
GlyphClass: 2
Flags: W
AnchorPoint: "Anchor-2" 319 553 basechar 0
LayerCount: 2
Fore
SplineSet
80 532 m 1,0,-1
 191 532 l 1,1,-1
 191 444 l 1,2,-1
 197 444 l 1,3,4
 214 492 214 492 253.5 518.5 c 128,-1,5
 293 545 293 545 346 545 c 0,6,7
 447 545 447 545 502.5 471.5 c 128,-1,8
 558 398 558 398 558 266 c 256,9,10
 558 134 558 134 502.5 61 c 128,-1,11
 447 -12 447 -12 346 -12 c 0,12,13
 293 -12 293 -12 253.5 14.5 c 128,-1,14
 214 41 214 41 197 88 c 1,15,-1
 191 88 l 1,16,-1
 191 -205 l 1,17,-1
 80 -205 l 1,18,-1
 80 532 l 1,0,-1
312 84 m 0,19,20
 370 84 370 84 405 121.5 c 128,-1,21
 440 159 440 159 440 220 c 2,22,-1
 440 312 l 2,23,24
 440 373 440 373 405.5 411 c 128,-1,25
 371 449 371 449 312 449 c 0,26,27
 261 449 261 449 226 423.5 c 128,-1,28
 191 398 191 398 191 357 c 2,29,-1
 191 175 l 2,30,31
 191 134 191 134 226 109 c 128,-1,32
 261 84 261 84 312 84 c 0,19,20
EndSplineSet
Validated: 1
EndChar

StartChar: q
Encoding: 113 113 23
Width: 606
GlyphClass: 2
Flags: W
AnchorPoint: "Anchor-2" 288 553 basechar 0
LayerCount: 2
Fore
SplineSet
415 88 m 1,0,-1
 410 88 l 1,1,2
 393 41 393 41 353 14.5 c 128,-1,3
 313 -12 313 -12 260 -12 c 0,4,5
 159 -12 159 -12 103.5 61 c 128,-1,6
 48 134 48 134 48 266 c 256,7,8
 48 398 48 398 103.5 471.5 c 128,-1,9
 159 545 159 545 260 545 c 0,10,11
 313 545 313 545 352.5 519 c 128,-1,12
 392 493 392 493 410 444 c 1,13,-1
 415 444 l 1,14,-1
 415 532 l 1,15,-1
 526 532 l 1,16,-1
 526 -205 l 1,17,-1
 415 -205 l 1,18,-1
 415 88 l 1,0,-1
294 84 m 0,19,20
 345 84 345 84 380 109 c 128,-1,21
 415 134 415 134 415 175 c 2,22,-1
 415 357 l 2,23,24
 415 398 415 398 380 423.5 c 128,-1,25
 345 449 345 449 294 449 c 0,26,27
 236 449 236 449 201 411.5 c 128,-1,28
 166 374 166 374 166 312 c 2,29,-1
 166 220 l 2,30,31
 166 159 166 159 201 121.5 c 128,-1,32
 236 84 236 84 294 84 c 0,19,20
EndSplineSet
Validated: 1
EndChar

StartChar: r
Encoding: 114 114 24
Width: 392
GlyphClass: 2
Flags: W
AnchorPoint: "Anchor-2" 226 553 basechar 0
AnchorPoint: "Anchor-0" 137 0 basechar 0
LayerCount: 2
Fore
SplineSet
80 0 m 1,0,-1
 80 532 l 1,1,-1
 191 532 l 1,2,-1
 191 430 l 1,3,-1
 197 430 l 1,4,5
 208 471 208 471 244 501.5 c 128,-1,6
 280 532 280 532 343 532 c 2,7,-1
 373 532 l 1,8,-1
 373 425 l 1,9,-1
 329 425 l 2,10,11
 262 425 262 425 226.5 403.5 c 128,-1,12
 191 382 191 382 191 340 c 2,13,-1
 191 0 l 1,14,-1
 80 0 l 1,0,-1
EndSplineSet
Validated: 1
EndChar

StartChar: s
Encoding: 115 115 25
Width: 505
GlyphClass: 2
Flags: W
AnchorPoint: "Anchor-2" 249 553 basechar 0
AnchorPoint: "Anchor-0" 250 0 basechar 0
LayerCount: 2
Fore
SplineSet
249 -12 m 0,0,1
 173 -12 173 -12 122 14.5 c 128,-1,2
 71 41 71 41 33 88 c 1,3,-1
 104 154 l 1,4,5
 134 118 134 118 170.5 98 c 128,-1,6
 207 78 207 78 255 78 c 0,7,8
 304 78 304 78 328 97 c 128,-1,9
 352 116 352 116 352 150 c 0,10,11
 352 176 352 176 335 193.5 c 128,-1,12
 318 211 318 211 276 216 c 2,13,-1
 227 222 l 2,14,15
 145 232 145 232 98.5 269.5 c 128,-1,16
 52 307 52 307 52 381 c 0,17,18
 52 420 52 420 66.5 450 c 128,-1,19
 81 480 81 480 107 501 c 128,-1,20
 133 522 133 522 169.5 533.5 c 128,-1,21
 206 545 206 545 250 545 c 0,22,23
 322 545 322 545 367.5 522.5 c 128,-1,24
 413 500 413 500 449 460 c 1,25,-1
 380 394 l 1,26,27
 360 419 360 419 326.5 437 c 128,-1,28
 293 455 293 455 250 455 c 0,29,30
 204 455 204 455 182 436.5 c 128,-1,31
 160 418 160 418 160 388 c 0,32,33
 160 357 160 357 179.5 342 c 128,-1,34
 199 327 199 327 242 319 c 2,35,-1
 291 313 l 2,36,37
 379 300 379 300 419.5 261.5 c 128,-1,38
 460 223 460 223 460 159 c 0,39,40
 460 120 460 120 445 88.5 c 128,-1,41
 430 57 430 57 402.5 34.5 c 128,-1,42
 375 12 375 12 336 0 c 128,-1,43
 297 -12 297 -12 249 -12 c 0,0,1
EndSplineSet
Validated: 1
EndChar

StartChar: t
Encoding: 116 116 26
Width: 373
GlyphClass: 2
Flags: W
AnchorPoint: "Anchor-3" 289 786 basechar 0
AnchorPoint: "Anchor-0" 225 0 basechar 0
LayerCount: 2
Fore
SplineSet
227 0 m 2,0,1
 169 0 169 0 139.5 30 c 128,-1,2
 110 60 110 60 110 116 c 2,3,-1
 110 441 l 1,4,-1
 27 441 l 1,5,-1
 27 532 l 1,6,-1
 72 532 l 2,7,8
 100 532 100 532 110.5 544.5 c 128,-1,9
 121 557 121 557 121 585 c 2,10,-1
 121 678 l 1,11,-1
 221 678 l 1,12,-1
 221 532 l 1,13,-1
 333 532 l 1,14,-1
 333 441 l 1,15,-1
 221 441 l 1,16,-1
 221 91 l 1,17,-1
 325 91 l 1,18,-1
 325 0 l 1,19,-1
 227 0 l 2,0,1
EndSplineSet
Validated: 1
EndChar

StartChar: u
Encoding: 117 117 27
Width: 593
GlyphClass: 2
Flags: W
AnchorPoint: "Anchor-2" 295 553 basechar 0
AnchorPoint: "Anchor-1" 514 0 basechar 0
AnchorPoint: "Anchor-0" 292 0 basechar 0
LayerCount: 2
Fore
SplineSet
402 88 m 1,0,-1
 398 88 l 1,1,2
 391 69 391 69 379.5 50.5 c 128,-1,3
 368 32 368 32 350 18 c 128,-1,4
 332 4 332 4 307 -4 c 128,-1,5
 282 -12 282 -12 249 -12 c 0,6,7
 166 -12 166 -12 120.5 41 c 128,-1,8
 75 94 75 94 75 194 c 2,9,-1
 75 532 l 1,10,-1
 186 532 l 1,11,-1
 186 208 l 2,12,13
 186 84 186 84 289 84 c 0,14,15
 311 84 311 84 331 89.5 c 128,-1,16
 351 95 351 95 367 106.5 c 128,-1,17
 383 118 383 118 392.5 135.5 c 128,-1,18
 402 153 402 153 402 176 c 2,19,-1
 402 532 l 1,20,-1
 514 532 l 1,21,-1
 514 0 l 1,22,-1
 402 0 l 1,23,-1
 402 88 l 1,0,-1
EndSplineSet
Validated: 1
EndChar

StartChar: v
Encoding: 118 118 28
Width: 524
GlyphClass: 2
Flags: W
AnchorPoint: "Anchor-2" 262 553 basechar 0
AnchorPoint: "Anchor-0" 262 0 basechar 0
LayerCount: 2
Fore
SplineSet
196 0 m 1,0,-1
 14 532 l 1,1,-1
 125 532 l 1,2,-1
 206 290 l 1,3,-1
 260 103 l 1,4,-1
 266 103 l 1,5,-1
 321 290 l 1,6,-1
 403 532 l 1,7,-1
 510 532 l 1,8,-1
 327 0 l 1,9,-1
 196 0 l 1,0,-1
EndSplineSet
Validated: 1
EndChar

StartChar: w
Encoding: 119 119 29
Width: 818
GlyphClass: 2
Flags: W
AnchorPoint: "Anchor-2" 410 553 basechar 0
AnchorPoint: "Anchor-0" 410 0 basechar 0
LayerCount: 2
Fore
SplineSet
27 532 m 1,0,-1
 135 532 l 1,1,-1
 189 309 l 1,2,-1
 238 108 l 1,3,-1
 241 108 l 1,4,-1
 296 309 l 1,5,-1
 360 532 l 1,6,-1
 461 532 l 1,7,-1
 526 309 l 1,8,-1
 583 108 l 1,9,-1
 586 108 l 1,10,-1
 633 309 l 1,11,-1
 688 532 l 1,12,-1
 792 532 l 1,13,-1
 648 0 l 1,14,-1
 522 0 l 1,15,-1
 453 243 l 1,16,-1
 410 392 l 1,17,-1
 408 392 l 1,18,-1
 366 243 l 1,19,-1
 295 0 l 1,20,-1
 172 0 l 1,21,-1
 27 532 l 1,0,-1
EndSplineSet
Validated: 1
EndChar

StartChar: x
Encoding: 120 120 30
Width: 542
GlyphClass: 2
Flags: W
AnchorPoint: "Anchor-2" 271 553 basechar 0
AnchorPoint: "Anchor-0" 271 0 basechar 0
LayerCount: 2
Fore
SplineSet
20 0 m 1,0,-1
 208 269 l 1,1,-1
 26 532 l 1,2,-1
 155 532 l 1,3,-1
 274 347 l 1,4,-1
 278 347 l 1,5,-1
 400 532 l 1,6,-1
 519 532 l 1,7,-1
 337 270 l 1,8,-1
 522 0 l 1,9,-1
 393 0 l 1,10,-1
 270 194 l 1,11,-1
 267 194 l 1,12,-1
 139 0 l 1,13,-1
 20 0 l 1,0,-1
EndSplineSet
Validated: 1
EndChar

StartChar: y
Encoding: 121 121 31
Width: 526
GlyphClass: 2
Flags: W
AnchorPoint: "Anchor-2" 265 553 basechar 0
AnchorPoint: "Anchor-0" 419 0 basechar 0
LayerCount: 2
Fore
SplineSet
407 532 m 1,0,-1
 514 532 l 1,1,-1
 290 -105 l 2,2,3
 281 -132 281 -132 269 -151 c 128,-1,4
 257 -170 257 -170 241 -182 c 128,-1,5
 225 -194 225 -194 202.5 -199.5 c 128,-1,6
 180 -205 180 -205 150 -205 c 2,7,-1
 85 -205 l 1,8,-1
 85 -114 l 1,9,-1
 175 -114 l 1,10,-1
 206 -24 l 1,11,-1
 12 532 l 1,12,-1
 124 532 l 1,13,-1
 230 219 l 1,14,-1
 261 103 l 1,15,-1
 266 103 l 1,16,-1
 300 219 l 1,17,-1
 407 532 l 1,0,-1
EndSplineSet
Validated: 1
EndChar

StartChar: z
Encoding: 122 122 32
Width: 498
GlyphClass: 2
Flags: W
AnchorPoint: "Anchor-2" 250 553 basechar 0
AnchorPoint: "Anchor-0" 250 0 basechar 0
LayerCount: 2
Fore
SplineSet
37 0 m 1,0,-1
 37 90 l 1,1,-1
 323 441 l 1,2,-1
 46 441 l 1,3,-1
 46 532 l 1,4,-1
 455 532 l 1,5,-1
 455 446 l 1,6,-1
 165 91 l 1,7,-1
 462 91 l 1,8,-1
 462 0 l 1,9,-1
 37 0 l 1,0,-1
EndSplineSet
Validated: 1
EndChar

StartChar: A
Encoding: 65 65 33
Width: 677
GlyphClass: 2
Flags: W
AnchorPoint: "Anchor-2" 337 715 basechar 0
AnchorPoint: "Anchor-1" 653 0 basechar 0
AnchorPoint: "Anchor-0" 337 0 basechar 0
LayerCount: 2
Fore
SplineSet
535 0 m 1,0,-1
 470 194 l 1,1,-1
 203 194 l 1,2,-1
 140 0 l 1,3,-1
 23 0 l 1,4,-1
 266 715 l 1,5,-1
 412 715 l 1,6,-1
 655 0 l 1,7,-1
 535 0 l 1,0,-1
339 608 m 1,8,-1
 334 608 l 1,9,-1
 230 293 l 1,10,-1
 441 293 l 1,11,-1
 339 608 l 1,8,-1
EndSplineSet
Validated: 1
EndChar

StartChar: B
Encoding: 66 66 34
Width: 674
GlyphClass: 2
Flags: W
AnchorPoint: "Anchor-2" 335 715 basechar 0
AnchorPoint: "Anchor-0" 335 0 basechar 0
LayerCount: 2
Fore
SplineSet
88 715 m 1,0,-1
 404 715 l 2,1,2
 493 715 493 715 544 664.5 c 128,-1,3
 595 614 595 614 595 530 c 0,4,5
 595 490 595 490 583.5 462 c 128,-1,6
 572 434 572 434 555 416 c 128,-1,7
 538 398 538 398 515.5 389.5 c 128,-1,8
 493 381 493 381 471 379 c 1,9,-1
 471 373 l 1,10,11
 493 372 493 372 519 362.5 c 128,-1,12
 545 353 545 353 567.5 333 c 128,-1,13
 590 313 590 313 605.5 282 c 128,-1,14
 621 251 621 251 621 206 c 0,15,16
 621 163 621 163 607 125 c 128,-1,17
 593 87 593 87 568.5 59.5 c 128,-1,18
 544 32 544 32 510 16 c 128,-1,19
 476 0 476 0 436 0 c 2,20,-1
 88 0 l 1,21,-1
 88 715 l 1,0,-1
204 99 m 1,22,-1
 402 99 l 2,23,24
 447 99 447 99 473 122.5 c 128,-1,25
 499 146 499 146 499 190 c 2,26,-1
 499 225 l 2,27,28
 499 269 499 269 473 292.5 c 128,-1,29
 447 316 447 316 402 316 c 2,30,-1
 204 316 l 1,31,-1
 204 99 l 1,22,-1
204 413 m 1,32,-1
 383 413 l 2,33,34
 426 413 426 413 449.5 435 c 128,-1,35
 473 457 473 457 473 498 c 2,36,-1
 473 530 l 2,37,38
 473 571 473 571 449.5 593 c 128,-1,39
 426 615 426 615 383 615 c 2,40,-1
 204 615 l 1,41,-1
 204 413 l 1,32,-1
EndSplineSet
Validated: 1
EndChar

StartChar: C
Encoding: 67 67 35
Width: 649
GlyphClass: 2
Flags: W
AnchorPoint: "Anchor-2" 353 715 basechar 0
AnchorPoint: "Anchor-0" 345 0 basechar 0
LayerCount: 2
Fore
SplineSet
356 -12 m 0,0,1
 216 -12 216 -12 136 82.5 c 128,-1,2
 56 177 56 177 56 357 c 0,3,4
 56 447 56 447 76.5 516 c 128,-1,5
 97 585 97 585 136 632 c 128,-1,6
 175 679 175 679 231 703 c 128,-1,7
 287 727 287 727 356 727 c 0,8,9
 449 727 449 727 512 686 c 128,-1,10
 575 645 575 645 611 565 c 1,11,-1
 514 512 l 1,12,13
 496 563 496 563 457.5 593.5 c 128,-1,14
 419 624 419 624 356 624 c 0,15,16
 273 624 273 624 226 567.5 c 128,-1,17
 179 511 179 511 179 412 c 2,18,-1
 179 303 l 2,19,20
 179 204 179 204 226 147.5 c 128,-1,21
 273 91 273 91 356 91 c 0,22,23
 421 91 421 91 461.5 124.5 c 128,-1,24
 502 158 502 158 521 210 c 1,25,-1
 614 154 l 1,26,27
 578 76 578 76 513.5 32 c 128,-1,28
 449 -12 449 -12 356 -12 c 0,0,1
EndSplineSet
Validated: 1
EndChar

StartChar: D
Encoding: 68 68 36
Width: 699
GlyphClass: 2
Flags: W
AnchorPoint: "Anchor-2" 322 715 basechar 0
AnchorPoint: "Anchor-0" 322 0 basechar 0
LayerCount: 2
Fore
SplineSet
88 715 m 1,0,-1
 341 715 l 2,1,2
 410 715 410 715 465.5 692.5 c 128,-1,3
 521 670 521 670 560.5 625.5 c 128,-1,4
 600 581 600 581 621.5 513.5 c 128,-1,5
 643 446 643 446 643 357 c 256,6,7
 643 268 643 268 621.5 201 c 128,-1,8
 600 134 600 134 560.5 89.5 c 128,-1,9
 521 45 521 45 465.5 22.5 c 128,-1,10
 410 0 410 0 341 0 c 2,11,-1
 88 0 l 1,12,-1
 88 715 l 1,0,-1
341 102 m 2,13,14
 421 102 421 102 470 152.5 c 128,-1,15
 519 203 519 203 519 300 c 2,16,-1
 519 415 l 2,17,18
 519 512 519 512 470 562 c 128,-1,19
 421 612 421 612 341 612 c 2,20,-1
 204 612 l 1,21,-1
 204 102 l 1,22,-1
 341 102 l 2,13,14
EndSplineSet
Validated: 1
EndChar

StartChar: E
Encoding: 69 69 37
Width: 607
GlyphClass: 2
Flags: W
AnchorPoint: "Anchor-2" 316 715 basechar 0
AnchorPoint: "Anchor-1" 546 0 basechar 0
AnchorPoint: "Anchor-0" 316 0 basechar 0
LayerCount: 2
Fore
SplineSet
88 0 m 1,0,-1
 88 715 l 1,1,-1
 546 715 l 1,2,-1
 546 612 l 1,3,-1
 204 612 l 1,4,-1
 204 414 l 1,5,-1
 514 414 l 1,6,-1
 514 311 l 1,7,-1
 204 311 l 1,8,-1
 204 102 l 1,9,-1
 546 102 l 1,10,-1
 546 0 l 1,11,-1
 88 0 l 1,0,-1
EndSplineSet
Validated: 1
EndChar

StartChar: F
Encoding: 70 70 38
Width: 583
GlyphClass: 2
Flags: W
AnchorPoint: "Anchor-2" 311 715 basechar 0
AnchorPoint: "Anchor-0" 302 0 basechar 0
LayerCount: 2
Fore
SplineSet
88 0 m 1,0,-1
 88 715 l 1,1,-1
 535 715 l 1,2,-1
 535 612 l 1,3,-1
 204 612 l 1,4,-1
 204 414 l 1,5,-1
 498 414 l 1,6,-1
 498 311 l 1,7,-1
 204 311 l 1,8,-1
 204 0 l 1,9,-1
 88 0 l 1,0,-1
EndSplineSet
Validated: 1
EndChar

StartChar: G
Encoding: 71 71 39
Width: 721
GlyphClass: 2
Flags: W
AnchorPoint: "Anchor-2" 365 715 basechar 0
AnchorPoint: "Anchor-0" 356 0 basechar 0
LayerCount: 2
Fore
SplineSet
548 109 m 1,0,-1
 544 109 l 1,1,2
 533 57 533 57 483 22.5 c 128,-1,3
 433 -12 433 -12 351 -12 c 0,4,5
 288 -12 288 -12 233.5 12 c 128,-1,6
 179 36 179 36 139.5 82.5 c 128,-1,7
 100 129 100 129 78 198 c 128,-1,8
 56 267 56 267 56 357 c 0,9,10
 56 446 56 446 78.5 515.5 c 128,-1,11
 101 585 101 585 142 632 c 128,-1,12
 183 679 183 679 240.5 703 c 128,-1,13
 298 727 298 727 369 727 c 0,14,15
 465 727 465 727 531.5 684.5 c 128,-1,16
 598 642 598 642 635 566 c 1,17,-1
 541 511 l 1,18,19
 521 561 521 561 477.5 592.5 c 128,-1,20
 434 624 434 624 369 624 c 0,21,22
 284 624 284 624 232 569.5 c 128,-1,23
 180 515 180 515 180 416 c 2,24,-1
 180 299 l 2,25,26
 180 200 180 200 232 145.5 c 128,-1,27
 284 91 284 91 369 91 c 0,28,29
 403 91 403 91 433.5 100 c 128,-1,30
 464 109 464 109 487 125.5 c 128,-1,31
 510 142 510 142 524 167.5 c 128,-1,32
 538 193 538 193 538 226 c 2,33,-1
 538 282 l 1,34,-1
 390 282 l 1,35,-1
 390 381 l 1,36,-1
 649 381 l 1,37,-1
 649 0 l 1,38,-1
 548 0 l 1,39,-1
 548 109 l 1,0,-1
EndSplineSet
Validated: 1
EndChar

StartChar: H
Encoding: 72 72 40
Width: 731
GlyphClass: 2
Flags: W
AnchorPoint: "Anchor-2" 366 715 basechar 0
AnchorPoint: "Anchor-0" 366 0 basechar 0
LayerCount: 2
Fore
SplineSet
527 311 m 1,0,-1
 204 311 l 1,1,-1
 204 0 l 1,2,-1
 88 0 l 1,3,-1
 88 715 l 1,4,-1
 204 715 l 1,5,-1
 204 414 l 1,6,-1
 527 414 l 1,7,-1
 527 715 l 1,8,-1
 643 715 l 1,9,-1
 643 0 l 1,10,-1
 527 0 l 1,11,-1
 527 311 l 1,0,-1
EndSplineSet
Validated: 1
EndChar

StartChar: I
Encoding: 73 73 41
Width: 425
GlyphClass: 2
Flags: W
AnchorPoint: "Anchor-2" 212 715 basechar 0
AnchorPoint: "Anchor-1" 367 0 basechar 0
AnchorPoint: "Anchor-0" 212 0 basechar 0
LayerCount: 2
Fore
SplineSet
57 0 m 1,0,-1
 57 94 l 1,1,-1
 155 94 l 1,2,-1
 155 621 l 1,3,-1
 57 621 l 1,4,-1
 57 715 l 1,5,-1
 369 715 l 1,6,-1
 369 621 l 1,7,-1
 270 621 l 1,8,-1
 270 94 l 1,9,-1
 369 94 l 1,10,-1
 369 0 l 1,11,-1
 57 0 l 1,0,-1
EndSplineSet
Validated: 1
EndChar

StartChar: J
Encoding: 74 74 42
Width: 543
GlyphClass: 2
Flags: W
AnchorPoint: "Anchor-2" 287 715 basechar 0
AnchorPoint: "Anchor-0" 244 0 basechar 0
LayerCount: 2
Fore
SplineSet
460 715 m 1,0,-1
 460 195 l 2,1,2
 460 148 460 148 444.5 110 c 128,-1,3
 429 72 429 72 401 44.5 c 128,-1,4
 373 17 373 17 332.5 2.5 c 128,-1,5
 292 -12 292 -12 243 -12 c 0,6,7
 150 -12 150 -12 96 37.5 c 128,-1,8
 42 87 42 87 28 167 c 1,9,-1
 134 190 l 1,10,11
 143 144 143 144 169.5 117.5 c 128,-1,12
 196 91 196 91 243 91 c 0,13,14
 289 91 289 91 316.5 119.5 c 128,-1,15
 344 148 344 148 344 207 c 2,16,-1
 344 618 l 1,17,-1
 111 618 l 1,18,-1
 111 715 l 1,19,-1
 460 715 l 1,0,-1
EndSplineSet
Validated: 1
EndChar

StartChar: K
Encoding: 75 75 43
Width: 675
GlyphClass: 2
Flags: W
AnchorPoint: "Anchor-2" 345 715 basechar 0
AnchorPoint: "Anchor-0" 353 0 basechar 0
LayerCount: 2
Fore
SplineSet
302 334 m 1,0,-1
 204 221 l 1,1,-1
 204 0 l 1,2,-1
 88 0 l 1,3,-1
 88 715 l 1,4,-1
 204 715 l 1,5,-1
 204 352 l 1,6,-1
 208 352 l 1,7,-1
 310 482 l 1,8,-1
 503 715 l 1,9,-1
 638 715 l 1,10,-1
 383 414 l 1,11,-1
 658 0 l 1,12,-1
 519 0 l 1,13,-1
 302 334 l 1,0,-1
EndSplineSet
Validated: 1
EndChar

StartChar: L
Encoding: 76 76 44
Width: 525
GlyphClass: 2
Flags: W
AnchorPoint: "Anchor-3" 282 758 basechar 0
AnchorPoint: "Anchor-2" 146 715 basechar 0
AnchorPoint: "Anchor-0" 300 0 basechar 0
LayerCount: 2
Fore
SplineSet
88 0 m 1,0,-1
 88 715 l 1,1,-1
 204 715 l 1,2,-1
 204 102 l 1,3,-1
 495 102 l 1,4,-1
 495 0 l 1,5,-1
 88 0 l 1,0,-1
EndSplineSet
Validated: 1
EndChar

StartChar: M
Encoding: 77 77 45
Width: 833
GlyphClass: 2
Flags: W
AnchorPoint: "Anchor-2" 417 715 basechar 0
AnchorPoint: "Anchor-0" 417 0 basechar 0
LayerCount: 2
Fore
SplineSet
635 547 m 1,0,-1
 630 547 l 1,1,-1
 573 431 l 1,2,-1
 417 145 l 1,3,-1
 260 431 l 1,4,-1
 204 547 l 1,5,-1
 199 547 l 1,6,-1
 199 0 l 1,7,-1
 88 0 l 1,8,-1
 88 715 l 1,9,-1
 225 715 l 1,10,-1
 417 351 l 1,11,-1
 423 351 l 1,12,-1
 614 715 l 1,13,-1
 745 715 l 1,14,-1
 745 0 l 1,15,-1
 635 0 l 1,16,-1
 635 547 l 1,0,-1
EndSplineSet
Validated: 1
EndChar

StartChar: N
Encoding: 78 78 46
Width: 731
GlyphClass: 2
Flags: W
AnchorPoint: "Anchor-2" 365 715 basechar 0
AnchorPoint: "Anchor-0" 365 0 basechar 0
LayerCount: 2
Fore
SplineSet
281 395 m 1,0,-1
 202 547 l 1,1,-1
 199 547 l 1,2,-1
 199 0 l 1,3,-1
 88 0 l 1,4,-1
 88 715 l 1,5,-1
 217 715 l 1,6,-1
 451 319 l 1,7,-1
 529 168 l 1,8,-1
 532 168 l 1,9,-1
 532 715 l 1,10,-1
 643 715 l 1,11,-1
 643 0 l 1,12,-1
 514 0 l 1,13,-1
 281 395 l 1,0,-1
EndSplineSet
Validated: 1
EndChar

StartChar: O
Encoding: 79 79 47
Width: 729
GlyphClass: 2
Flags: W
AnchorPoint: "Anchor-2" 364 715 basechar 0
AnchorPoint: "Anchor-0" 364 0 basechar 0
LayerCount: 2
Fore
SplineSet
365 -12 m 256,0,1
 295 -12 295 -12 238 12 c 128,-1,2
 181 36 181 36 140.5 82.5 c 128,-1,3
 100 129 100 129 78 198 c 128,-1,4
 56 267 56 267 56 357 c 256,5,6
 56 447 56 447 78 516.5 c 128,-1,7
 100 586 100 586 140.5 632.5 c 128,-1,8
 181 679 181 679 238 703 c 128,-1,9
 295 727 295 727 365 727 c 256,10,11
 435 727 435 727 491.5 703 c 128,-1,12
 548 679 548 679 588.5 632.5 c 128,-1,13
 629 586 629 586 651 516.5 c 128,-1,14
 673 447 673 447 673 357 c 256,15,16
 673 267 673 267 651 198 c 128,-1,17
 629 129 629 129 588.5 82.5 c 128,-1,18
 548 36 548 36 491.5 12 c 128,-1,19
 435 -12 435 -12 365 -12 c 256,0,1
365 91 m 0,20,21
 406 91 406 91 440 105.5 c 128,-1,22
 474 120 474 120 498 147 c 128,-1,23
 522 174 522 174 535.5 213 c 128,-1,24
 549 252 549 252 549 301 c 2,25,-1
 549 414 l 2,26,27
 549 463 549 463 535.5 502 c 128,-1,28
 522 541 522 541 498 568 c 128,-1,29
 474 595 474 595 440 609.5 c 128,-1,30
 406 624 406 624 365 624 c 0,31,32
 323 624 323 624 289 609.5 c 128,-1,33
 255 595 255 595 231 568 c 128,-1,34
 207 541 207 541 193.5 502 c 128,-1,35
 180 463 180 463 180 414 c 2,36,-1
 180 301 l 2,37,38
 180 252 180 252 193.5 213 c 128,-1,39
 207 174 207 174 231 147 c 128,-1,40
 255 120 255 120 289 105.5 c 128,-1,41
 323 91 323 91 365 91 c 0,20,21
EndSplineSet
Validated: 1
EndChar

StartChar: P
Encoding: 80 80 48
Width: 642
GlyphClass: 2
Flags: W
AnchorPoint: "Anchor-2" 312 715 basechar 0
AnchorPoint: "Anchor-0" 312 0 basechar 0
LayerCount: 2
Fore
SplineSet
88 0 m 1,0,-1
 88 715 l 1,1,-1
 395 715 l 2,2,3
 494 715 494 715 548.5 656.5 c 128,-1,4
 603 598 603 598 603 500 c 256,5,6
 603 402 603 402 549 343.5 c 128,-1,7
 495 285 495 285 395 285 c 2,8,-1
 204 285 l 1,9,-1
 204 0 l 1,10,-1
 88 0 l 1,0,-1
204 386 m 1,11,-1
 388 386 l 2,12,13
 432 386 432 386 456.5 409 c 128,-1,14
 481 432 481 432 481 475 c 2,15,-1
 481 524 l 2,16,17
 481 567 481 567 456.5 590 c 128,-1,18
 432 613 432 613 388 613 c 2,19,-1
 204 613 l 1,20,-1
 204 386 l 1,11,-1
EndSplineSet
Validated: 1
EndChar

StartChar: Q
Encoding: 81 81 49
Width: 729
GlyphClass: 2
Flags: W
AnchorPoint: "Anchor-2" 364 715 basechar 0
LayerCount: 2
Fore
SplineSet
536 -177 m 1,0,-1
 434 -177 l 2,1,2
 374 -177 374 -177 345.5 -146.5 c 128,-1,3
 317 -116 317 -116 317 -63 c 2,4,-1
 317 -9 l 1,5,6
 257 -2 257 -2 209 25.5 c 128,-1,7
 161 53 161 53 127 99 c 128,-1,8
 93 145 93 145 74.5 210 c 128,-1,9
 56 275 56 275 56 357 c 0,10,11
 56 447 56 447 78 516.5 c 128,-1,12
 100 586 100 586 140.5 632.5 c 128,-1,13
 181 679 181 679 238 703 c 128,-1,14
 295 727 295 727 365 727 c 256,15,16
 435 727 435 727 491.5 703 c 128,-1,17
 548 679 548 679 588.5 632.5 c 128,-1,18
 629 586 629 586 651 516.5 c 128,-1,19
 673 447 673 447 673 357 c 0,20,21
 673 197 673 197 606.5 104.5 c 128,-1,22
 540 12 540 12 426 -7 c 1,23,-1
 426 -81 l 1,24,-1
 536 -81 l 1,25,-1
 536 -177 l 1,0,-1
365 91 m 0,26,27
 406 91 406 91 440 105.5 c 128,-1,28
 474 120 474 120 498 147 c 128,-1,29
 522 174 522 174 535.5 213 c 128,-1,30
 549 252 549 252 549 301 c 2,31,-1
 549 414 l 2,32,33
 549 463 549 463 535.5 502 c 128,-1,34
 522 541 522 541 498 568 c 128,-1,35
 474 595 474 595 440 609.5 c 128,-1,36
 406 624 406 624 365 624 c 0,37,38
 323 624 323 624 289 609.5 c 128,-1,39
 255 595 255 595 231 568 c 128,-1,40
 207 541 207 541 193.5 502 c 128,-1,41
 180 463 180 463 180 414 c 2,42,-1
 180 301 l 2,43,44
 180 252 180 252 193.5 213 c 128,-1,45
 207 174 207 174 231 147 c 128,-1,46
 255 120 255 120 289 105.5 c 128,-1,47
 323 91 323 91 365 91 c 0,26,27
EndSplineSet
Validated: 1
EndChar

StartChar: R
Encoding: 82 82 50
Width: 670
GlyphClass: 2
Flags: W
AnchorPoint: "Anchor-2" 322 715 basechar 0
AnchorPoint: "Anchor-0" 339 0 basechar 0
LayerCount: 2
Fore
SplineSet
204 0 m 1,0,-1
 88 0 l 1,1,-1
 88 715 l 1,2,-1
 396 715 l 2,3,4
 492 715 492 715 547.5 657 c 128,-1,5
 603 599 603 599 603 500 c 0,6,7
 603 423 603 423 567.5 372.5 c 128,-1,8
 532 322 532 322 464 301 c 1,9,-1
 618 0 l 1,10,-1
 489 0 l 1,11,-1
 346 289 l 1,12,-1
 204 289 l 1,13,-1
 204 0 l 1,0,-1
388 386 m 2,14,15
 432 386 432 386 456.5 409 c 128,-1,16
 481 432 481 432 481 475 c 2,17,-1
 481 524 l 2,18,19
 481 567 481 567 456.5 590 c 128,-1,20
 432 613 432 613 388 613 c 2,21,-1
 204 613 l 1,22,-1
 204 386 l 1,23,-1
 388 386 l 2,14,15
EndSplineSet
Validated: 1
EndChar

StartChar: S
Encoding: 83 83 51
Width: 612
GlyphClass: 2
Flags: W
AnchorPoint: "Anchor-2" 304 715 basechar 0
AnchorPoint: "Anchor-0" 304 0 basechar 0
LayerCount: 2
Fore
SplineSet
302 -12 m 0,0,1
 212 -12 212 -12 149 20.5 c 128,-1,2
 86 53 86 53 41 109 c 1,3,-1
 121 183 l 1,4,5
 159 137 159 137 204.5 113.5 c 128,-1,6
 250 90 250 90 308 90 c 0,7,8
 377 90 377 90 411.5 121 c 128,-1,9
 446 152 446 152 446 204 c 0,10,11
 446 246 446 246 421.5 270.5 c 128,-1,12
 397 295 397 295 335 307 c 2,13,-1
 271 318 l 2,14,15
 167 337 167 337 114.5 386.5 c 128,-1,16
 62 436 62 436 62 522 c 0,17,18
 62 569 62 569 80 607.5 c 128,-1,19
 98 646 98 646 130.5 672 c 128,-1,20
 163 698 163 698 209 712.5 c 128,-1,21
 255 727 255 727 312 727 c 0,22,23
 393 727 393 727 452.5 699 c 128,-1,24
 512 671 512 671 554 617 c 1,25,-1
 473 546 l 1,26,27
 445 582 445 582 405.5 603.5 c 128,-1,28
 366 625 366 625 306 625 c 0,29,30
 245 625 245 625 211 600 c 128,-1,31
 177 575 177 575 177 528 c 0,32,33
 177 483 177 483 204.5 461 c 128,-1,34
 232 439 232 439 291 428 c 2,35,-1
 354 415 l 2,36,37
 462 395 462 395 511.5 345.5 c 128,-1,38
 561 296 561 296 561 210 c 0,39,40
 561 160 561 160 543.5 119 c 128,-1,41
 526 78 526 78 493 48.5 c 128,-1,42
 460 19 460 19 411.5 3.5 c 128,-1,43
 363 -12 363 -12 302 -12 c 0,0,1
EndSplineSet
Validated: 1
EndChar

StartChar: T
Encoding: 84 84 52
Width: 590
GlyphClass: 2
Flags: W
AnchorPoint: "Anchor-2" 296 715 basechar 0
AnchorPoint: "Anchor-0" 296 0 basechar 0
LayerCount: 2
Fore
SplineSet
353 612 m 1,0,-1
 353 0 l 1,1,-1
 238 0 l 1,2,-1
 238 612 l 1,3,-1
 25 612 l 1,4,-1
 25 715 l 1,5,-1
 566 715 l 1,6,-1
 566 612 l 1,7,-1
 353 612 l 1,0,-1
EndSplineSet
Validated: 1
EndChar

StartChar: U
Encoding: 85 85 53
Width: 702
GlyphClass: 2
Flags: W
AnchorPoint: "Anchor-2" 349 715 basechar 0
AnchorPoint: "Anchor-1" 455 0 basechar 0
AnchorPoint: "Anchor-0" 349 0 basechar 0
LayerCount: 2
Fore
SplineSet
198 715 m 1,0,-1
 198 274 l 2,1,2
 198 183 198 183 232.5 137 c 128,-1,3
 267 91 267 91 351 91 c 256,4,5
 435 91 435 91 470 137 c 128,-1,6
 505 183 505 183 505 274 c 2,7,-1
 505 715 l 1,8,-1
 618 715 l 1,9,-1
 618 293 l 2,10,11
 618 214 618 214 604 156.5 c 128,-1,12
 590 99 590 99 558 62 c 128,-1,13
 526 25 526 25 475.5 6.5 c 128,-1,14
 425 -12 425 -12 351 -12 c 256,15,16
 277 -12 277 -12 226.5 6.5 c 128,-1,17
 176 25 176 25 144.5 62 c 128,-1,18
 113 99 113 99 98.5 156.5 c 128,-1,19
 84 214 84 214 84 293 c 2,20,-1
 84 715 l 1,21,-1
 198 715 l 1,0,-1
EndSplineSet
Validated: 1
EndChar

StartChar: V
Encoding: 86 86 54
Width: 643
GlyphClass: 2
Flags: W
AnchorPoint: "Anchor-2" 321 715 basechar 0
AnchorPoint: "Anchor-0" 321 0 basechar 0
LayerCount: 2
Fore
SplineSet
253 0 m 1,0,-1
 18 715 l 1,1,-1
 138 715 l 1,2,-1
 252 361 l 1,3,-1
 321 113 l 1,4,-1
 325 113 l 1,5,-1
 394 361 l 1,6,-1
 508 715 l 1,7,-1
 625 715 l 1,8,-1
 387 0 l 1,9,-1
 253 0 l 1,0,-1
EndSplineSet
Validated: 1
EndChar

StartChar: W
Encoding: 87 87 55
Width: 948
GlyphClass: 2
Flags: W
AnchorPoint: "Anchor-2" 475 715 basechar 0
AnchorPoint: "Anchor-0" 475 0 basechar 0
LayerCount: 2
Fore
SplineSet
194 0 m 1,0,-1
 25 715 l 1,1,-1
 142 715 l 1,2,-1
 215 371 l 1,3,-1
 265 133 l 1,4,-1
 268 133 l 1,5,-1
 326 371 l 1,6,-1
 411 715 l 1,7,-1
 540 715 l 1,8,-1
 624 371 l 1,9,-1
 680 134 l 1,10,-1
 683 134 l 1,11,-1
 735 371 l 1,12,-1
 810 715 l 1,13,-1
 924 715 l 1,14,-1
 748 0 l 1,15,-1
 617 0 l 1,16,-1
 526 370 l 1,17,-1
 473 587 l 1,18,-1
 471 587 l 1,19,-1
 417 370 l 1,20,-1
 324 0 l 1,21,-1
 194 0 l 1,0,-1
EndSplineSet
Validated: 1
EndChar

StartChar: X
Encoding: 88 88 56
Width: 654
GlyphClass: 2
Flags: W
AnchorPoint: "Anchor-2" 328 715 basechar 0
AnchorPoint: "Anchor-0" 328 0 basechar 0
LayerCount: 2
Fore
SplineSet
633 0 m 1,0,-1
 497 0 l 1,1,-1
 324 285 l 1,2,-1
 321 285 l 1,3,-1
 150 0 l 1,4,-1
 22 0 l 1,5,-1
 253 366 l 1,6,-1
 30 715 l 1,7,-1
 166 715 l 1,8,-1
 329 449 l 1,9,-1
 331 449 l 1,10,-1
 496 715 l 1,11,-1
 624 715 l 1,12,-1
 398 367 l 1,13,-1
 633 0 l 1,0,-1
EndSplineSet
Validated: 1
EndChar

StartChar: Y
Encoding: 89 89 57
Width: 631
GlyphClass: 2
Flags: W
AnchorPoint: "Anchor-2" 316 715 basechar 0
AnchorPoint: "Anchor-0" 315 0 basechar 0
LayerCount: 2
Fore
SplineSet
257 0 m 1,0,-1
 257 282 l 1,1,-1
 11 715 l 1,2,-1
 143 715 l 1,3,-1
 317 396 l 1,4,-1
 321 396 l 1,5,-1
 494 715 l 1,6,-1
 621 715 l 1,7,-1
 373 284 l 1,8,-1
 373 0 l 1,9,-1
 257 0 l 1,0,-1
EndSplineSet
Validated: 1
EndChar

StartChar: Z
Encoding: 90 90 58
Width: 605
GlyphClass: 2
Flags: W
AnchorPoint: "Anchor-2" 307 715 basechar 0
AnchorPoint: "Anchor-0" 307 0 basechar 0
LayerCount: 2
Fore
SplineSet
567 0 m 1,0,-1
 38 0 l 1,1,-1
 38 103 l 1,2,-1
 426 612 l 1,3,-1
 58 612 l 1,4,-1
 58 715 l 1,5,-1
 556 715 l 1,6,-1
 556 611 l 1,7,-1
 168 102 l 1,8,-1
 567 102 l 1,9,-1
 567 0 l 1,0,-1
EndSplineSet
Validated: 1
EndChar

StartChar: zero
Encoding: 48 48 59
Width: 614
GlyphClass: 1
Flags: W
LayerCount: 2
Fore
SplineSet
307 -12 m 0,0,1
 240 -12 240 -12 191 13 c 128,-1,2
 142 38 142 38 110.5 85 c 128,-1,3
 79 132 79 132 63.5 200.5 c 128,-1,4
 48 269 48 269 48 357 c 0,5,6
 48 444 48 444 63.5 513.5 c 128,-1,7
 79 583 79 583 110.5 630 c 128,-1,8
 142 677 142 677 191.5 702 c 128,-1,9
 241 727 241 727 307 727 c 0,10,11
 440 727 440 727 503 629.5 c 128,-1,12
 566 532 566 532 566 357 c 256,13,14
 566 182 566 182 503 85 c 128,-1,15
 440 -12 440 -12 307 -12 c 0,0,1
307 86 m 256,16,17
 344 86 344 86 370 101 c 128,-1,18
 396 116 396 116 412.5 143.5 c 128,-1,19
 429 171 429 171 436 209.5 c 128,-1,20
 443 248 443 248 443 295 c 2,21,-1
 443 420 l 2,22,23
 443 467 443 467 436 505.5 c 128,-1,24
 429 544 429 544 412.5 571.5 c 128,-1,25
 396 599 396 599 370 614 c 128,-1,26
 344 629 344 629 307 629 c 256,27,28
 270 629 270 629 244 614 c 128,-1,29
 218 599 218 599 201.5 571.5 c 128,-1,30
 185 544 185 544 178 505.5 c 128,-1,31
 171 467 171 467 171 420 c 2,32,-1
 171 295 l 2,33,34
 171 248 171 248 178 209.5 c 128,-1,35
 185 171 185 171 201.5 143.5 c 128,-1,36
 218 116 218 116 244 101 c 128,-1,37
 270 86 270 86 307 86 c 256,16,17
EndSplineSet
Validated: 1
Substitution2: "'salt' Stylistic Alternatives lookup 18 subtable" zero.alt01
Substitution2: "'ss04' Style Set 4 lookup 16 subtable" zero.alt01
Substitution2: "'ss03' Style Set 3 lookup 15 subtable" zero.alt02
Substitution2: "'zero' Slashed Zero lookup 12 subtable" zero.alt02
Substitution2: "'subs' Subscript lookup 11 subtable" uni2080
Substitution2: "'sinf' Scientific Inferiors lookup 10 subtable" uni2080
Substitution2: "'sups' Superscript lookup 9 subtable" uni2070
Substitution2: "'dnom' Denominators lookup 8 subtable" uni2080
Substitution2: "'numr' Numerators lookup 7 subtable" uni2070
Substitution2: "'frac' Diagonal Fractions lookup 5 subtable" uni2070
AlternateSubs2: "'aalt' Access All Alternates lookup 1 subtable" zero.alt01 zero.alt02
EndChar

StartChar: zero.alt01
Encoding: 65540 -1 60
Width: 614
GlyphClass: 1
Flags: W
LayerCount: 2
Fore
SplineSet
307 -12 m 0,0,1
 240 -12 240 -12 191 13 c 128,-1,2
 142 38 142 38 110.5 85 c 128,-1,3
 79 132 79 132 63.5 200.5 c 128,-1,4
 48 269 48 269 48 357 c 0,5,6
 48 444 48 444 63.5 513.5 c 128,-1,7
 79 583 79 583 110.5 630 c 128,-1,8
 142 677 142 677 191.5 702 c 128,-1,9
 241 727 241 727 307 727 c 0,10,11
 440 727 440 727 503 629.5 c 128,-1,12
 566 532 566 532 566 357 c 256,13,14
 566 182 566 182 503 85 c 128,-1,15
 440 -12 440 -12 307 -12 c 0,0,1
307 86 m 256,16,17
 344 86 344 86 370 101 c 128,-1,18
 396 116 396 116 412.5 143.5 c 128,-1,19
 429 171 429 171 436 209.5 c 128,-1,20
 443 248 443 248 443 295 c 2,21,-1
 443 420 l 2,22,23
 443 467 443 467 436 505.5 c 128,-1,24
 429 544 429 544 412.5 571.5 c 128,-1,25
 396 599 396 599 370 614 c 128,-1,26
 344 629 344 629 307 629 c 256,27,28
 270 629 270 629 244 614 c 128,-1,29
 218 599 218 599 201.5 571.5 c 128,-1,30
 185 544 185 544 178 505.5 c 128,-1,31
 171 467 171 467 171 420 c 2,32,-1
 171 295 l 2,33,34
 171 248 171 248 178 209.5 c 128,-1,35
 185 171 185 171 201.5 143.5 c 128,-1,36
 218 116 218 116 244 101 c 128,-1,37
 270 86 270 86 307 86 c 256,16,17
308 296 m 0,38,39
 277 296 277 296 262.5 312 c 128,-1,40
 248 328 248 328 248 351 c 2,41,-1
 248 364 l 2,42,43
 248 389 248 389 263 404.5 c 128,-1,44
 278 420 278 420 308 420 c 0,45,46
 338 420 338 420 352.5 404 c 128,-1,47
 367 388 367 388 367 364 c 2,48,-1
 367 351 l 2,49,50
 367 327 367 327 352.5 311.5 c 128,-1,51
 338 296 338 296 308 296 c 0,38,39
EndSplineSet
Validated: 1
EndChar

StartChar: zero.alt02
Encoding: 65541 -1 61
Width: 614
GlyphClass: 1
Flags: W
LayerCount: 2
Fore
SplineSet
307 -12 m 0,0,1
 240 -12 240 -12 191 13 c 128,-1,2
 142 38 142 38 110.5 85 c 128,-1,3
 79 132 79 132 63.5 200.5 c 128,-1,4
 48 269 48 269 48 357 c 0,5,6
 48 444 48 444 63.5 513.5 c 128,-1,7
 79 583 79 583 110.5 630 c 128,-1,8
 142 677 142 677 191.5 702 c 128,-1,9
 241 727 241 727 307 727 c 0,10,11
 440 727 440 727 503 629.5 c 128,-1,12
 566 532 566 532 566 357 c 256,13,14
 566 182 566 182 503 85 c 128,-1,15
 440 -12 440 -12 307 -12 c 0,0,1
307 86 m 0,16,17
 344 86 344 86 370 101 c 128,-1,18
 396 116 396 116 412.5 143.5 c 128,-1,19
 429 171 429 171 436 209.5 c 128,-1,20
 443 248 443 248 443 295 c 2,21,-1
 443 442 l 1,22,23
 443 442 443 442 442 451 c 1,24,-1
 189 170 l 1,25,26
 203 130 203 130 232 108 c 128,-1,27
 261 86 261 86 307 86 c 0,16,17
425 545 m 1,28,29
 410 584 410 584 381.5 606.5 c 128,-1,30
 353 629 353 629 307 629 c 0,31,32
 270 629 270 629 244 614 c 128,-1,33
 218 599 218 599 201.5 571.5 c 128,-1,34
 185 544 185 544 178 505.5 c 128,-1,35
 171 467 171 467 171 420 c 2,36,-1
 171 263 l 1,37,-1
 425 545 l 1,28,29
EndSplineSet
Validated: 1
EndChar

StartChar: one
Encoding: 49 49 62
Width: 614
GlyphClass: 1
Flags: W
LayerCount: 2
Fore
SplineSet
90 0 m 1,0,-1
 90 96 l 1,1,-1
 291 96 l 1,2,-1
 291 631 l 1,3,-1
 283 631 l 1,4,-1
 117 454 l 1,5,-1
 46 517 l 1,6,-1
 228 715 l 1,7,-1
 404 715 l 1,8,-1
 404 96 l 1,9,-1
 579 96 l 1,10,-1
 579 0 l 1,11,-1
 90 0 l 1,0,-1
EndSplineSet
Validated: 1
Substitution2: "'subs' Subscript lookup 11 subtable" uni2081
Substitution2: "'sinf' Scientific Inferiors lookup 10 subtable" uni2081
Substitution2: "'sups' Superscript lookup 9 subtable" onesuperior
Substitution2: "'dnom' Denominators lookup 8 subtable" uni2081
Substitution2: "'numr' Numerators lookup 7 subtable" onesuperior
Substitution2: "'frac' Diagonal Fractions lookup 5 subtable" onesuperior
EndChar

StartChar: two
Encoding: 50 50 63
Width: 614
GlyphClass: 1
Flags: W
LayerCount: 2
Fore
SplineSet
554 0 m 1,0,-1
 69 0 l 1,1,-1
 69 111 l 1,2,-1
 297 314 l 2,3,4
 351 363 351 363 380.5 408 c 128,-1,5
 410 453 410 453 410 502 c 2,6,-1
 410 515 l 2,7,8
 410 567 410 567 378.5 597 c 128,-1,9
 347 627 347 627 294 627 c 0,10,11
 264 627 264 627 242 618 c 128,-1,12
 220 609 220 609 203.5 594 c 128,-1,13
 187 579 187 579 176.5 558.5 c 128,-1,14
 166 538 166 538 160 514 c 1,15,-1
 58 553 l 1,16,17
 69 587 69 587 89 618 c 128,-1,18
 109 649 109 649 138.5 673.5 c 128,-1,19
 168 698 168 698 208.5 712.5 c 128,-1,20
 249 727 249 727 303 727 c 256,21,22
 357 727 357 727 400 711 c 128,-1,23
 443 695 443 695 472.5 667 c 128,-1,24
 502 639 502 639 517 600 c 128,-1,25
 532 561 532 561 532 515 c 0,26,27
 532 472 532 472 519 435 c 128,-1,28
 506 398 506 398 482.5 365.5 c 128,-1,29
 459 333 459 333 427.5 303 c 128,-1,30
 396 273 396 273 361 243 c 2,31,-1
 194 98 l 1,32,-1
 554 98 l 1,33,-1
 554 0 l 1,0,-1
EndSplineSet
Validated: 1
Substitution2: "'subs' Subscript lookup 11 subtable" uni2082
Substitution2: "'sinf' Scientific Inferiors lookup 10 subtable" uni2082
Substitution2: "'sups' Superscript lookup 9 subtable" twosuperior
Substitution2: "'dnom' Denominators lookup 8 subtable" uni2082
Substitution2: "'numr' Numerators lookup 7 subtable" twosuperior
Substitution2: "'frac' Diagonal Fractions lookup 5 subtable" twosuperior
EndChar

StartChar: three
Encoding: 51 51 64
Width: 614
GlyphClass: 1
Flags: W
LayerCount: 2
Fore
SplineSet
268 421 m 2,0,1
 335 421 335 421 366.5 449 c 128,-1,2
 398 477 398 477 398 521 c 2,3,-1
 398 528 l 2,4,5
 398 577 398 577 367.5 603.5 c 128,-1,6
 337 630 337 630 285 630 c 0,7,8
 234 630 234 630 198 607 c 128,-1,9
 162 584 162 584 137 543 c 1,10,-1
 60 609 l 1,11,12
 76 633 76 633 97 654.5 c 128,-1,13
 118 676 118 676 145.5 692 c 128,-1,14
 173 708 173 708 208 717.5 c 128,-1,15
 243 727 243 727 288 727 c 0,16,17
 338 727 338 727 381 714.5 c 128,-1,18
 424 702 424 702 454.5 678 c 128,-1,19
 485 654 485 654 502.5 620 c 128,-1,20
 520 586 520 586 520 543 c 0,21,22
 520 509 520 509 509.5 481.5 c 128,-1,23
 499 454 499 454 480 433 c 128,-1,24
 461 412 461 412 436 398.5 c 128,-1,25
 411 385 411 385 383 379 c 1,26,-1
 383 374 l 1,27,28
 414 368 414 368 441 354 c 128,-1,29
 468 340 468 340 488.5 318 c 128,-1,30
 509 296 509 296 520.5 266 c 128,-1,31
 532 236 532 236 532 197 c 0,32,33
 532 150 532 150 514 111.5 c 128,-1,34
 496 73 496 73 462.5 45 c 128,-1,35
 429 17 429 17 382 2.5 c 128,-1,36
 335 -12 335 -12 278 -12 c 0,37,38
 228 -12 228 -12 190 -1.5 c 128,-1,39
 152 9 152 9 122.5 27 c 128,-1,40
 93 45 93 45 71 68 c 128,-1,41
 49 91 49 91 33 116 c 1,42,-1
 118 182 l 1,43,44
 131 160 131 160 146 142.5 c 128,-1,45
 161 125 161 125 180 112 c 128,-1,46
 199 99 199 99 223 92 c 128,-1,47
 247 85 247 85 278 85 c 0,48,49
 344 85 344 85 378.5 116 c 128,-1,50
 413 147 413 147 413 203 c 2,51,-1
 413 210 l 2,52,53
 413 265 413 265 376 294 c 128,-1,54
 339 323 339 323 271 323 c 2,55,-1
 196 323 l 1,56,-1
 196 421 l 1,57,-1
 268 421 l 2,0,1
EndSplineSet
Validated: 1
Substitution2: "'subs' Subscript lookup 11 subtable" uni2083
Substitution2: "'sinf' Scientific Inferiors lookup 10 subtable" uni2083
Substitution2: "'sups' Superscript lookup 9 subtable" threesuperior
Substitution2: "'dnom' Denominators lookup 8 subtable" uni2083
Substitution2: "'numr' Numerators lookup 7 subtable" threesuperior
Substitution2: "'frac' Diagonal Fractions lookup 5 subtable" threesuperior
EndChar

StartChar: four
Encoding: 52 52 65
Width: 614
GlyphClass: 1
Flags: W
LayerCount: 2
Fore
SplineSet
368 0 m 1,0,-1
 368 139 l 1,1,-1
 36 139 l 1,2,-1
 36 239 l 1,3,-1
 326 715 l 1,4,-1
 477 715 l 1,5,-1
 477 230 l 1,6,-1
 574 230 l 1,7,-1
 574 139 l 1,8,-1
 477 139 l 1,9,-1
 477 0 l 1,10,-1
 368 0 l 1,0,-1
134 230 m 1,11,-1
 368 230 l 1,12,-1
 368 609 l 1,13,-1
 360 609 l 1,14,-1
 134 230 l 1,11,-1
EndSplineSet
Validated: 1
Substitution2: "'subs' Subscript lookup 11 subtable" uni2084
Substitution2: "'sinf' Scientific Inferiors lookup 10 subtable" uni2084
Substitution2: "'sups' Superscript lookup 9 subtable" uni2074
Substitution2: "'dnom' Denominators lookup 8 subtable" uni2084
Substitution2: "'numr' Numerators lookup 7 subtable" uni2074
Substitution2: "'frac' Diagonal Fractions lookup 5 subtable" uni2074
EndChar

StartChar: five
Encoding: 53 53 66
Width: 614
GlyphClass: 1
Flags: W
LayerCount: 2
Fore
SplineSet
520 614 m 1,0,-1
 203 614 l 1,1,-1
 184 361 l 1,2,-1
 191 361 l 1,3,4
 203 383 203 383 216.5 400 c 128,-1,5
 230 417 230 417 247.5 429 c 128,-1,6
 265 441 265 441 287.5 448 c 128,-1,7
 310 455 310 455 341 455 c 0,8,9
 387 455 387 455 426.5 439.5 c 128,-1,10
 466 424 466 424 495 395.5 c 128,-1,11
 524 367 524 367 540.5 325.5 c 128,-1,12
 557 284 557 284 557 231 c 0,13,14
 557 178 557 178 540 133 c 128,-1,15
 523 88 523 88 490.5 56 c 128,-1,16
 458 24 458 24 410 6 c 128,-1,17
 362 -12 362 -12 302 -12 c 0,18,19
 254 -12 254 -12 217 -1.5 c 128,-1,20
 180 9 180 9 152 27 c 128,-1,21
 124 45 124 45 103 68 c 128,-1,22
 82 91 82 91 66 116 c 1,23,-1
 150 182 l 1,24,25
 163 160 163 160 177 143 c 128,-1,26
 191 126 191 126 209.5 112.5 c 128,-1,27
 228 99 228 99 251 92 c 128,-1,28
 274 85 274 85 304 85 c 0,29,30
 367 85 367 85 401.5 120 c 128,-1,31
 436 155 436 155 436 216 c 2,32,-1
 436 228 l 2,33,34
 436 289 436 289 402 324 c 128,-1,35
 368 359 368 359 304 359 c 0,36,37
 258 359 258 359 230.5 342 c 128,-1,38
 203 325 203 325 183 303 c 1,39,-1
 88 316 l 1,40,-1
 115 715 l 1,41,-1
 520 715 l 1,42,-1
 520 614 l 1,0,-1
EndSplineSet
Validated: 1
Substitution2: "'subs' Subscript lookup 11 subtable" uni2085
Substitution2: "'sinf' Scientific Inferiors lookup 10 subtable" uni2085
Substitution2: "'sups' Superscript lookup 9 subtable" uni2075
Substitution2: "'dnom' Denominators lookup 8 subtable" uni2085
Substitution2: "'numr' Numerators lookup 7 subtable" uni2075
Substitution2: "'frac' Diagonal Fractions lookup 5 subtable" uni2075
EndChar

StartChar: six
Encoding: 54 54 67
Width: 614
GlyphClass: 1
Flags: W
LayerCount: 2
Fore
SplineSet
309 -12 m 0,0,1
 250 -12 250 -12 203.5 7.5 c 128,-1,2
 157 27 157 27 124.5 63 c 128,-1,3
 92 99 92 99 74.5 150.5 c 128,-1,4
 57 202 57 202 57 266 c 0,5,6
 57 344 57 344 80.5 412.5 c 128,-1,7
 104 481 104 481 141 538.5 c 128,-1,8
 178 596 178 596 223.5 640.5 c 128,-1,9
 269 685 269 685 313 715 c 1,10,-1
 467 715 l 1,11,12
 407 671 407 671 358.5 630 c 128,-1,13
 310 589 310 589 274.5 546 c 128,-1,14
 239 503 239 503 214.5 455 c 128,-1,15
 190 407 190 407 177 349 c 1,16,-1
 184 347 l 1,17,18
 195 369 195 369 210 388 c 128,-1,19
 225 407 225 407 245 421 c 128,-1,20
 265 435 265 435 290.5 443.5 c 128,-1,21
 316 452 316 452 350 452 c 0,22,23
 395 452 395 452 433.5 436.5 c 128,-1,24
 472 421 472 421 500 391.5 c 128,-1,25
 528 362 528 362 544 321.5 c 128,-1,26
 560 281 560 281 560 230 c 0,27,28
 560 176 560 176 542 131.5 c 128,-1,29
 524 87 524 87 491.5 55.5 c 128,-1,30
 459 24 459 24 412 6 c 128,-1,31
 365 -12 365 -12 309 -12 c 0,0,1
309 82 m 256,32,33
 371 82 371 82 406 115 c 128,-1,34
 441 148 441 148 441 213 c 2,35,-1
 441 227 l 2,36,37
 441 292 441 292 406.5 325 c 128,-1,38
 372 358 372 358 309 358 c 256,39,40
 247 358 247 358 212 325 c 128,-1,41
 177 292 177 292 177 227 c 2,42,-1
 177 213 l 2,43,44
 177 148 177 148 212 115 c 128,-1,45
 247 82 247 82 309 82 c 256,32,33
EndSplineSet
Validated: 1
Substitution2: "'subs' Subscript lookup 11 subtable" uni2086
Substitution2: "'sinf' Scientific Inferiors lookup 10 subtable" uni2086
Substitution2: "'sups' Superscript lookup 9 subtable" uni2076
Substitution2: "'dnom' Denominators lookup 8 subtable" uni2086
Substitution2: "'numr' Numerators lookup 7 subtable" uni2076
Substitution2: "'frac' Diagonal Fractions lookup 5 subtable" uni2076
EndChar

StartChar: seven
Encoding: 55 55 68
Width: 614
GlyphClass: 1
Flags: W
LayerCount: 2
Fore
SplineSet
175 0 m 1,0,-1
 434 620 l 1,1,-1
 164 620 l 1,2,-1
 164 487 l 1,3,-1
 65 487 l 1,4,-1
 65 715 l 1,5,-1
 549 715 l 1,6,-1
 549 614 l 1,7,-1
 297 0 l 1,8,-1
 175 0 l 1,0,-1
EndSplineSet
Validated: 1
Substitution2: "'subs' Subscript lookup 11 subtable" uni2087
Substitution2: "'sinf' Scientific Inferiors lookup 10 subtable" uni2087
Substitution2: "'sups' Superscript lookup 9 subtable" uni2077
Substitution2: "'dnom' Denominators lookup 8 subtable" uni2087
Substitution2: "'numr' Numerators lookup 7 subtable" uni2077
Substitution2: "'frac' Diagonal Fractions lookup 5 subtable" uni2077
EndChar

StartChar: eight
Encoding: 56 56 69
Width: 614
GlyphClass: 1
Flags: W
LayerCount: 2
Fore
SplineSet
307 -12 m 256,0,1
 245 -12 245 -12 197.5 3.5 c 128,-1,2
 150 19 150 19 117.5 47 c 128,-1,3
 85 75 85 75 68 113 c 128,-1,4
 51 151 51 151 51 195 c 0,5,6
 51 267 51 267 90.5 310 c 128,-1,7
 130 353 130 353 195 371 c 1,8,-1
 195 379 l 1,9,10
 140 398 140 398 106.5 440 c 128,-1,11
 73 482 73 482 73 544 c 0,12,13
 73 585 73 585 88.5 618.5 c 128,-1,14
 104 652 104 652 134 676 c 128,-1,15
 164 700 164 700 208 713.5 c 128,-1,16
 252 727 252 727 307 727 c 256,17,18
 362 727 362 727 406.5 713.5 c 128,-1,19
 451 700 451 700 480.5 676 c 128,-1,20
 510 652 510 652 526 618.5 c 128,-1,21
 542 585 542 585 542 544 c 0,22,23
 542 483 542 483 508.5 440.5 c 128,-1,24
 475 398 475 398 420 379 c 1,25,-1
 420 371 l 1,26,27
 485 354 485 354 524 310 c 128,-1,28
 563 266 563 266 563 195 c 0,29,30
 563 151 563 151 546 113 c 128,-1,31
 529 75 529 75 497 47 c 128,-1,32
 465 19 465 19 417 3.5 c 128,-1,33
 369 -12 369 -12 307 -12 c 256,0,1
307 81 m 256,34,35
 372 81 372 81 407 110.5 c 128,-1,36
 442 140 442 140 442 194 c 2,37,-1
 442 214 l 2,38,39
 442 267 442 267 407 297 c 128,-1,40
 372 327 372 327 307 327 c 256,41,42
 242 327 242 327 207 297 c 128,-1,43
 172 267 172 267 172 214 c 2,44,-1
 172 194 l 2,45,46
 172 141 172 141 207 111 c 128,-1,47
 242 81 242 81 307 81 c 256,34,35
307 416 m 256,48,49
 366 416 366 416 397.5 441.5 c 128,-1,50
 429 467 429 467 429 516 c 2,51,-1
 429 534 l 2,52,53
 429 583 429 583 398 608.5 c 128,-1,54
 367 634 367 634 307 634 c 256,55,56
 248 634 248 634 216.5 608.5 c 128,-1,57
 185 583 185 583 185 534 c 2,58,-1
 185 516 l 2,59,60
 185 467 185 467 216.5 441.5 c 128,-1,61
 248 416 248 416 307 416 c 256,48,49
EndSplineSet
Validated: 1
Substitution2: "'subs' Subscript lookup 11 subtable" uni2088
Substitution2: "'sinf' Scientific Inferiors lookup 10 subtable" uni2088
Substitution2: "'sups' Superscript lookup 9 subtable" uni2078
Substitution2: "'dnom' Denominators lookup 8 subtable" uni2088
Substitution2: "'numr' Numerators lookup 7 subtable" uni2078
Substitution2: "'frac' Diagonal Fractions lookup 5 subtable" uni2078
EndChar

StartChar: nine
Encoding: 57 57 70
Width: 614
GlyphClass: 1
Flags: W
LayerCount: 2
Fore
SplineSet
557 449 m 0,0,1
 557 371 557 371 533.5 302 c 128,-1,2
 510 233 510 233 473 176 c 128,-1,3
 436 119 436 119 390.5 74 c 128,-1,4
 345 29 345 29 301 0 c 1,5,-1
 147 0 l 1,6,7
 207 44 207 44 255.5 85 c 128,-1,8
 304 126 304 126 340 169 c 128,-1,9
 376 212 376 212 400 260 c 128,-1,10
 424 308 424 308 437 366 c 1,11,-1
 430 368 l 1,12,13
 419 346 419 346 404 327 c 128,-1,14
 389 308 389 308 369 294 c 128,-1,15
 349 280 349 280 323.5 271.5 c 128,-1,16
 298 263 298 263 264 263 c 0,17,18
 219 263 219 263 180.5 278.5 c 128,-1,19
 142 294 142 294 114 323 c 128,-1,20
 86 352 86 352 70 392.5 c 128,-1,21
 54 433 54 433 54 484 c 0,22,23
 54 537 54 537 72 582.5 c 128,-1,24
 90 628 90 628 123 659.5 c 128,-1,25
 156 691 156 691 202 709 c 128,-1,26
 248 727 248 727 305 727 c 0,27,28
 364 727 364 727 411 707.5 c 128,-1,29
 458 688 458 688 490 651.5 c 128,-1,30
 522 615 522 615 539.5 564.5 c 128,-1,31
 557 514 557 514 557 449 c 0,0,1
305 356 m 256,32,33
 367 356 367 356 402 389.5 c 128,-1,34
 437 423 437 423 437 487 c 2,35,-1
 437 502 l 2,36,37
 437 567 437 567 402.5 600 c 128,-1,38
 368 633 368 633 305 633 c 256,39,40
 243 633 243 633 208 599.5 c 128,-1,41
 173 566 173 566 173 502 c 2,42,-1
 173 487 l 2,43,44
 173 422 173 422 208 389 c 128,-1,45
 243 356 243 356 305 356 c 256,32,33
EndSplineSet
Validated: 1
Substitution2: "'subs' Subscript lookup 11 subtable" uni2089
Substitution2: "'sinf' Scientific Inferiors lookup 10 subtable" uni2089
Substitution2: "'sups' Superscript lookup 9 subtable" uni2079
Substitution2: "'dnom' Denominators lookup 8 subtable" uni2089
Substitution2: "'numr' Numerators lookup 7 subtable" uni2079
Substitution2: "'frac' Diagonal Fractions lookup 5 subtable" uni2079
EndChar

StartChar: ampersand
Encoding: 38 38 71
Width: 723
GlyphClass: 1
Flags: W
LayerCount: 2
Fore
SplineSet
501 73 m 1,0,1
 488 60 488 60 469 45 c 128,-1,2
 450 30 450 30 424.5 17 c 128,-1,3
 399 4 399 4 367 -4 c 128,-1,4
 335 -12 335 -12 294 -12 c 0,5,6
 239 -12 239 -12 196 3 c 128,-1,7
 153 18 153 18 123.5 45 c 128,-1,8
 94 72 94 72 79.5 108 c 128,-1,9
 65 144 65 144 65 186 c 0,10,11
 65 224 65 224 76.5 254.5 c 128,-1,12
 88 285 88 285 108 309 c 128,-1,13
 128 333 128 333 154 352 c 128,-1,14
 180 371 180 371 210 387 c 1,15,16
 176 423 176 423 152.5 465 c 128,-1,17
 129 507 129 507 129 555 c 0,18,19
 129 591 129 591 143 622.5 c 128,-1,20
 157 654 157 654 182.5 677 c 128,-1,21
 208 700 208 700 244.5 713.5 c 128,-1,22
 281 727 281 727 325 727 c 0,23,24
 366 727 366 727 400.5 716 c 128,-1,25
 435 705 435 705 460.5 684.5 c 128,-1,26
 486 664 486 664 500 634.5 c 128,-1,27
 514 605 514 605 514 569 c 0,28,29
 514 534 514 534 501.5 506 c 128,-1,30
 489 478 489 478 467.5 455 c 128,-1,31
 446 432 446 432 418 412 c 128,-1,32
 390 392 390 392 358 374 c 1,33,-1
 498 223 l 1,34,35
 512 260 512 260 520 301 c 128,-1,36
 528 342 528 342 530 384 c 1,37,-1
 683 384 l 1,38,-1
 683 290 l 1,39,-1
 613 290 l 1,40,41
 598 212 598 212 566 152 c 1,42,-1
 707 0 l 1,43,-1
 567 0 l 1,44,-1
 501 73 l 1,0,1
325 638 m 256,45,46
 288 638 288 638 262.5 616 c 128,-1,47
 237 594 237 594 237 558 c 2,48,-1
 237 550 l 2,49,50
 237 523 237 523 253.5 496.5 c 128,-1,51
 270 470 270 470 302 435 c 1,52,53
 345 459 345 459 376 488 c 128,-1,54
 407 517 407 517 407 555 c 2,55,-1
 407 563 l 2,56,57
 407 599 407 599 384.5 618.5 c 128,-1,58
 362 638 362 638 325 638 c 256,45,46
307 83 m 0,59,60
 350 83 350 83 383 97.5 c 128,-1,61
 416 112 416 112 440 137 c 1,62,-1
 266 325 l 1,63,64
 227 303 227 303 203 276.5 c 128,-1,65
 179 250 179 250 179 204 c 2,66,-1
 179 190 l 2,67,68
 179 141 179 141 213 112 c 128,-1,69
 247 83 247 83 307 83 c 0,59,60
EndSplineSet
Validated: 1
EndChar

StartChar: at
Encoding: 64 64 72
Width: 917
GlyphClass: 1
Flags: W
LayerCount: 2
Fore
SplineSet
692 -124 m 1,0,-1
 464 -124 l 2,1,2
 372 -124 372 -124 298 -93.5 c 128,-1,3
 224 -63 224 -63 172.5 -8 c 128,-1,4
 121 47 121 47 93 124.5 c 128,-1,5
 65 202 65 202 65 296 c 256,6,7
 65 390 65 390 93.5 469 c 128,-1,8
 122 548 122 548 174.5 605 c 128,-1,9
 227 662 227 662 302.5 693.5 c 128,-1,10
 378 725 378 725 470 725 c 0,11,12
 549 725 549 725 619 701 c 128,-1,13
 689 677 689 677 741.5 628.5 c 128,-1,14
 794 580 794 580 824.5 507 c 128,-1,15
 855 434 855 434 855 336 c 0,16,17
 855 280 855 280 844 232 c 128,-1,18
 833 184 833 184 809.5 149.5 c 128,-1,19
 786 115 786 115 751.5 95.5 c 128,-1,20
 717 76 717 76 671 76 c 0,21,22
 619 76 619 76 590 101 c 128,-1,23
 561 126 561 126 557 167 c 1,24,-1
 552 167 l 1,25,26
 537 125 537 125 506.5 100.5 c 128,-1,27
 476 76 476 76 429 76 c 0,28,29
 394 76 394 76 363.5 89.5 c 128,-1,30
 333 103 333 103 310 130.5 c 128,-1,31
 287 158 287 158 273.5 199.5 c 128,-1,32
 260 241 260 241 260 296 c 256,33,34
 260 351 260 351 273.5 392.5 c 128,-1,35
 287 434 287 434 310 461 c 128,-1,36
 333 488 333 488 363.5 502 c 128,-1,37
 394 516 394 516 429 516 c 0,38,39
 476 516 476 516 502.5 493 c 128,-1,40
 529 470 529 470 541 437 c 1,41,-1
 546 437 l 1,42,-1
 546 507 l 1,43,-1
 635 507 l 1,44,-1
 635 210 l 2,45,46
 635 176 635 176 647.5 163 c 128,-1,47
 660 150 660 150 686 150 c 0,48,49
 729 150 729 150 752 194.5 c 128,-1,50
 775 239 775 239 775 322 c 2,51,-1
 775 361 l 2,52,53
 775 428 775 428 752 482 c 128,-1,54
 729 536 729 536 688 573 c 128,-1,55
 647 610 647 610 591 630.5 c 128,-1,56
 535 651 535 651 469 651 c 0,57,58
 396 651 396 651 336 626 c 128,-1,59
 276 601 276 601 233.5 557.5 c 128,-1,60
 191 514 191 514 167.5 454 c 128,-1,61
 144 394 144 394 144 324 c 2,62,-1
 144 272 l 2,63,64
 144 200 144 200 167 141.5 c 128,-1,65
 190 83 190 83 232 40.5 c 128,-1,66
 274 -2 274 -2 333 -25.5 c 128,-1,67
 392 -49 392 -49 465 -49 c 2,68,-1
 692 -49 l 1,69,-1
 692 -124 l 1,0,-1
456 155 m 0,70,71
 499 155 499 155 522.5 178.5 c 128,-1,72
 546 202 546 202 546 239 c 2,73,-1
 546 361 l 2,74,75
 546 394 546 394 522.5 416 c 128,-1,76
 499 438 499 438 456 438 c 0,77,78
 409 438 409 438 384 410 c 128,-1,79
 359 382 359 382 359 336 c 2,80,-1
 359 257 l 2,81,82
 359 211 359 211 384 183 c 128,-1,83
 409 155 409 155 456 155 c 0,70,71
EndSplineSet
Validated: 1
EndChar

StartChar: hyphen
Encoding: 45 45 73
Width: 410
GlyphClass: 1
Flags: W
LayerCount: 2
Fore
SplineSet
63 255 m 1,0,-1
 63 369 l 1,1,-1
 347 369 l 1,2,-1
 347 255 l 1,3,-1
 63 255 l 1,0,-1
EndSplineSet
Validated: 1
EndChar

StartChar: endash
Encoding: 8211 8211 75
Width: 602
GlyphClass: 1
Flags: W
LayerCount: 2
Fore
SplineSet
37 263 m 1,0,-1
 37 359 l 1,1,-1
 565 359 l 1,2,-1
 565 263 l 1,3,-1
 37 263 l 1,0,-1
EndSplineSet
Validated: 1
EndChar

StartChar: emdash
Encoding: 8212 8212 76
Width: 798
GlyphClass: 1
Flags: W
LayerCount: 2
Fore
SplineSet
37 263 m 1,0,-1
 37 359 l 1,1,-1
 762 359 l 1,2,-1
 762 263 l 1,3,-1
 37 263 l 1,0,-1
EndSplineSet
Validated: 1
EndChar

StartChar: underscore
Encoding: 95 95 77
Width: 574
GlyphClass: 1
Flags: W
LayerCount: 2
Fore
SplineSet
31 -180 m 1,0,-1
 31 -84 l 1,1,-1
 544 -84 l 1,2,-1
 544 -180 l 1,3,-1
 31 -180 l 1,0,-1
EndSplineSet
Validated: 1
EndChar

StartChar: period
Encoding: 46 46 78
Width: 296
GlyphClass: 1
Flags: W
LayerCount: 2
Fore
SplineSet
148 -12 m 256,0,1
 110 -12 110 -12 92 8 c 128,-1,2
 74 28 74 28 74 57 c 2,3,-1
 74 73 l 2,4,5
 74 103 74 103 92.5 122.5 c 128,-1,6
 111 142 111 142 148 142 c 256,7,8
 186 142 186 142 204.5 122 c 128,-1,9
 223 102 223 102 223 73 c 2,10,-1
 223 57 l 2,11,12
 223 27 223 27 204.5 7.5 c 128,-1,13
 186 -12 186 -12 148 -12 c 256,0,1
EndSplineSet
Validated: 1
EndChar

StartChar: comma
Encoding: 44 44 81
Width: 296
GlyphClass: 1
Flags: W
LayerCount: 2
Fore
SplineSet
148 142 m 256,0,1
 186 142 186 142 204.5 122.5 c 128,-1,2
 223 103 223 103 223 73 c 2,3,-1
 223 56 l 2,4,5
 223 6 223 6 196 -48.5 c 128,-1,6
 169 -103 169 -103 123 -141 c 1,7,-1
 40 -141 l 1,8,9
 73 -108 73 -108 94.5 -77.5 c 128,-1,10
 116 -47 116 -47 127 -9 c 1,11,12
 100 -4 100 -4 87 14 c 128,-1,13
 74 32 74 32 74 56 c 2,14,-1
 74 73 l 2,15,16
 74 104 74 104 92 123 c 128,-1,17
 110 142 110 142 148 142 c 256,0,1
EndSplineSet
Validated: 1
EndChar

StartChar: quotesingle
Encoding: 39 39 84
Width: 259
GlyphClass: 1
Flags: W
LayerCount: 2
Fore
SplineSet
80 451 m 1,0,-1
 80 758 l 1,1,-1
 179 758 l 1,2,-1
 179 451 l 1,3,-1
 80 451 l 1,0,-1
EndSplineSet
Validated: 1
EndChar

StartChar: quoteleft
Encoding: 8216 8216 86
Width: 290
GlyphClass: 1
Flags: W
LayerCount: 2
Fore
SplineSet
142 480 m 256,0,1
 104 480 104 480 86.5 498.5 c 128,-1,2
 69 517 69 517 69 546 c 2,3,-1
 69 563 l 2,4,5
 69 588 69 588 76.5 614.5 c 128,-1,6
 84 641 84 641 97.5 666.5 c 128,-1,7
 111 692 111 692 129 715.5 c 128,-1,8
 147 739 147 739 170 758 c 1,9,-1
 249 758 l 1,10,11
 217 726 217 726 196 696 c 128,-1,12
 175 666 175 666 165 629 c 1,13,14
 192 624 192 624 204 606 c 128,-1,15
 216 588 216 588 216 564 c 2,16,-1
 216 546 l 2,17,18
 216 517 216 517 198 498.5 c 128,-1,19
 180 480 180 480 142 480 c 256,0,1
EndSplineSet
Validated: 1
EndChar

StartChar: quoteright
Encoding: 8217 8217 87
Width: 290
GlyphClass: 1
Flags: W
LayerCount: 2
Fore
SplineSet
148 768 m 256,0,1
 187 768 187 768 204.5 749.5 c 128,-1,2
 222 731 222 731 222 701 c 2,3,-1
 222 684 l 2,4,5
 222 659 222 659 215 633 c 128,-1,6
 208 607 208 607 194.5 581.5 c 128,-1,7
 181 556 181 556 162.5 532.5 c 128,-1,8
 144 509 144 509 122 490 c 1,9,-1
 42 490 l 1,10,11
 75 522 75 522 95.5 553 c 128,-1,12
 116 584 116 584 127 620 c 1,13,14
 100 625 100 625 87.5 642 c 128,-1,15
 75 659 75 659 75 683 c 2,16,-1
 75 701 l 2,17,18
 75 731 75 731 92 749.5 c 128,-1,19
 109 768 109 768 148 768 c 256,0,1
EndSplineSet
Validated: 1
EndChar

StartChar: quotesinglbase
Encoding: 8218 8218 90
Width: 292
GlyphClass: 1
Flags: W
LayerCount: 2
Fore
SplineSet
143 159 m 256,0,1
 182 159 182 159 199.5 140.5 c 128,-1,2
 217 122 217 122 217 92 c 2,3,-1
 217 75 l 2,4,5
 217 50 217 50 210 24 c 128,-1,6
 203 -2 203 -2 189.5 -27.5 c 128,-1,7
 176 -53 176 -53 157.5 -76.5 c 128,-1,8
 139 -100 139 -100 117 -119 c 1,9,-1
 37 -119 l 1,10,11
 70 -87 70 -87 90.5 -56.5 c 128,-1,12
 111 -26 111 -26 122 10 c 1,13,14
 95 15 95 15 82.5 32.5 c 128,-1,15
 70 50 70 50 70 74 c 2,16,-1
 70 92 l 2,17,18
 70 122 70 122 87 140.5 c 128,-1,19
 104 159 104 159 143 159 c 256,0,1
EndSplineSet
Validated: 1
EndChar

StartChar: guilsinglleft
Encoding: 8249 8249 92
Width: 316
GlyphClass: 1
Flags: W
LayerCount: 2
Fore
SplineSet
231 69 m 1,0,-1
 38 236 l 1,1,-1
 38 336 l 1,2,-1
 231 503 l 1,3,-1
 264 431 l 1,4,-1
 132 286 l 1,5,-1
 264 140 l 1,6,-1
 231 69 l 1,0,-1
EndSplineSet
Validated: 1
EndChar

StartChar: guilsinglright
Encoding: 8250 8250 93
Width: 316
GlyphClass: 1
Flags: W
LayerCount: 2
Fore
SplineSet
52 140 m 1,0,-1
 184 286 l 1,1,-1
 52 431 l 1,2,-1
 85 503 l 1,3,-1
 279 336 l 1,4,-1
 279 236 l 1,5,-1
 85 69 l 1,6,-1
 52 140 l 1,0,-1
EndSplineSet
Validated: 1
EndChar

StartChar: exclamdown
Encoding: 161 161 96
Width: 305
GlyphClass: 1
Flags: W
LayerCount: 2
Fore
SplineSet
93 -182 m 1,0,-1
 93 22 l 1,1,-1
 127 328 l 1,2,-1
 178 328 l 1,3,-1
 214 22 l 1,4,-1
 214 -182 l 1,5,-1
 93 -182 l 1,0,-1
153 392 m 256,6,7
 114 392 114 392 96 411 c 128,-1,8
 78 430 78 430 78 460 c 2,9,-1
 78 477 l 2,10,11
 78 507 78 507 96 526 c 128,-1,12
 114 545 114 545 153 545 c 256,13,14
 192 545 192 545 209.5 526 c 128,-1,15
 227 507 227 507 227 477 c 2,16,-1
 227 460 l 2,17,18
 227 430 227 430 209.5 411 c 128,-1,19
 192 392 192 392 153 392 c 256,6,7
EndSplineSet
Validated: 1
EndChar

StartChar: exclam
Encoding: 33 33 97
Width: 305
GlyphClass: 1
Flags: W
LayerCount: 2
Fore
SplineSet
127 205 m 1,0,-1
 91 511 l 1,1,-1
 91 715 l 1,2,-1
 212 715 l 1,3,-1
 212 511 l 1,4,-1
 178 205 l 1,5,-1
 127 205 l 1,0,-1
153 -12 m 256,6,7
 114 -12 114 -12 96 7 c 128,-1,8
 78 26 78 26 78 55 c 2,9,-1
 78 73 l 2,10,11
 78 103 78 103 96 121.5 c 128,-1,12
 114 140 114 140 153 140 c 256,13,14
 192 140 192 140 209.5 121 c 128,-1,15
 227 102 227 102 227 73 c 2,16,-1
 227 55 l 2,17,18
 227 25 227 25 209.5 6.5 c 128,-1,19
 192 -12 192 -12 153 -12 c 256,6,7
EndSplineSet
Validated: 1
EndChar

StartChar: questiondown
Encoding: 191 191 98
Width: 490
GlyphClass: 1
Flags: W
LayerCount: 2
Fore
SplineSet
254 -195 m 0,0,1
 204 -195 204 -195 163 -180.5 c 128,-1,2
 122 -166 122 -166 93.5 -140 c 128,-1,3
 65 -114 65 -114 49.5 -76.5 c 128,-1,4
 34 -39 34 -39 34 6 c 0,5,6
 34 52 34 52 50 88.5 c 128,-1,7
 66 125 66 125 92 150.5 c 128,-1,8
 118 176 118 176 150.5 192 c 128,-1,9
 183 208 183 208 218 214 c 1,10,-1
 218 308 l 1,11,-1
 325 308 l 1,12,-1
 325 145 l 1,13,14
 242 141 242 141 197.5 110 c 128,-1,15
 153 79 153 79 153 17 c 2,16,-1
 153 3 l 2,17,18
 153 -44 153 -44 181.5 -70 c 128,-1,19
 210 -96 210 -96 258 -96 c 0,20,21
 309 -96 309 -96 340 -66.5 c 128,-1,22
 371 -37 371 -37 382 9 c 1,23,-1
 479 -30 l 1,24,25
 470 -62 470 -62 452 -91.5 c 128,-1,26
 434 -121 434 -121 406.5 -144 c 128,-1,27
 379 -167 379 -167 341 -181 c 128,-1,28
 303 -195 303 -195 254 -195 c 0,0,1
270 392 m 256,29,30
 231 392 231 392 213.5 411 c 128,-1,31
 196 430 196 430 196 460 c 2,32,-1
 196 477 l 2,33,34
 196 507 196 507 213.5 526 c 128,-1,35
 231 545 231 545 270 545 c 256,36,37
 309 545 309 545 327 526 c 128,-1,38
 345 507 345 507 345 477 c 2,39,-1
 345 460 l 2,40,41
 345 430 345 430 327 411 c 128,-1,42
 309 392 309 392 270 392 c 256,29,30
EndSplineSet
Validated: 1
EndChar

StartChar: question
Encoding: 63 63 99
Width: 498
GlyphClass: 1
Flags: W
LayerCount: 2
Fore
SplineSet
174 224 m 1,0,-1
 174 387 l 1,1,2
 257 391 257 391 301.5 422.5 c 128,-1,3
 346 454 346 454 346 515 c 2,4,-1
 346 529 l 2,5,6
 346 576 346 576 317.5 602.5 c 128,-1,7
 289 629 289 629 241 629 c 0,8,9
 190 629 190 629 159 599 c 128,-1,10
 128 569 128 569 117 523 c 1,11,-1
 19 562 l 1,12,13
 28 594 28 594 46.5 623.5 c 128,-1,14
 65 653 65 653 92.5 676 c 128,-1,15
 120 699 120 699 158 713 c 128,-1,16
 196 727 196 727 245 727 c 0,17,18
 295 727 295 727 336 712.5 c 128,-1,19
 377 698 377 698 405.5 672 c 128,-1,20
 434 646 434 646 449.5 608.5 c 128,-1,21
 465 571 465 571 465 526 c 0,22,23
 465 480 465 480 449 444 c 128,-1,24
 433 408 433 408 407 382 c 128,-1,25
 381 356 381 356 348 340.5 c 128,-1,26
 315 325 315 325 281 318 c 1,27,-1
 281 224 l 1,28,-1
 174 224 l 1,0,-1
228 -12 m 256,29,30
 189 -12 189 -12 171.5 7 c 128,-1,31
 154 26 154 26 154 55 c 2,32,-1
 154 73 l 2,33,34
 154 103 154 103 171.5 121.5 c 128,-1,35
 189 140 189 140 228 140 c 256,36,37
 267 140 267 140 285 121 c 128,-1,38
 303 102 303 102 303 73 c 2,39,-1
 303 55 l 2,40,41
 303 25 303 25 285 6.5 c 128,-1,42
 267 -12 267 -12 228 -12 c 256,29,30
EndSplineSet
Validated: 1
EndChar

StartChar: parenleft
Encoding: 40 40 100
Width: 344
GlyphClass: 1
Flags: W
LayerCount: 2
Fore
SplineSet
65 318 m 256,0,1
 65 393 65 393 78.5 461.5 c 128,-1,2
 92 530 92 530 116.5 589.5 c 128,-1,3
 141 649 141 649 174.5 697 c 128,-1,4
 208 745 208 745 247 778 c 1,5,-1
 352 778 l 1,6,7
 310 739 310 739 276.5 691 c 128,-1,8
 243 643 243 643 219.5 589 c 128,-1,9
 196 535 196 535 183 476.5 c 128,-1,10
 170 418 170 418 170 359 c 2,11,-1
 170 278 l 2,12,13
 170 220 170 220 183 161 c 128,-1,14
 196 102 196 102 219.5 48 c 128,-1,15
 243 -6 243 -6 276.5 -54.5 c 128,-1,16
 310 -103 310 -103 352 -141 c 1,17,-1
 247 -141 l 1,18,19
 208 -108 208 -108 174.5 -60 c 128,-1,20
 141 -12 141 -12 116.5 47 c 128,-1,21
 92 106 92 106 78.5 174.5 c 128,-1,22
 65 243 65 243 65 318 c 256,0,1
EndSplineSet
Validated: 1
EndChar

StartChar: parenright
Encoding: 41 41 101
Width: 344
GlyphClass: 1
Flags: W
LayerCount: 2
Fore
SplineSet
280 318 m 256,0,1
 280 243 280 243 266 174.5 c 128,-1,2
 252 106 252 106 227.5 47 c 128,-1,3
 203 -12 203 -12 169.5 -60.5 c 128,-1,4
 136 -109 136 -109 97 -141 c 1,5,-1
 -8 -141 l 1,6,7
 34 -103 34 -103 67.5 -54.5 c 128,-1,8
 101 -6 101 -6 124.5 48 c 128,-1,9
 148 102 148 102 161 160.5 c 128,-1,10
 174 219 174 219 174 278 c 2,11,-1
 174 359 l 2,12,13
 174 417 174 417 161 476 c 128,-1,14
 148 535 148 535 124.5 589 c 128,-1,15
 101 643 101 643 67.5 691 c 128,-1,16
 34 739 34 739 -8 778 c 1,17,-1
 97 778 l 1,18,19
 136 745 136 745 169.5 697 c 128,-1,20
 203 649 203 649 227.5 589.5 c 128,-1,21
 252 530 252 530 266 461.5 c 128,-1,22
 280 393 280 393 280 318 c 256,0,1
EndSplineSet
Validated: 1
EndChar

StartChar: bracketleft
Encoding: 91 91 102
Width: 332
GlyphClass: 1
Flags: W
LayerCount: 2
Fore
SplineSet
88 -141 m 1,0,-1
 88 778 l 1,1,-1
 275 778 l 1,2,-1
 275 695 l 1,3,-1
 188 695 l 1,4,-1
 188 -58 l 1,5,-1
 275 -58 l 1,6,-1
 275 -141 l 1,7,-1
 88 -141 l 1,0,-1
EndSplineSet
Validated: 1
EndChar

StartChar: bracketright
Encoding: 93 93 103
Width: 332
GlyphClass: 1
Flags: W
LayerCount: 2
Fore
SplineSet
245 778 m 1,0,-1
 245 -141 l 1,1,-1
 57 -141 l 1,2,-1
 57 -58 l 1,3,-1
 144 -58 l 1,4,-1
 144 695 l 1,5,-1
 57 695 l 1,6,-1
 57 778 l 1,7,-1
 245 778 l 1,0,-1
EndSplineSet
Validated: 1
EndChar

StartChar: braceleft
Encoding: 123 123 104
Width: 362
GlyphClass: 1
Flags: W
LayerCount: 2
Fore
SplineSet
209 -141 m 2,0,1
 168 -141 168 -141 144 -116 c 128,-1,2
 120 -91 120 -91 120 -49 c 2,3,-1
 120 180 l 2,4,5
 120 225 120 225 91.5 248 c 128,-1,6
 63 271 63 271 20 271 c 1,7,-1
 20 367 l 1,8,9
 63 367 63 367 91.5 390 c 128,-1,10
 120 413 120 413 120 457 c 2,11,-1
 120 686 l 2,12,13
 120 728 120 728 144 753 c 128,-1,14
 168 778 168 778 209 778 c 2,15,-1
 305 778 l 1,16,-1
 305 695 l 1,17,-1
 220 695 l 1,18,-1
 220 455 l 2,19,20
 220 430 220 430 212.5 408.5 c 128,-1,21
 205 387 205 387 191 369 c 128,-1,22
 177 351 177 351 158.5 339.5 c 128,-1,23
 140 328 140 328 119 324 c 1,24,-1
 119 313 l 1,25,26
 141 309 141 309 159 297.5 c 128,-1,27
 177 286 177 286 191 268 c 128,-1,28
 205 250 205 250 212.5 228.5 c 128,-1,29
 220 207 220 207 220 182 c 2,30,-1
 220 -58 l 1,31,-1
 305 -58 l 1,32,-1
 305 -141 l 1,33,-1
 209 -141 l 2,0,1
EndSplineSet
Validated: 1
EndChar

StartChar: braceright
Encoding: 125 125 105
Width: 364
GlyphClass: 1
Flags: W
LayerCount: 2
Fore
SplineSet
154 778 m 2,0,1
 195 778 195 778 220 753 c 128,-1,2
 245 728 245 728 245 686 c 2,3,-1
 245 457 l 2,4,5
 245 413 245 413 273 390 c 128,-1,6
 301 367 301 367 344 367 c 1,7,-1
 344 271 l 1,8,9
 301 271 301 271 273 248 c 128,-1,10
 245 225 245 225 245 180 c 2,11,-1
 245 -49 l 2,12,13
 245 -91 245 -91 220 -116 c 128,-1,14
 195 -141 195 -141 154 -141 c 2,15,-1
 57 -141 l 1,16,-1
 57 -58 l 1,17,-1
 144 -58 l 1,18,-1
 144 182 l 2,19,20
 144 207 144 207 152 228.5 c 128,-1,21
 160 250 160 250 173 268 c 128,-1,22
 186 286 186 286 204.5 297.5 c 128,-1,23
 223 309 223 309 246 313 c 1,24,-1
 246 324 l 1,25,26
 223 328 223 328 204.5 339.5 c 128,-1,27
 186 351 186 351 173 369 c 128,-1,28
 160 387 160 387 152 408.5 c 128,-1,29
 144 430 144 430 144 455 c 2,30,-1
 144 695 l 1,31,-1
 57 695 l 1,32,-1
 57 778 l 1,33,-1
 154 778 l 2,0,1
EndSplineSet
Validated: 1
EndChar

StartChar: slash
Encoding: 47 47 106
Width: 427
GlyphClass: 1
Flags: W
LayerCount: 2
Fore
SplineSet
7 -155 m 1,0,-1
 291 758 l 1,1,-1
 387 758 l 1,2,-1
 103 -155 l 1,3,-1
 7 -155 l 1,0,-1
EndSplineSet
Validated: 1
Substitution2: "'frac' Diagonal Fractions lookup 5 subtable" fraction
EndChar

StartChar: backslash
Encoding: 92 92 107
Width: 427
GlyphClass: 1
Flags: W
LayerCount: 2
Fore
SplineSet
324 -155 m 1,0,-1
 40 758 l 1,1,-1
 136 758 l 1,2,-1
 420 -155 l 1,3,-1
 324 -155 l 1,0,-1
EndSplineSet
Validated: 1
EndChar

StartChar: fraction
Encoding: 8260 8260 108
Width: 154
GlyphClass: 1
Flags: W
LayerCount: 2
Fore
SplineSet
-226 0 m 1,0,-1
 291 715 l 1,1,-1
 381 715 l 1,2,-1
 -135 0 l 1,3,-1
 -226 0 l 1,0,-1
EndSplineSet
Validated: 1
EndChar

StartChar: percent
Encoding: 37 37 110
Width: 969
GlyphClass: 1
Flags: W
LayerCount: 2
Fore
SplineSet
185 0 m 1,0,-1
 681 715 l 1,1,-1
 784 715 l 1,2,-1
 289 0 l 1,3,-1
 185 0 l 1,0,-1
231 322 m 256,4,5
 148 322 148 322 104 373.5 c 128,-1,6
 60 425 60 425 60 524 c 256,7,8
 60 623 60 623 104 675 c 128,-1,9
 148 727 148 727 231 727 c 256,10,11
 314 727 314 727 358 675.5 c 128,-1,12
 402 624 402 624 402 524 c 256,13,14
 402 425 402 425 358 373.5 c 128,-1,15
 314 322 314 322 231 322 c 256,4,5
231 390 m 256,16,17
 304 390 304 390 304 496 c 2,18,-1
 304 553 l 2,19,20
 304 658 304 658 231 658 c 256,21,22
 158 658 158 658 159 553 c 2,23,-1
 159 496 l 2,24,25
 158 390 158 390 231 390 c 256,16,17
738 -12 m 256,26,27
 655 -12 655 -12 611 39.5 c 128,-1,28
 567 91 567 91 567 190 c 256,29,30
 567 289 567 289 611 341 c 128,-1,31
 655 393 655 393 738 393 c 256,32,33
 821 393 821 393 865 341.5 c 128,-1,34
 909 290 909 290 909 190 c 256,35,36
 909 91 909 91 865 39.5 c 128,-1,37
 821 -12 821 -12 738 -12 c 256,26,27
738 56 m 256,38,39
 811 56 811 56 811 162 c 2,40,-1
 811 219 l 2,41,42
 811 324 811 324 738 325 c 256,43,44
 665 325 665 325 666 219 c 2,45,-1
 666 162 l 2,46,47
 665 56 665 56 738 56 c 256,38,39
EndSplineSet
Validated: 33
EndChar

StartChar: perthousand
Encoding: 8240 8240 111
Width: 1371
GlyphClass: 1
Flags: W
LayerCount: 2
Fore
SplineSet
185 0 m 1,0,-1
 681 715 l 1,1,-1
 784 715 l 1,2,-1
 289 0 l 1,3,-1
 185 0 l 1,0,-1
231 322 m 256,4,5
 148 322 148 322 104 373.5 c 128,-1,6
 60 425 60 425 60 524 c 256,7,8
 60 623 60 623 104 675 c 128,-1,9
 148 727 148 727 231 727 c 256,10,11
 314 727 314 727 358 675.5 c 128,-1,12
 402 624 402 624 402 524 c 256,13,14
 402 425 402 425 358 373.5 c 128,-1,15
 314 322 314 322 231 322 c 256,4,5
231 390 m 256,16,17
 304 390 304 390 304 496 c 2,18,-1
 304 553 l 2,19,20
 304 658 304 658 231 658 c 256,21,22
 158 658 158 658 159 553 c 2,23,-1
 159 496 l 2,24,25
 158 390 158 390 231 390 c 256,16,17
738 -12 m 256,26,27
 655 -12 655 -12 611 39.5 c 128,-1,28
 567 91 567 91 567 190 c 256,29,30
 567 289 567 289 611 341 c 128,-1,31
 655 393 655 393 738 393 c 256,32,33
 821 393 821 393 865 341.5 c 128,-1,34
 909 290 909 290 909 190 c 256,35,36
 909 91 909 91 865 39.5 c 128,-1,37
 821 -12 821 -12 738 -12 c 256,26,27
738 56 m 256,38,39
 811 56 811 56 811 162 c 2,40,-1
 811 219 l 2,41,42
 811 324 811 324 738 325 c 256,43,44
 665 325 665 325 666 219 c 2,45,-1
 666 162 l 2,46,47
 665 56 665 56 738 56 c 256,38,39
1140 -12 m 256,48,49
 1057 -12 1057 -12 1013 39.5 c 128,-1,50
 969 91 969 91 969 190 c 256,51,52
 969 289 969 289 1013 341 c 128,-1,53
 1057 393 1057 393 1140 393 c 256,54,55
 1223 393 1223 393 1267 341.5 c 128,-1,56
 1311 290 1311 290 1311 190 c 256,57,58
 1311 91 1311 91 1267 39.5 c 128,-1,59
 1223 -12 1223 -12 1140 -12 c 256,48,49
1140 56 m 256,60,61
 1213 56 1213 56 1212 162 c 2,62,-1
 1212 219 l 2,63,64
 1212 324 1212 324 1140 325 c 256,65,66
 1067 325 1067 325 1067 219 c 2,67,-1
 1067 162 l 2,68,69
 1067 56 1067 56 1140 56 c 256,60,61
EndSplineSet
Validated: 33
EndChar

StartChar: bar
Encoding: 124 124 112
Width: 361
GlyphClass: 1
Flags: W
LayerCount: 2
Fore
SplineSet
133 -141 m 1,0,-1
 133 778 l 1,1,-1
 228 778 l 1,2,-1
 228 -141 l 1,3,-1
 133 -141 l 1,0,-1
EndSplineSet
Validated: 1
EndChar

StartChar: brokenbar
Encoding: 166 166 113
Width: 361
GlyphClass: 1
Flags: W
LayerCount: 2
Fore
SplineSet
133 414 m 1,0,-1
 133 778 l 1,1,-1
 228 778 l 1,2,-1
 228 414 l 1,3,-1
 133 414 l 1,0,-1
133 -141 m 1,4,-1
 133 223 l 1,5,-1
 228 223 l 1,6,-1
 228 -141 l 1,7,-1
 133 -141 l 1,4,-1
EndSplineSet
Validated: 1
EndChar

StartChar: section
Encoding: 167 167 114
Width: 590
GlyphClass: 1
Flags: W
LayerCount: 2
Fore
SplineSet
492 8 m 0,0,1
 492 -32 492 -32 476.5 -63 c 128,-1,2
 461 -94 461 -94 432.5 -116 c 128,-1,3
 404 -138 404 -138 365.5 -150 c 128,-1,4
 327 -162 327 -162 280 -162 c 0,5,6
 231 -162 231 -162 182.5 -147 c 128,-1,7
 134 -132 134 -132 95 -97 c 1,8,-1
 154 -26 l 1,9,10
 180 -50 180 -50 211.5 -62.5 c 128,-1,11
 243 -75 243 -75 282 -75 c 0,12,13
 332 -75 332 -75 361 -54 c 128,-1,14
 390 -33 390 -33 390 4 c 0,15,16
 390 39 390 39 365 58.5 c 128,-1,17
 340 78 340 78 292 92 c 2,18,-1
 221 113 l 2,19,20
 136 137 136 137 101 178 c 128,-1,21
 66 219 66 219 66 267 c 0,22,23
 66 314 66 314 93.5 351 c 128,-1,24
 121 388 121 388 176 412 c 1,25,-1
 176 423 l 1,26,27
 141 447 141 447 120 480.5 c 128,-1,28
 99 514 99 514 99 560 c 0,29,30
 99 599 99 599 114.5 630.5 c 128,-1,31
 130 662 130 662 157.5 683.5 c 128,-1,32
 185 705 185 705 223.5 716 c 128,-1,33
 262 727 262 727 309 727 c 0,34,35
 359 727 359 727 407.5 712.5 c 128,-1,36
 456 698 456 698 496 663 c 1,37,-1
 436 592 l 1,38,39
 410 615 410 615 379 628 c 128,-1,40
 348 641 348 641 307 641 c 0,41,42
 258 641 258 641 228.5 621 c 128,-1,43
 199 601 199 601 199 563 c 0,44,45
 199 529 199 529 224 509.5 c 128,-1,46
 249 490 249 490 298 476 c 2,47,-1
 369 457 l 2,48,49
 454 432 454 432 489.5 391 c 128,-1,50
 525 350 525 350 525 301 c 0,51,52
 525 254 525 254 497 216.5 c 128,-1,53
 469 179 469 179 414 157 c 1,54,-1
 414 146 l 1,55,56
 450 122 450 122 471 88 c 128,-1,57
 492 54 492 54 492 8 c 0,0,1
425 269 m 0,58,59
 425 305 425 305 401.5 330 c 128,-1,60
 378 355 378 355 322 371 c 2,61,-1
 252 390 l 2,62,63
 244 392 244 392 235.5 394.5 c 128,-1,64
 227 397 227 397 219 400 c 1,65,66
 193 380 193 380 179 355 c 128,-1,67
 165 330 165 330 165 299 c 0,68,69
 165 263 165 263 188.5 238.5 c 128,-1,70
 212 214 212 214 268 198 c 2,71,-1
 338 179 l 2,72,73
 353 175 353 175 371 168 c 1,74,75
 397 188 397 188 411 213 c 128,-1,76
 425 238 425 238 425 269 c 0,58,59
EndSplineSet
Validated: 1
EndChar

StartChar: paragraph
Encoding: 182 182 115
Width: 678
GlyphClass: 1
Flags: W
LayerCount: 2
Fore
SplineSet
250 289 m 1,0,1
 207 289 207 289 169.5 306 c 128,-1,2
 132 323 132 323 104 352 c 128,-1,3
 76 381 76 381 60 419.5 c 128,-1,4
 44 458 44 458 44 502 c 256,5,6
 44 546 44 546 60 584.5 c 128,-1,7
 76 623 76 623 104 652 c 128,-1,8
 132 681 132 681 169.5 698 c 128,-1,9
 207 715 207 715 250 715 c 2,10,-1
 607 715 l 1,11,-1
 607 629 l 1,12,-1
 540 629 l 1,13,-1
 540 -153 l 1,14,-1
 449 -153 l 1,15,-1
 449 629 l 1,16,-1
 341 629 l 1,17,-1
 341 -153 l 1,18,-1
 250 -153 l 1,19,-1
 250 289 l 1,0,1
EndSplineSet
Validated: 1
EndChar

StartChar: copyright
Encoding: 169 169 116
Width: 800
GlyphClass: 1
Flags: W
LayerCount: 2
Fore
SplineSet
400 -11 m 256,0,1
 326 -11 326 -11 262.5 14.5 c 128,-1,2
 199 40 199 40 152 87.5 c 128,-1,3
 105 135 105 135 78.5 203.5 c 128,-1,4
 52 272 52 272 52 357 c 256,5,6
 52 442 52 442 78.5 511 c 128,-1,7
 105 580 105 580 152 627.5 c 128,-1,8
 199 675 199 675 263 700.5 c 128,-1,9
 327 726 327 726 400 726 c 256,10,11
 474 726 474 726 538 700.5 c 128,-1,12
 602 675 602 675 648.5 627.5 c 128,-1,13
 695 580 695 580 722 511 c 128,-1,14
 749 442 749 442 749 357 c 256,15,16
 749 272 749 272 722 203.5 c 128,-1,17
 695 135 695 135 648.5 87.5 c 128,-1,18
 602 40 602 40 538 14.5 c 128,-1,19
 474 -11 474 -11 400 -11 c 256,0,1
400 51 m 256,20,21
 460 51 460 51 511 72 c 128,-1,22
 562 93 562 93 598.5 129.5 c 128,-1,23
 635 166 635 166 655.5 216 c 128,-1,24
 676 266 676 266 676 325 c 2,25,-1
 676 390 l 2,26,27
 676 448 676 448 655.5 498.5 c 128,-1,28
 635 549 635 549 598.5 585.5 c 128,-1,29
 562 622 562 622 511.5 643 c 128,-1,30
 461 664 461 664 400 664 c 256,31,32
 340 664 340 664 289.5 643 c 128,-1,33
 239 622 239 622 202.5 585.5 c 128,-1,34
 166 549 166 549 145.5 499 c 128,-1,35
 125 449 125 449 125 390 c 2,36,-1
 125 325 l 2,37,38
 125 267 125 267 145.5 216.5 c 128,-1,39
 166 166 166 166 202.5 129.5 c 128,-1,40
 239 93 239 93 289.5 72 c 128,-1,41
 340 51 340 51 400 51 c 256,20,21
409 150 m 0,42,43
 320 150 320 150 270.5 206 c 128,-1,44
 221 262 221 262 221 357 c 256,45,46
 221 452 221 452 270 508.5 c 128,-1,47
 319 565 319 565 409 565 c 0,48,49
 470 565 470 565 508 537.5 c 128,-1,50
 546 510 546 510 565 465 c 1,51,-1
 488 425 l 1,52,53
 477 452 477 452 458.5 467.5 c 128,-1,54
 440 483 440 483 409 483 c 0,55,56
 369 483 369 483 347.5 458 c 128,-1,57
 326 433 326 433 326 393 c 2,58,-1
 326 321 l 2,59,60
 326 281 326 281 347.5 255.5 c 128,-1,61
 369 230 369 230 409 230 c 0,62,63
 442 230 442 230 462 247 c 128,-1,64
 482 264 482 264 497 291 c 1,65,-1
 572 251 l 1,66,67
 553 208 553 208 514 179 c 128,-1,68
 475 150 475 150 409 150 c 0,42,43
EndSplineSet
Validated: 1
EndChar

StartChar: registered
Encoding: 174 174 117
Width: 483
GlyphClass: 1
Flags: W
LayerCount: 2
Fore
SplineSet
242 305 m 256,0,1
 199 305 199 305 161.5 321 c 128,-1,2
 124 337 124 337 96.5 365.5 c 128,-1,3
 69 394 69 394 53 432.5 c 128,-1,4
 37 471 37 471 37 516 c 256,5,6
 37 561 37 561 53 599.5 c 128,-1,7
 69 638 69 638 96.5 666.5 c 128,-1,8
 124 695 124 695 161.5 711 c 128,-1,9
 199 727 199 727 242 727 c 256,10,11
 285 727 285 727 322 711 c 128,-1,12
 359 695 359 695 387 666.5 c 128,-1,13
 415 638 415 638 430.5 599.5 c 128,-1,14
 446 561 446 561 446 516 c 256,15,16
 446 471 446 471 430.5 432.5 c 128,-1,17
 415 394 415 394 387 365.5 c 128,-1,18
 359 337 359 337 322 321 c 128,-1,19
 285 305 285 305 242 305 c 256,0,1
242 349 m 256,20,21
 276 349 276 349 304.5 361 c 128,-1,22
 333 373 333 373 354 394 c 128,-1,23
 375 415 375 415 386.5 442.5 c 128,-1,24
 398 470 398 470 398 503 c 2,25,-1
 398 529 l 2,26,27
 398 561 398 561 386.5 589 c 128,-1,28
 375 617 375 617 354 638 c 128,-1,29
 333 659 333 659 304 671 c 128,-1,30
 275 683 275 683 242 683 c 256,31,32
 208 683 208 683 179.5 671 c 128,-1,33
 151 659 151 659 130 638 c 128,-1,34
 109 617 109 617 97 589 c 128,-1,35
 85 561 85 561 85 529 c 2,36,-1
 85 503 l 2,37,38
 85 470 85 470 97 442.5 c 128,-1,39
 109 415 109 415 130 394 c 128,-1,40
 151 373 151 373 179.5 361 c 128,-1,41
 208 349 208 349 242 349 c 256,20,21
211 408 m 1,42,-1
 159 408 l 1,43,-1
 159 622 l 1,44,-1
 256 622 l 2,45,46
 292 622 292 622 310.5 603 c 128,-1,47
 329 584 329 584 329 554 c 0,48,49
 329 528 329 528 318 512.5 c 128,-1,50
 307 497 307 497 290 489 c 1,51,-1
 338 408 l 1,52,-1
 281 408 l 1,53,-1
 241 481 l 1,54,-1
 211 481 l 1,55,-1
 211 408 l 1,42,-1
250 520 m 2,56,57
 276 520 276 520 275 543 c 2,58,-1
 275 558 l 2,59,60
 275 581 275 581 250 581 c 2,61,-1
 211 581 l 1,62,-1
 211 520 l 1,63,-1
 250 520 l 2,56,57
EndSplineSet
Validated: 33
EndChar

StartChar: trademark
Encoding: 8482 8482 118
Width: 644
GlyphClass: 1
Flags: W
LayerCount: 2
Fore
SplineSet
112 425 m 1,0,-1
 112 662 l 1,1,-1
 30 662 l 1,2,-1
 30 715 l 1,3,-1
 259 715 l 1,4,-1
 259 662 l 1,5,-1
 178 662 l 1,6,-1
 178 425 l 1,7,-1
 112 425 l 1,0,-1
293 425 m 1,8,-1
 293 715 l 1,9,-1
 369 715 l 1,10,-1
 433 590 l 1,11,-1
 438 590 l 1,12,-1
 502 715 l 1,13,-1
 573 715 l 1,14,-1
 573 425 l 1,15,-1
 514 425 l 1,16,-1
 514 540 l 1,17,-1
 519 630 l 1,18,-1
 515 630 l 1,19,-1
 433 475 l 1,20,-1
 351 630 l 1,21,-1
 347 630 l 1,22,-1
 352 540 l 1,23,-1
 352 425 l 1,24,-1
 293 425 l 1,8,-1
EndSplineSet
Validated: 1
EndChar

StartChar: ordfeminine
Encoding: 170 170 119
Width: 430
GlyphClass: 1
Flags: W
LayerCount: 2
Fore
SplineSet
388 350 m 1,0,-1
 342 350 l 2,1,2
 314 350 314 350 294.5 364 c 128,-1,3
 275 378 275 378 273 410 c 1,4,-1
 269 410 l 1,5,6
 258 381 258 381 230.5 362.5 c 128,-1,7
 203 344 203 344 158 344 c 0,8,9
 105 344 105 344 74.5 372 c 128,-1,10
 44 400 44 400 44 450 c 0,11,12
 44 506 44 506 84 532.5 c 128,-1,13
 124 559 124 559 201 559 c 2,14,-1
 267 559 l 1,15,-1
 267 583 l 2,16,17
 267 658 267 658 196 657 c 0,18,19
 162 657 162 657 139.5 643 c 128,-1,20
 117 629 117 629 104 607 c 1,21,-1
 55 649 l 1,22,23
 71 678 71 678 107.5 699.5 c 128,-1,24
 144 721 144 721 203 721 c 0,25,26
 271 721 271 721 310 686.5 c 128,-1,27
 349 652 349 652 349 587 c 2,28,-1
 349 417 l 1,29,-1
 388 417 l 1,30,-1
 388 350 l 1,0,-1
201 508 m 2,31,32
 125 508 125 508 125 462 c 2,33,-1
 125 450 l 2,34,35
 125 426 125 426 140.5 415 c 128,-1,36
 156 404 156 404 183 404 c 0,37,38
 217 404 217 404 242 419.5 c 128,-1,39
 267 435 267 435 267 465 c 2,40,-1
 267 508 l 1,41,-1
 201 508 l 2,31,32
EndSplineSet
Validated: 33
EndChar

StartChar: ordmasculine
Encoding: 186 186 120
Width: 423
GlyphClass: 1
Flags: W
LayerCount: 2
Fore
SplineSet
212 344 m 256,0,1
 132 344 132 344 87.5 394 c 128,-1,2
 43 444 43 444 43 532 c 256,3,4
 43 620 43 620 87.5 670.5 c 128,-1,5
 132 721 132 721 212 721 c 256,6,7
 292 721 292 721 336.5 671 c 128,-1,8
 381 621 381 621 381 532 c 256,9,10
 381 444 381 444 336.5 394 c 128,-1,11
 292 344 292 344 212 344 c 256,0,1
212 409 m 256,12,13
 252 409 252 409 273.5 432.5 c 128,-1,14
 295 456 295 456 295 500 c 2,15,-1
 295 565 l 2,16,17
 295 609 295 609 273.5 632.5 c 128,-1,18
 252 656 252 656 212 656 c 256,19,20
 172 656 172 656 150.5 632.5 c 128,-1,21
 129 609 129 609 129 565 c 2,22,-1
 129 500 l 2,23,24
 129 456 129 456 150.5 432.5 c 128,-1,25
 172 409 172 409 212 409 c 256,12,13
EndSplineSet
Validated: 1
EndChar

StartChar: degree
Encoding: 176 176 121
Width: 481
GlyphClass: 1
Flags: W
LayerCount: 2
Fore
SplineSet
241 360 m 0,0,1
 202 360 202 360 169 374 c 128,-1,2
 136 388 136 388 112 412.5 c 128,-1,3
 88 437 88 437 74 471 c 128,-1,4
 60 505 60 505 60 544 c 256,5,6
 60 583 60 583 74 616.5 c 128,-1,7
 88 650 88 650 112 674.5 c 128,-1,8
 136 699 136 699 169 713 c 128,-1,9
 202 727 202 727 241 727 c 0,10,11
 279 727 279 727 312 713 c 128,-1,12
 345 699 345 699 369 674.5 c 128,-1,13
 393 650 393 650 407 616.5 c 128,-1,14
 421 583 421 583 421 544 c 256,15,16
 421 505 421 505 407 471 c 128,-1,17
 393 437 393 437 369 412.5 c 128,-1,18
 345 388 345 388 312 374 c 128,-1,19
 279 360 279 360 241 360 c 0,0,1
241 440 m 256,20,21
 285 440 285 440 310 470 c 128,-1,22
 335 500 335 500 335 544 c 256,23,24
 335 588 335 588 310 617.5 c 128,-1,25
 285 647 285 647 241 647 c 256,26,27
 197 647 197 647 171.5 617.5 c 128,-1,28
 146 588 146 588 146 544 c 256,29,30
 146 500 146 500 171.5 470 c 128,-1,31
 197 440 197 440 241 440 c 256,20,21
EndSplineSet
Validated: 1
EndChar

StartChar: uni2032
Encoding: 8242 8242 122
Width: 259
GlyphClass: 1
Flags: W
LayerCount: 2
Fore
SplineSet
48 373 m 1,0,-1
 109 715 l 1,1,-1
 211 715 l 1,2,-1
 151 373 l 1,3,-1
 48 373 l 1,0,-1
EndSplineSet
Validated: 1
EndChar

StartChar: asterisk
Encoding: 42 42 124
Width: 526
GlyphClass: 1
Flags: W
LayerCount: 2
Fore
SplineSet
167 332 m 1,0,-1
 89 386 l 1,1,-1
 198 521 l 1,2,-1
 35 568 l 1,3,-1
 65 657 l 1,4,-1
 221 596 l 1,5,-1
 214 765 l 1,6,-1
 311 765 l 1,7,-1
 304 596 l 1,8,-1
 461 657 l 1,9,-1
 492 568 l 1,10,-1
 328 521 l 1,11,-1
 436 386 l 1,12,-1
 358 332 l 1,13,-1
 262 475 l 1,14,-1
 167 332 l 1,0,-1
EndSplineSet
Validated: 1
EndChar

StartChar: dagger
Encoding: 8224 8224 125
Width: 552
GlyphClass: 1
Flags: W
LayerCount: 2
Fore
SplineSet
228 -205 m 1,0,-1
 228 443 l 1,1,-1
 41 443 l 1,2,-1
 41 528 l 1,3,-1
 228 528 l 1,4,-1
 228 758 l 1,5,-1
 325 758 l 1,6,-1
 325 528 l 1,7,-1
 512 528 l 1,8,-1
 512 443 l 1,9,-1
 325 443 l 1,10,-1
 325 -205 l 1,11,-1
 228 -205 l 1,0,-1
EndSplineSet
Validated: 1
EndChar

StartChar: daggerdbl
Encoding: 8225 8225 126
Width: 561
GlyphClass: 1
Flags: W
LayerCount: 2
Fore
SplineSet
232 -205 m 1,0,-1
 232 25 l 1,1,-1
 45 25 l 1,2,-1
 45 110 l 1,3,-1
 232 110 l 1,4,-1
 232 443 l 1,5,-1
 45 443 l 1,6,-1
 45 528 l 1,7,-1
 232 528 l 1,8,-1
 232 758 l 1,9,-1
 329 758 l 1,10,-1
 329 528 l 1,11,-1
 516 528 l 1,12,-1
 516 443 l 1,13,-1
 329 443 l 1,14,-1
 329 110 l 1,15,-1
 516 110 l 1,16,-1
 516 25 l 1,17,-1
 329 25 l 1,18,-1
 329 -205 l 1,19,-1
 232 -205 l 1,0,-1
EndSplineSet
Validated: 1
EndChar

StartChar: numbersign
Encoding: 35 35 127
Width: 694
GlyphClass: 1
Flags: W
LayerCount: 2
Fore
SplineSet
400 196 m 1,0,-1
 239 196 l 1,1,-1
 205 0 l 1,2,-1
 126 0 l 1,3,-1
 160 196 l 1,4,-1
 41 196 l 1,5,-1
 41 270 l 1,6,-1
 173 270 l 1,7,-1
 203 444 l 1,8,-1
 84 444 l 1,9,-1
 84 519 l 1,10,-1
 216 519 l 1,11,-1
 250 715 l 1,12,-1
 328 715 l 1,13,-1
 294 519 l 1,14,-1
 456 519 l 1,15,-1
 489 715 l 1,16,-1
 568 715 l 1,17,-1
 535 519 l 1,18,-1
 653 519 l 1,19,-1
 653 444 l 1,20,-1
 521 444 l 1,21,-1
 492 270 l 1,22,-1
 610 270 l 1,23,-1
 610 196 l 1,24,-1
 478 196 l 1,25,-1
 444 0 l 1,26,-1
 367 0 l 1,27,-1
 400 196 l 1,0,-1
413 270 m 1,28,-1
 443 444 l 1,29,-1
 282 444 l 1,30,-1
 251 270 l 1,31,-1
 413 270 l 1,28,-1
EndSplineSet
Validated: 1
EndChar

StartChar: asciicircum
Encoding: 94 94 128
Width: 614
GlyphClass: 1
Flags: W
LayerCount: 2
Fore
SplineSet
478 295 m 1,0,-1
 307 601 l 1,1,-1
 302 601 l 1,2,-1
 132 295 l 1,3,-1
 48 339 l 1,4,-1
 256 715 l 1,5,-1
 358 715 l 1,6,-1
 566 339 l 1,7,-1
 478 295 l 1,0,-1
EndSplineSet
Validated: 1
EndChar

StartChar: asciitilde
Encoding: 126 126 129
Width: 614
GlyphClass: 1
Flags: W
LayerCount: 2
Fore
SplineSet
428 231 m 0,0,1
 390 231 390 231 361 241 c 128,-1,2
 332 251 332 251 297 268 c 0,3,4
 268 282 268 282 241 292.5 c 128,-1,5
 214 303 214 303 182 303 c 0,6,7
 158 303 158 303 140.5 296 c 128,-1,8
 123 289 123 289 99 272 c 1,9,-1
 59 335 l 1,10,11
 78 362 78 362 108 378 c 128,-1,12
 138 394 138 394 186 394 c 0,13,14
 224 394 224 394 253.5 384.5 c 128,-1,15
 283 375 283 375 317 357 c 0,16,17
 346 343 346 343 373 333 c 128,-1,18
 400 323 400 323 432 323 c 0,19,20
 456 323 456 323 474 330 c 128,-1,21
 492 337 492 337 515 353 c 1,22,-1
 555 291 l 1,23,24
 536 264 536 264 506 247.5 c 128,-1,25
 476 231 476 231 428 231 c 0,0,1
EndSplineSet
Validated: 1
EndChar

StartChar: plus
Encoding: 43 43 130
Width: 614
GlyphClass: 1
Flags: W
LayerCount: 2
Fore
SplineSet
257 65 m 1,0,-1
 257 267 l 1,1,-1
 69 267 l 1,2,-1
 69 358 l 1,3,-1
 257 358 l 1,4,-1
 257 561 l 1,5,-1
 357 561 l 1,6,-1
 357 358 l 1,7,-1
 546 358 l 1,8,-1
 546 267 l 1,9,-1
 357 267 l 1,10,-1
 357 65 l 1,11,-1
 257 65 l 1,0,-1
EndSplineSet
Validated: 1
EndChar

StartChar: minus
Encoding: 8722 8722 131
Width: 614
GlyphClass: 1
Flags: W
LayerCount: 2
Fore
SplineSet
69 267 m 1,0,-1
 69 358 l 1,1,-1
 546 358 l 1,2,-1
 546 267 l 1,3,-1
 69 267 l 1,0,-1
EndSplineSet
Validated: 1
EndChar

StartChar: plusminus
Encoding: 177 177 132
Width: 614
GlyphClass: 1
Flags: W
LayerCount: 2
Fore
SplineSet
257 171 m 1,0,-1
 257 359 l 1,1,-1
 69 359 l 1,2,-1
 69 451 l 1,3,-1
 257 451 l 1,4,-1
 257 640 l 1,5,-1
 357 640 l 1,6,-1
 357 451 l 1,7,-1
 546 451 l 1,8,-1
 546 359 l 1,9,-1
 357 359 l 1,10,-1
 357 171 l 1,11,-1
 257 171 l 1,0,-1
69 0 m 1,12,-1
 69 91 l 1,13,-1
 546 91 l 1,14,-1
 546 0 l 1,15,-1
 69 0 l 1,12,-1
EndSplineSet
Validated: 1
EndChar

StartChar: multiply
Encoding: 215 215 133
Width: 614
GlyphClass: 1
Flags: W
LayerCount: 2
Fore
SplineSet
307 244 m 1,0,-1
 154 85 l 1,1,-1
 88 150 l 1,2,-1
 243 309 l 1,3,-1
 88 469 l 1,4,-1
 154 534 l 1,5,-1
 307 375 l 1,6,-1
 461 534 l 1,7,-1
 526 469 l 1,8,-1
 372 309 l 1,9,-1
 526 150 l 1,10,-1
 461 85 l 1,11,-1
 307 244 l 1,0,-1
EndSplineSet
Validated: 1
EndChar

StartChar: divide
Encoding: 247 247 134
Width: 614
GlyphClass: 1
Flags: W
LayerCount: 2
Fore
SplineSet
69 267 m 1,0,-1
 69 358 l 1,1,-1
 546 358 l 1,2,-1
 546 267 l 1,3,-1
 69 267 l 1,0,-1
307 43 m 256,4,5
 266 43 266 43 249 60.5 c 128,-1,6
 232 78 232 78 232 101 c 2,7,-1
 232 125 l 2,8,9
 232 149 232 149 249 166 c 128,-1,10
 266 183 266 183 307 183 c 256,11,12
 348 183 348 183 365 165.5 c 128,-1,13
 382 148 382 148 382 125 c 2,14,-1
 382 101 l 2,15,16
 382 77 382 77 365 60 c 128,-1,17
 348 43 348 43 307 43 c 256,4,5
307 441 m 256,18,19
 266 441 266 441 249 458.5 c 128,-1,20
 232 476 232 476 232 500 c 2,21,-1
 232 523 l 2,22,23
 232 547 232 547 249 564.5 c 128,-1,24
 266 582 266 582 307 582 c 256,25,26
 348 582 348 582 365 564.5 c 128,-1,27
 382 547 382 547 382 523 c 2,28,-1
 382 500 l 2,29,30
 382 476 382 476 365 458.5 c 128,-1,31
 348 441 348 441 307 441 c 256,18,19
EndSplineSet
Validated: 1
EndChar

StartChar: equal
Encoding: 61 61 135
Width: 614
GlyphClass: 1
Flags: W
LayerCount: 2
Fore
SplineSet
69 377 m 1,0,-1
 69 468 l 1,1,-1
 546 468 l 1,2,-1
 546 377 l 1,3,-1
 69 377 l 1,0,-1
69 158 m 1,4,-1
 69 249 l 1,5,-1
 546 249 l 1,6,-1
 546 158 l 1,7,-1
 69 158 l 1,4,-1
EndSplineSet
Validated: 1
EndChar

StartChar: notequal
Encoding: 8800 8800 137
Width: 614
GlyphClass: 1
Flags: W
LayerCount: 2
Fore
SplineSet
123 57 m 1,0,-1
 175 155 l 1,1,-1
 69 155 l 1,2,-1
 69 246 l 1,3,-1
 223 246 l 1,4,-1
 294 380 l 1,5,-1
 69 380 l 1,6,-1
 69 471 l 1,7,-1
 343 471 l 1,8,-1
 394 568 l 1,9,-1
 492 568 l 1,10,-1
 439 471 l 1,11,-1
 546 471 l 1,12,-1
 546 380 l 1,13,-1
 390 380 l 1,14,-1
 319 246 l 1,15,-1
 546 246 l 1,16,-1
 546 155 l 1,17,-1
 271 155 l 1,18,-1
 220 57 l 1,19,-1
 123 57 l 1,0,-1
EndSplineSet
Validated: 1
EndChar

StartChar: less
Encoding: 60 60 138
Width: 614
GlyphClass: 1
Flags: W
LayerCount: 2
Fore
SplineSet
98 252 m 1,0,-1
 98 336 l 1,1,-1
 516 596 l 1,2,-1
 516 481 l 1,3,-1
 210 298 l 1,4,-1
 210 291 l 1,5,-1
 516 106 l 1,6,-1
 516 -8 l 1,7,-1
 98 252 l 1,0,-1
EndSplineSet
Validated: 1
EndChar

StartChar: greater
Encoding: 62 62 139
Width: 614
GlyphClass: 1
Flags: W
LayerCount: 2
Fore
SplineSet
98 106 m 1,0,-1
 404 291 l 1,1,-1
 404 298 l 1,2,-1
 98 481 l 1,3,-1
 98 596 l 1,4,-1
 516 336 l 1,5,-1
 516 252 l 1,6,-1
 98 -8 l 1,7,-1
 98 106 l 1,0,-1
EndSplineSet
Validated: 1
EndChar

StartChar: lessequal
Encoding: 8804 8804 140
Width: 614
GlyphClass: 1
Flags: W
LayerCount: 2
Fore
SplineSet
98 0 m 1,0,-1
 98 91 l 1,1,-1
 516 91 l 1,2,-1
 516 0 l 1,3,-1
 98 0 l 1,0,-1
516 506 m 1,4,-1
 219 376 l 1,5,-1
 219 370 l 1,6,-1
 516 242 l 1,7,-1
 516 134 l 1,8,-1
 98 328 l 1,9,-1
 98 418 l 1,10,-1
 516 613 l 1,11,-1
 516 506 l 1,4,-1
EndSplineSet
Validated: 1
EndChar

StartChar: greaterequal
Encoding: 8805 8805 141
Width: 614
GlyphClass: 1
Flags: W
LayerCount: 2
Fore
SplineSet
98 242 m 1,0,-1
 395 370 l 1,1,-1
 395 376 l 1,2,-1
 98 506 l 1,3,-1
 98 613 l 1,4,-1
 516 418 l 1,5,-1
 516 328 l 1,6,-1
 98 134 l 1,7,-1
 98 242 l 1,0,-1
98 91 m 1,8,-1
 516 91 l 1,9,-1
 516 0 l 1,10,-1
 98 0 l 1,11,-1
 98 91 l 1,8,-1
EndSplineSet
Validated: 1
EndChar

StartChar: periodcentered
Encoding: 183 183 142
Width: 364
GlyphClass: 1
Flags: W
LayerCount: 2
Fore
SplineSet
182 229 m 256,0,1
 139 229 139 229 119.5 249 c 128,-1,2
 100 269 100 269 100 299 c 2,3,-1
 100 324 l 2,4,5
 100 354 100 354 119.5 373.5 c 128,-1,6
 139 393 139 393 182 393 c 256,7,8
 225 393 225 393 244.5 373 c 128,-1,9
 264 353 264 353 264 324 c 2,10,-1
 264 299 l 2,11,12
 264 269 264 269 244.5 249 c 128,-1,13
 225 229 225 229 182 229 c 256,0,1
EndSplineSet
Validated: 1
EndChar

StartChar: bullet
Encoding: 8226 8226 144
Width: 419
GlyphClass: 1
Flags: W
LayerCount: 2
Fore
SplineSet
210 169 m 0,0,1
 172 169 172 169 146 178 c 128,-1,2
 120 187 120 187 103.5 203 c 128,-1,3
 87 219 87 219 79.5 240.5 c 128,-1,4
 72 262 72 262 72 288 c 2,5,-1
 72 319 l 2,6,7
 72 345 72 345 79.5 366.5 c 128,-1,8
 87 388 87 388 103.5 404 c 128,-1,9
 120 420 120 420 146 429 c 128,-1,10
 172 438 172 438 210 438 c 256,11,12
 248 438 248 438 274 429 c 128,-1,13
 300 420 300 420 316.5 404 c 128,-1,14
 333 388 333 388 340.5 366.5 c 128,-1,15
 348 345 348 345 348 319 c 2,16,-1
 348 288 l 2,17,18
 348 237 348 237 316.5 203 c 128,-1,19
 285 169 285 169 210 169 c 0,0,1
EndSplineSet
Validated: 1
EndChar

StartChar: lozenge
Encoding: 9674 9674 145
Width: 614
GlyphClass: 1
Flags: W
LayerCount: 2
Fore
SplineSet
266 0 m 1,0,-1
 51 357 l 1,1,-1
 266 715 l 1,2,-1
 348 715 l 1,3,-1
 563 357 l 1,4,-1
 348 0 l 1,5,-1
 266 0 l 1,0,-1
310 106 m 1,6,-1
 457 357 l 1,7,-1
 310 608 l 1,8,-1
 304 608 l 1,9,-1
 158 357 l 1,10,-1
 304 106 l 1,11,-1
 310 106 l 1,6,-1
EndSplineSet
Validated: 1
EndChar

StartChar: logicalnot
Encoding: 172 172 146
Width: 614
GlyphClass: 1
Flags: W
LayerCount: 2
Fore
SplineSet
453 80 m 1,0,-1
 453 267 l 1,1,-1
 46 267 l 1,2,-1
 46 358 l 1,3,-1
 546 358 l 1,4,-1
 546 80 l 1,5,-1
 453 80 l 1,0,-1
EndSplineSet
Validated: 1
EndChar

StartChar: radical
Encoding: 8730 8730 147
Width: 614
GlyphClass: 1
Flags: W
LayerCount: 2
Fore
SplineSet
240 0 m 1,0,-1
 116 441 l 1,1,-1
 24 441 l 1,2,-1
 24 532 l 1,3,-1
 194 532 l 1,4,-1
 247 336 l 1,5,-1
 310 93 l 1,6,-1
 316 93 l 1,7,-1
 382 336 l 1,8,-1
 489 715 l 1,9,-1
 590 715 l 1,10,-1
 383 0 l 1,11,-1
 240 0 l 1,0,-1
EndSplineSet
Validated: 1
EndChar

StartChar: integral
Encoding: 8747 8747 148
Width: 447
GlyphClass: 1
Flags: W
LayerCount: 2
Fore
SplineSet
45 -114 m 1,0,-1
 168 -114 l 1,1,-1
 168 624 l 2,2,3
 168 684 168 684 200.5 721 c 128,-1,4
 233 758 233 758 303 758 c 2,5,-1
 402 758 l 1,6,-1
 402 667 l 1,7,-1
 280 667 l 1,8,-1
 280 -71 l 2,9,10
 280 -131 280 -131 247 -168 c 128,-1,11
 214 -205 214 -205 144 -205 c 2,12,-1
 45 -205 l 1,13,-1
 45 -114 l 1,0,-1
EndSplineSet
Validated: 1
EndChar

StartChar: infinity
Encoding: 8734 8734 149
Width: 780
GlyphClass: 1
Flags: W
LayerCount: 2
Fore
SplineSet
211 104 m 0,0,1
 166 104 166 104 130.5 118.5 c 128,-1,2
 95 133 95 133 70 159.5 c 128,-1,3
 45 186 45 186 31.5 223.5 c 128,-1,4
 18 261 18 261 18 306 c 256,5,6
 18 351 18 351 31.5 388.5 c 128,-1,7
 45 426 45 426 70 452.5 c 128,-1,8
 95 479 95 479 130.5 493.5 c 128,-1,9
 166 508 166 508 211 508 c 0,10,11
 287 508 287 508 335.5 474 c 128,-1,12
 384 440 384 440 410 367 c 1,13,-1
 415 367 l 1,14,15
 426 437 426 437 470 472.5 c 128,-1,16
 514 508 514 508 569 508 c 0,17,18
 613 508 613 508 649 493.5 c 128,-1,19
 685 479 685 479 710 452.5 c 128,-1,20
 735 426 735 426 748.5 388.5 c 128,-1,21
 762 351 762 351 762 306 c 256,22,23
 762 261 762 261 748.5 223.5 c 128,-1,24
 735 186 735 186 710 159.5 c 128,-1,25
 685 133 685 133 649 118.5 c 128,-1,26
 613 104 613 104 569 104 c 0,27,28
 493 104 493 104 444.5 138 c 128,-1,29
 396 172 396 172 371 246 c 1,30,-1
 366 246 l 1,31,32
 355 176 355 176 310.5 140 c 128,-1,33
 266 104 266 104 211 104 c 0,0,1
211 194 m 0,34,35
 259 194 259 194 293 221 c 128,-1,36
 327 248 327 248 342 300 c 1,37,38
 325 356 325 356 292 387.5 c 128,-1,39
 259 419 259 419 211 419 c 0,40,41
 171 419 171 419 147 394 c 128,-1,42
 123 369 123 369 123 326 c 2,43,-1
 123 287 l 2,44,45
 123 244 123 244 147 219 c 128,-1,46
 171 194 171 194 211 194 c 0,34,35
569 194 m 0,47,48
 609 194 609 194 633 219 c 128,-1,49
 657 244 657 244 657 287 c 2,50,-1
 657 326 l 2,51,52
 657 369 657 369 633 394 c 128,-1,53
 609 419 609 419 569 419 c 0,54,55
 521 419 521 419 487.5 392 c 128,-1,56
 454 365 454 365 438 312 c 1,57,58
 455 256 455 256 488 225 c 128,-1,59
 521 194 521 194 569 194 c 0,47,48
EndSplineSet
Validated: 1
EndChar

StartChar: uni212E
Encoding: 8494 8494 150
Width: 737
GlyphClass: 1
Flags: W
LayerCount: 2
Fore
SplineSet
199 102 m 1,0,1
 230 76 230 76 271.5 60 c 128,-1,2
 313 44 313 44 369 44 c 0,3,4
 461 44 461 44 521.5 86 c 128,-1,5
 582 128 582 128 618 197 c 1,6,-1
 670 168 l 1,7,8
 650 129 650 129 620.5 96 c 128,-1,9
 591 63 591 63 553.5 39 c 128,-1,10
 516 15 516 15 469.5 1.5 c 128,-1,11
 423 -12 423 -12 369 -12 c 0,12,13
 296 -12 296 -12 235 14 c 128,-1,14
 174 40 174 40 129 88 c 128,-1,15
 84 136 84 136 59 204 c 128,-1,16
 34 272 34 272 34 357 c 0,17,18
 34 441 34 441 59 510 c 128,-1,19
 84 579 84 579 129 627 c 128,-1,20
 174 675 174 675 235 701 c 128,-1,21
 296 727 296 727 369 727 c 0,22,23
 441 727 441 727 502 701 c 128,-1,24
 563 675 563 675 608 627 c 128,-1,25
 653 579 653 579 678 510 c 128,-1,26
 703 441 703 441 703 357 c 1,27,-1
 199 357 l 1,28,-1
 199 102 l 1,0,1
539 411 m 1,29,-1
 539 615 l 1,30,31
 508 641 508 641 466 657.5 c 128,-1,32
 424 674 424 674 369 674 c 256,33,34
 314 674 314 674 271.5 657.5 c 128,-1,35
 229 641 229 641 199 615 c 1,36,-1
 199 411 l 1,37,-1
 539 411 l 1,29,-1
EndSplineSet
Validated: 1
EndChar

StartChar: uni2113
Encoding: 8467 8467 151
Width: 528
GlyphClass: 1
Flags: W
LayerCount: 2
Fore
SplineSet
297 -12 m 0,0,1
 218 -12 218 -12 171 35.5 c 128,-1,2
 124 83 124 83 124 163 c 2,3,-1
 124 171 l 1,4,5
 114 163 114 163 99.5 153 c 128,-1,6
 85 143 85 143 74 136 c 1,7,-1
 27 213 l 1,8,9
 51 227 51 227 76 244 c 128,-1,10
 101 261 101 261 120 275 c 1,11,-1
 120 568 l 2,12,13
 120 624 120 624 132 662.5 c 128,-1,14
 144 701 144 701 165.5 725 c 128,-1,15
 187 749 187 749 217 759.5 c 128,-1,16
 247 770 247 770 282 770 c 0,17,18
 361 770 361 770 401.5 723 c 128,-1,19
 442 676 442 676 442 589 c 0,20,21
 442 540 442 540 428.5 495 c 128,-1,22
 415 450 415 450 387.5 406 c 128,-1,23
 360 362 360 362 320 319 c 128,-1,24
 280 276 280 276 226 230 c 1,25,-1
 226 186 l 2,26,27
 226 131 226 131 245.5 108 c 128,-1,28
 265 85 265 85 300 85 c 0,29,30
 339 85 339 85 364.5 111.5 c 128,-1,31
 390 138 390 138 416 191 c 1,32,-1
 502 144 l 1,33,34
 488 110 488 110 469 81.5 c 128,-1,35
 450 53 450 53 424.5 32 c 128,-1,36
 399 11 399 11 367.5 -0.5 c 128,-1,37
 336 -12 336 -12 297 -12 c 0,0,1
285 673 m 0,38,39
 261 673 261 673 243.5 652 c 128,-1,40
 226 631 226 631 226 574 c 2,41,-1
 226 346 l 1,42,43
 279 400 279 400 309.5 457 c 128,-1,44
 340 514 340 514 340 578 c 2,45,-1
 340 592 l 2,46,47
 340 636 340 636 325 654.5 c 128,-1,48
 310 673 310 673 285 673 c 0,38,39
EndSplineSet
Validated: 1
EndChar

StartChar: uni2116
Encoding: 8470 8470 152
Width: 1065
GlyphClass: 1
Flags: W
LayerCount: 2
Fore
SplineSet
857 371 m 256,0,1
 782 371 782 371 736 417.5 c 128,-1,2
 690 464 690 464 690 549 c 256,3,4
 690 634 690 634 736 680.5 c 128,-1,5
 782 727 782 727 857 727 c 256,6,7
 932 727 932 727 978 680.5 c 128,-1,8
 1024 634 1024 634 1024 549 c 256,9,10
 1024 464 1024 464 978 417.5 c 128,-1,11
 932 371 932 371 857 371 c 256,0,1
88 0 m 1,12,-1
 88 715 l 1,13,-1
 216 715 l 1,14,-1
 419 337 l 1,15,-1
 504 167 l 1,16,-1
 507 167 l 1,17,-1
 507 715 l 1,18,-1
 615 715 l 1,19,-1
 615 0 l 1,20,-1
 486 0 l 1,21,-1
 275 386 l 1,22,-1
 199 543 l 1,23,-1
 196 543 l 1,24,-1
 196 0 l 1,25,-1
 88 0 l 1,12,-1
857 440 m 256,26,27
 894 440 894 440 915.5 462 c 128,-1,28
 937 484 937 484 937 522 c 2,29,-1
 937 575 l 2,30,31
 937 613 937 613 915.5 635 c 128,-1,32
 894 657 894 657 857 657 c 256,33,34
 820 657 820 657 798.5 635 c 128,-1,35
 777 613 777 613 777 575 c 2,36,-1
 777 522 l 2,37,38
 777 484 777 484 798.5 462 c 128,-1,39
 820 440 820 440 857 440 c 256,26,27
707 238 m 1,40,-1
 707 311 l 1,41,-1
 1008 311 l 1,42,-1
 1008 238 l 1,43,-1
 707 238 l 1,40,-1
EndSplineSet
Validated: 1
EndChar

StartChar: partialdiff
Encoding: 8706 8706 153
Width: 603
GlyphClass: 1
Flags: W
LayerCount: 2
Fore
SplineSet
547 278 m 0,0,1
 547 204 547 204 529.5 149 c 128,-1,2
 512 94 512 94 479.5 58.5 c 128,-1,3
 447 23 447 23 402 5.5 c 128,-1,4
 357 -12 357 -12 302 -12 c 0,5,6
 244 -12 244 -12 198 7 c 128,-1,7
 152 26 152 26 119.5 60.5 c 128,-1,8
 87 95 87 95 70 145 c 128,-1,9
 53 195 53 195 53 256 c 0,10,11
 53 314 53 314 68.5 362.5 c 128,-1,12
 84 411 84 411 111.5 445 c 128,-1,13
 139 479 139 479 179 497.5 c 128,-1,14
 219 516 219 516 268 516 c 256,15,16
 317 516 317 516 351 496 c 128,-1,17
 385 476 385 476 409 441 c 1,18,-1
 415 443 l 1,19,20
 402 482 402 482 374 518.5 c 128,-1,21
 346 555 346 555 308 589 c 128,-1,22
 270 623 270 623 222.5 654.5 c 128,-1,23
 175 686 175 686 122 715 c 1,24,-1
 291 715 l 1,25,26
 331 690 331 690 376 652.5 c 128,-1,27
 421 615 421 615 459 562.5 c 128,-1,28
 497 510 497 510 522 440 c 128,-1,29
 547 370 547 370 547 278 c 0,0,1
300 77 m 256,30,31
 359 77 359 77 394 112.5 c 128,-1,32
 429 148 429 148 429 219 c 2,33,-1
 429 285 l 2,34,35
 429 356 429 356 394 391.5 c 128,-1,36
 359 427 359 427 300 427 c 256,37,38
 241 427 241 427 206 391 c 128,-1,39
 171 355 171 355 171 285 c 2,40,-1
 171 219 l 2,41,42
 171 148 171 148 206 112.5 c 128,-1,43
 241 77 241 77 300 77 c 256,30,31
EndSplineSet
Validated: 1
EndChar

StartChar: currency
Encoding: 164 164 154
Width: 634
GlyphClass: 1
Flags: W
LayerCount: 2
Fore
SplineSet
317 117 m 256,0,1
 275 117 275 117 240 127 c 128,-1,2
 205 137 205 137 178 156 c 1,3,-1
 79 56 l 1,4,-1
 15 119 l 1,5,-1
 117 220 l 1,6,7
 84 277 84 277 84 357 c 256,8,9
 84 437 84 437 117 495 c 1,10,-1
 15 596 l 1,11,-1
 79 658 l 1,12,-1
 178 559 l 1,13,14
 205 577 205 577 240 587.5 c 128,-1,15
 275 598 275 598 317 598 c 256,16,17
 359 598 359 598 394.5 588 c 128,-1,18
 430 578 430 578 457 559 c 1,19,-1
 556 658 l 1,20,-1
 620 596 l 1,21,-1
 518 495 l 1,22,23
 551 438 551 438 551 357 c 256,24,25
 551 277 551 277 518 220 c 1,26,-1
 620 119 l 1,27,-1
 556 56 l 1,28,-1
 457 156 l 1,29,30
 430 138 430 138 394.5 127.5 c 128,-1,31
 359 117 359 117 317 117 c 256,0,1
317 203 m 256,32,33
 372 203 372 203 404 234 c 128,-1,34
 436 265 436 265 436 327 c 2,35,-1
 436 388 l 2,36,37
 436 449 436 449 404.5 480.5 c 128,-1,38
 373 512 373 512 317 512 c 256,39,40
 262 512 262 512 230.5 481 c 128,-1,41
 199 450 199 450 199 388 c 2,42,-1
 199 327 l 2,43,44
 199 266 199 266 230.5 234.5 c 128,-1,45
 262 203 262 203 317 203 c 256,32,33
EndSplineSet
Validated: 1
EndChar

StartChar: cent
Encoding: 162 162 155
Width: 541
GlyphClass: 1
Flags: W
LayerCount: 2
Fore
SplineSet
241 -117 m 1,0,-1
 241 -8 l 1,1,2
 148 7 148 7 96.5 79 c 128,-1,3
 45 151 45 151 45 264 c 0,4,5
 45 379 45 379 96 450.5 c 128,-1,6
 147 522 147 522 241 537 c 1,7,-1
 241 645 l 1,8,-1
 330 645 l 1,9,-1
 330 539 l 1,10,11
 393 531 393 531 434 498 c 128,-1,12
 475 465 475 465 497 416 c 1,13,-1
 413 370 l 1,14,15
 401 400 401 400 378.5 420 c 128,-1,16
 356 440 356 440 325 447 c 1,17,-1
 325 81 l 1,18,19
 359 87 359 87 384 108.5 c 128,-1,20
 409 130 409 130 424 163 c 1,21,-1
 504 114 l 1,22,23
 481 64 481 64 437.5 30.5 c 128,-1,24
 394 -3 394 -3 330 -10 c 1,25,-1
 330 -117 l 1,26,-1
 241 -117 l 1,0,-1
157 220 m 2,27,28
 157 169 157 169 179 132 c 128,-1,29
 201 95 201 95 246 83 c 1,30,-1
 246 445 l 1,31,32
 202 433 202 433 179.5 396.5 c 128,-1,33
 157 360 157 360 157 308 c 2,34,-1
 157 220 l 2,27,28
EndSplineSet
Validated: 1
EndChar

StartChar: Euro
Encoding: 8364 8364 156
Width: 642
GlyphClass: 1
Flags: W
LayerCount: 2
Fore
SplineSet
355 -12 m 0,0,1
 286 -12 286 -12 231 12 c 128,-1,2
 176 36 176 36 137 83.5 c 128,-1,3
 98 131 98 131 77 199.5 c 128,-1,4
 56 268 56 268 56 357 c 256,5,6
 56 446 56 446 77 515 c 128,-1,7
 98 584 98 584 137 631 c 128,-1,8
 176 678 176 678 231.5 702.5 c 128,-1,9
 287 727 287 727 355 727 c 0,10,11
 449 727 449 727 505.5 687 c 128,-1,12
 562 647 562 647 596 585 c 1,13,-1
 510 526 l 1,14,15
 488 575 488 575 450 603 c 128,-1,16
 412 631 412 631 355 631 c 0,17,18
 286 631 286 631 242 590 c 128,-1,19
 198 549 198 549 183 480 c 1,20,-1
 433 480 l 1,21,-1
 433 401 l 1,22,-1
 178 401 l 1,23,-1
 178 313 l 1,24,-1
 433 313 l 1,25,-1
 433 234 l 1,26,-1
 183 234 l 1,27,28
 197 163 197 163 242 123.5 c 128,-1,29
 287 84 287 84 355 84 c 0,30,31
 413 84 413 84 453.5 113.5 c 128,-1,32
 494 143 494 143 517 196 c 1,33,-1
 603 135 l 1,34,35
 588 105 588 105 566 78 c 128,-1,36
 544 51 544 51 513.5 31 c 128,-1,37
 483 11 483 11 444 -0.5 c 128,-1,38
 405 -12 405 -12 355 -12 c 0,0,1
EndSplineSet
Validated: 1
EndChar

StartChar: florin
Encoding: 402 402 157
Width: 495
GlyphClass: 1
Flags: W
LayerCount: 2
Fore
SplineSet
9 -46 m 1,0,-1
 144 -46 l 1,1,-1
 178 287 l 1,2,-1
 48 287 l 1,3,-1
 58 382 l 1,4,-1
 187 382 l 1,5,-1
 208 579 l 2,6,7
 214 639 214 639 251 677 c 128,-1,8
 288 715 288 715 357 715 c 2,9,-1
 476 715 l 1,10,-1
 466 624 l 1,11,-1
 325 624 l 1,12,-1
 299 382 l 1,13,-1
 454 382 l 1,14,-1
 444 287 l 1,15,-1
 290 287 l 1,16,-1
 261 -2 l 2,17,18
 255 -61 255 -61 218 -99 c 128,-1,19
 181 -137 181 -137 112 -137 c 2,20,-1
 0 -137 l 1,21,-1
 9 -46 l 1,0,-1
EndSplineSet
Validated: 1
EndChar

StartChar: sterling
Encoding: 163 163 158
Width: 603
GlyphClass: 1
Flags: W
LayerCount: 2
Fore
SplineSet
77 0 m 1,0,-1
 77 118 l 1,1,2
 119 136 119 136 137.5 172.5 c 128,-1,3
 156 209 156 209 156 252 c 0,4,5
 156 263 156 263 155 274 c 128,-1,6
 154 285 154 285 152 295 c 1,7,-1
 50 295 l 1,8,-1
 50 388 l 1,9,-1
 120 388 l 1,10,11
 111 418 111 418 102.5 448 c 128,-1,12
 94 478 94 478 94 514 c 0,13,14
 94 561 94 561 111 600.5 c 128,-1,15
 128 640 128 640 159.5 668 c 128,-1,16
 191 696 191 696 236.5 711.5 c 128,-1,17
 282 727 282 727 339 727 c 0,18,19
 419 727 419 727 474.5 696.5 c 128,-1,20
 530 666 530 666 567 607 c 1,21,-1
 482 547 l 1,22,23
 455 586 455 586 421 606.5 c 128,-1,24
 387 627 387 627 339 627 c 0,25,26
 279 627 279 627 245.5 594.5 c 128,-1,27
 212 562 212 562 212 499 c 0,28,29
 212 467 212 467 219 441 c 128,-1,30
 226 415 226 415 234 388 c 1,31,-1
 447 388 l 1,32,-1
 447 295 l 1,33,-1
 265 295 l 1,34,35
 268 278 268 278 268 259 c 0,36,37
 268 203 268 203 244 163.5 c 128,-1,38
 220 124 220 124 190 106 c 1,39,-1
 190 100 l 1,40,-1
 550 100 l 1,41,-1
 550 0 l 1,42,-1
 77 0 l 1,0,-1
EndSplineSet
Validated: 1
EndChar

StartChar: dollar
Encoding: 36 36 159
Width: 613
GlyphClass: 1
Flags: W
LayerCount: 2
Fore
SplineSet
267 -84 m 1,0,-1
 267 4 l 1,1,2
 189 10 189 10 136 42 c 128,-1,3
 83 74 83 74 44 120 c 1,4,-1
 119 187 l 1,5,6
 151 148 151 148 188 124.5 c 128,-1,7
 225 101 225 101 274 95 c 1,8,-1
 274 325 l 1,9,10
 163 349 163 349 114.5 396 c 128,-1,11
 66 443 66 443 66 521 c 0,12,13
 66 603 66 603 120 651 c 128,-1,14
 174 699 174 699 267 710 c 1,15,-1
 267 799 l 1,16,-1
 354 799 l 1,17,-1
 354 710 l 1,18,19
 420 704 420 704 468.5 677 c 128,-1,20
 517 650 517 650 553 604 c 1,21,-1
 477 542 l 1,22,23
 454 572 454 572 423 591.5 c 128,-1,24
 392 611 392 611 348 618 c 1,25,-1
 348 409 l 1,26,27
 408 396 408 396 448 377 c 128,-1,28
 488 358 488 358 513.5 335 c 128,-1,29
 539 312 539 312 550 282 c 128,-1,30
 561 252 561 252 561 212 c 0,31,32
 561 129 561 129 507.5 73.5 c 128,-1,33
 454 18 454 18 354 6 c 1,34,-1
 354 -84 l 1,35,-1
 267 -84 l 1,0,-1
454 205 m 0,36,37
 454 244 454 244 431.5 269 c 128,-1,38
 409 294 409 294 348 309 c 1,39,-1
 348 96 l 1,40,41
 398 104 398 104 426 133 c 128,-1,42
 454 162 454 162 454 205 c 0,36,37
172 526 m 0,43,44
 172 483 172 483 197 461 c 128,-1,45
 222 439 222 439 274 425 c 1,46,-1
 274 620 l 1,47,48
 225 613 225 613 198.5 589 c 128,-1,49
 172 565 172 565 172 526 c 0,43,44
EndSplineSet
Validated: 1
EndChar

StartChar: yen
Encoding: 165 165 160
Width: 636
GlyphClass: 1
Flags: W
LayerCount: 2
Fore
SplineSet
377 143 m 1,0,-1
 377 0 l 1,1,-1
 261 0 l 1,2,-1
 261 143 l 1,3,-1
 85 143 l 1,4,-1
 85 222 l 1,5,-1
 261 222 l 1,6,-1
 261 308 l 1,7,-1
 85 308 l 1,8,-1
 85 387 l 1,9,-1
 213 387 l 1,10,-1
 29 715 l 1,11,-1
 160 715 l 1,12,-1
 323 410 l 1,13,-1
 327 410 l 1,14,-1
 484 715 l 1,15,-1
 609 715 l 1,16,-1
 426 387 l 1,17,-1
 553 387 l 1,18,-1
 553 308 l 1,19,-1
 377 308 l 1,20,-1
 377 222 l 1,21,-1
 553 222 l 1,22,-1
 553 143 l 1,23,-1
 377 143 l 1,0,-1
EndSplineSet
Validated: 1
EndChar

StartChar: uni0E3F
Encoding: 3647 3647 161
Width: 667
GlyphClass: 1
Flags: W
LayerCount: 2
Fore
SplineSet
374 -87 m 1,0,-1
 287 -87 l 1,1,-1
 287 22 l 1,2,-1
 88 22 l 1,3,-1
 88 693 l 1,4,-1
 287 693 l 1,5,-1
 287 799 l 1,6,-1
 374 799 l 1,7,-1
 374 693 l 1,8,-1
 403 693 l 2,9,10
 490 693 490 693 539 646 c 128,-1,11
 588 599 588 599 588 520 c 0,12,13
 588 451 588 451 554 418 c 128,-1,14
 520 385 520 385 464 377 c 1,15,-1
 464 371 l 1,16,17
 492 368 492 368 519 358.5 c 128,-1,18
 546 349 546 349 567 331 c 128,-1,19
 588 313 588 313 600.5 284.5 c 128,-1,20
 613 256 613 256 613 215 c 256,21,22
 613 174 613 174 599.5 138.5 c 128,-1,23
 586 103 586 103 562 77 c 128,-1,24
 538 51 538 51 504.5 36.5 c 128,-1,25
 471 22 471 22 433 22 c 2,26,-1
 374 22 l 1,27,-1
 374 -87 l 1,0,-1
292 409 m 1,28,-1
 292 597 l 1,29,-1
 199 597 l 1,30,-1
 199 409 l 1,31,-1
 292 409 l 1,28,-1
369 409 m 1,32,-1
 389 409 l 2,33,34
 472 409 472 409 472 486 c 2,35,-1
 472 519 l 2,36,37
 472 597 472 597 389 597 c 2,38,-1
 369 597 l 1,39,-1
 369 409 l 1,32,-1
292 118 m 1,40,-1
 292 317 l 1,41,-1
 199 317 l 1,42,-1
 199 118 l 1,43,-1
 292 118 l 1,40,-1
369 118 m 1,44,-1
 402 118 l 2,45,46
 446 118 446 118 472 138.5 c 128,-1,47
 498 159 498 159 498 201 c 2,48,-1
 498 234 l 2,49,50
 498 276 498 276 472 296.5 c 128,-1,51
 446 317 446 317 402 317 c 2,52,-1
 369 317 l 1,53,-1
 369 118 l 1,44,-1
EndSplineSet
Validated: 1
EndChar

StartChar: uni20A1
Encoding: 8353 8353 162
Width: 637
GlyphClass: 1
Flags: W
LayerCount: 2
Fore
SplineSet
327 3 m 1,0,1
 314 4 314 4 302 6 c 128,-1,2
 290 8 290 8 279 10 c 1,3,-1
 268 -84 l 1,4,-1
 198 -84 l 1,5,-1
 210 34 l 1,6,7
 137 71 137 71 96.5 152 c 128,-1,8
 56 233 56 233 56 356 c 0,9,10
 56 506 56 506 115 594 c 128,-1,11
 174 682 174 682 280 705 c 1,12,-1
 290 799 l 1,13,-1
 359 799 l 1,14,-1
 350 713 l 1,15,-1
 357 713 l 2,16,17
 380 713 380 713 400 710 c 1,18,-1
 410 799 l 1,19,-1
 479 799 l 1,20,-1
 469 693 l 1,21,22
 512 676 512 676 542.5 645 c 128,-1,23
 573 614 573 614 597 572 c 1,24,-1
 513 516 l 1,25,26
 502 540 502 540 488.5 558.5 c 128,-1,27
 475 577 475 577 456 589 c 1,28,-1
 406 103 l 1,29,30
 445 114 445 114 472 140.5 c 128,-1,31
 499 167 499 167 515 206 c 1,32,-1
 599 147 l 1,33,34
 572 95 572 95 523 54.5 c 128,-1,35
 474 14 474 14 396 5 c 1,36,-1
 387 -84 l 1,37,-1
 317 -84 l 1,38,-1
 327 3 l 1,0,1
340 618 m 1,39,-1
 287 109 l 1,40,41
 312 99 312 99 338 97 c 1,42,-1
 391 614 l 1,43,44
 383 616 383 616 372.5 617 c 128,-1,45
 362 618 362 618 347 618 c 2,46,-1
 340 618 l 1,39,-1
175 299 m 2,47,48
 175 203 175 203 225 151 c 1,49,-1
 270 599 l 1,50,51
 224 577 224 577 199.5 529.5 c 128,-1,52
 175 482 175 482 175 416 c 2,53,-1
 175 299 l 2,47,48
EndSplineSet
Validated: 1
EndChar

StartChar: uni20A4
Encoding: 8356 8356 163
Width: 603
GlyphClass: 1
Flags: W
LayerCount: 2
Fore
SplineSet
550 0 m 1,0,-1
 77 0 l 1,1,-1
 77 115 l 1,2,3
 115 132 115 132 133 166 c 128,-1,4
 151 200 151 200 154 239 c 1,5,-1
 50 239 l 1,6,-1
 50 317 l 1,7,-1
 145 317 l 1,8,9
 140 337 140 337 132.5 358 c 128,-1,10
 125 379 125 379 118 399 c 1,11,-1
 50 399 l 1,12,-1
 50 478 l 1,13,-1
 97 478 l 1,14,15
 94 496 94 496 94 514 c 0,16,17
 94 561 94 561 111 600.5 c 128,-1,18
 128 640 128 640 159.5 668 c 128,-1,19
 191 696 191 696 236.5 711.5 c 128,-1,20
 282 727 282 727 339 727 c 0,21,22
 419 727 419 727 474.5 696.5 c 128,-1,23
 530 666 530 666 567 607 c 1,24,-1
 482 550 l 1,25,26
 455 589 455 589 421 609.5 c 128,-1,27
 387 630 387 630 339 630 c 0,28,29
 279 630 279 630 245.5 596 c 128,-1,30
 212 562 212 562 212 499 c 0,31,32
 212 494 212 494 212.5 488.5 c 128,-1,33
 213 483 213 483 213 478 c 1,34,-1
 438 478 l 1,35,-1
 438 399 l 1,36,-1
 232 399 l 1,37,38
 239 379 239 379 247 359 c 128,-1,39
 255 339 255 339 260 317 c 1,40,-1
 438 317 l 1,41,-1
 438 239 l 1,42,-1
 266 239 l 1,43,44
 261 192 261 192 239 156.5 c 128,-1,45
 217 121 217 121 190 103 c 1,46,-1
 190 97 l 1,47,-1
 550 97 l 1,48,-1
 550 0 l 1,0,-1
EndSplineSet
Validated: 1
EndChar

StartChar: uni20A6
Encoding: 8358 8358 164
Width: 747
GlyphClass: 1
Flags: W
LayerCount: 2
Fore
SplineSet
379 239 m 1,0,-1
 208 239 l 1,1,-1
 208 0 l 1,2,-1
 101 0 l 1,3,-1
 101 237 l 1,4,-1
 16 237 l 1,5,-1
 16 315 l 1,6,-1
 101 315 l 1,7,-1
 101 401 l 1,8,-1
 16 401 l 1,9,-1
 16 480 l 1,10,-1
 101 480 l 1,11,-1
 101 715 l 1,12,-1
 233 715 l 1,13,-1
 364 478 l 1,14,-1
 541 478 l 1,15,-1
 541 715 l 1,16,-1
 645 715 l 1,17,-1
 645 480 l 1,18,-1
 731 480 l 1,19,-1
 731 401 l 1,20,-1
 645 401 l 1,21,-1
 645 315 l 1,22,-1
 731 315 l 1,23,-1
 731 237 l 1,24,-1
 645 237 l 1,25,-1
 645 0 l 1,26,-1
 511 0 l 1,27,-1
 379 239 l 1,0,-1
343 313 m 1,28,-1
 211 557 l 1,29,-1
 208 557 l 1,30,-1
 208 313 l 1,31,-1
 343 313 l 1,28,-1
538 151 m 1,32,-1
 541 151 l 1,33,-1
 541 403 l 1,34,-1
 400 403 l 1,35,-1
 538 151 l 1,32,-1
EndSplineSet
Validated: 1
EndChar

StartChar: uni20A8
Encoding: 8360 8360 165
Width: 808
GlyphClass: 1
Flags: W
LayerCount: 2
Fore
SplineSet
88 0 m 1,0,-1
 88 715 l 1,1,-1
 293 715 l 2,2,3
 388 715 388 715 439 662.5 c 128,-1,4
 490 610 490 610 490 515 c 0,5,6
 490 450 490 450 466 405 c 128,-1,7
 442 360 442 360 394 337 c 1,8,-1
 480 163 l 2,9,10
 503 119 503 119 528.5 98 c 128,-1,11
 554 77 554 77 590 77 c 0,12,13
 624 77 624 77 643 91.5 c 128,-1,14
 662 106 662 106 662 133 c 0,15,16
 662 143 662 143 659.5 152 c 128,-1,17
 657 161 657 161 651.5 169.5 c 128,-1,18
 646 178 646 178 637 188.5 c 128,-1,19
 628 199 628 199 612 213 c 2,20,-1
 593 232 l 2,21,22
 550 272 550 272 532 305.5 c 128,-1,23
 514 339 514 339 514 379 c 0,24,25
 514 440 514 440 554.5 477 c 128,-1,26
 595 514 595 514 664 514 c 0,27,28
 694 514 694 514 722.5 508 c 128,-1,29
 751 502 751 502 777 484 c 1,30,-1
 737 409 l 1,31,32
 723 419 723 419 707.5 424 c 128,-1,33
 692 429 692 429 673 429 c 0,34,35
 649 429 649 429 634.5 416.5 c 128,-1,36
 620 404 620 404 620 381 c 0,37,38
 620 358 620 358 633 341.5 c 128,-1,39
 646 325 646 325 673 298 c 2,40,-1
 690 283 l 2,41,42
 712 261 712 261 727 243.5 c 128,-1,43
 742 226 742 226 752 210 c 128,-1,44
 762 194 762 194 766 176 c 128,-1,45
 770 158 770 158 770 136 c 0,46,47
 770 104 770 104 759.5 77 c 128,-1,48
 749 50 749 50 725.5 30 c 128,-1,49
 702 10 702 10 666 -1 c 128,-1,50
 630 -12 630 -12 580 -12 c 0,51,52
 510 -12 510 -12 462 14.5 c 128,-1,53
 414 41 414 41 383 108 c 2,54,-1
 290 308 l 1,55,-1
 202 308 l 1,56,-1
 202 0 l 1,57,-1
 88 0 l 1,0,-1
280 403 m 2,58,59
 324 403 324 403 349 424 c 128,-1,60
 374 445 374 445 374 488 c 2,61,-1
 374 534 l 2,62,63
 374 577 374 577 349 597.5 c 128,-1,64
 324 618 324 618 280 618 c 2,65,-1
 202 618 l 1,66,-1
 202 403 l 1,67,-1
 280 403 l 2,58,59
EndSplineSet
Validated: 1
EndChar

StartChar: uni20A9
Encoding: 8361 8361 166
Width: 1005
GlyphClass: 1
Flags: W
LayerCount: 2
Fore
SplineSet
588 239 m 1,0,-1
 412 239 l 1,1,-1
 351 0 l 1,2,-1
 222 0 l 1,3,-1
 167 238 l 1,4,-1
 38 238 l 1,5,-1
 38 316 l 1,6,-1
 147 316 l 1,7,-1
 128 401 l 1,8,-1
 38 401 l 1,9,-1
 38 480 l 1,10,-1
 110 480 l 1,11,-1
 54 715 l 1,12,-1
 169 715 l 1,13,-1
 219 478 l 1,14,-1
 380 478 l 1,15,-1
 439 715 l 1,16,-1
 568 715 l 1,17,-1
 626 479 l 1,18,-1
 788 479 l 1,19,-1
 841 715 l 1,20,-1
 953 715 l 1,21,-1
 895 481 l 1,22,-1
 968 481 l 1,23,-1
 968 402 l 1,24,-1
 876 402 l 1,25,-1
 855 316 l 1,26,-1
 968 316 l 1,27,-1
 968 238 l 1,28,-1
 836 238 l 1,29,-1
 776 0 l 1,30,-1
 647 0 l 1,31,-1
 588 239 l 1,0,-1
353 369 m 1,32,-1
 361 403 l 1,33,-1
 234 403 l 1,34,-1
 243 369 l 1,35,-1
 293 131 l 1,36,-1
 296 131 l 1,37,-1
 353 369 l 1,32,-1
713 132 m 1,38,-1
 764 368 l 1,39,-1
 772 404 l 1,40,-1
 644 404 l 1,41,-1
 652 371 l 1,42,-1
 710 132 l 1,43,-1
 713 132 l 1,38,-1
431 313 m 1,44,-1
 569 313 l 1,45,-1
 558 358 l 1,46,-1
 502 592 l 1,47,-1
 500 592 l 1,48,-1
 442 359 l 1,49,-1
 431 313 l 1,44,-1
EndSplineSet
Validated: 1
EndChar

StartChar: uni20AA
Encoding: 8362 8362 167
Width: 849
GlyphClass: 1
Flags: W
LayerCount: 2
Fore
SplineSet
278 538 m 1,0,-1
 383 538 l 1,1,-1
 383 95 l 1,2,-1
 564 95 l 2,3,4
 603 95 603 95 629.5 118 c 128,-1,5
 656 141 656 141 656 194 c 2,6,-1
 656 715 l 1,7,-1
 762 715 l 1,8,-1
 762 203 l 2,9,10
 762 101 762 101 709 50.5 c 128,-1,11
 656 0 656 0 573 0 c 2,12,-1
 278 0 l 1,13,-1
 278 538 l 1,0,-1
88 0 m 1,14,-1
 88 715 l 1,15,-1
 386 715 l 2,16,17
 469 715 469 715 520.5 664.5 c 128,-1,18
 572 614 572 614 572 512 c 2,19,-1
 572 177 l 1,20,-1
 467 177 l 1,21,-1
 467 521 l 2,22,23
 467 573 467 573 442 596.5 c 128,-1,24
 417 620 417 620 377 620 c 2,25,-1
 194 620 l 1,26,-1
 194 0 l 1,27,-1
 88 0 l 1,14,-1
EndSplineSet
Validated: 1
EndChar

StartChar: uni20AB
Encoding: 8363 8363 168
Width: 590
GlyphClass: 1
Flags: W
LayerCount: 2
Fore
SplineSet
377 227 m 1,0,-1
 373 227 l 1,1,2
 354 190 354 190 320 167.5 c 128,-1,3
 286 145 286 145 231 145 c 0,4,5
 151 145 151 145 104 197.5 c 128,-1,6
 57 250 57 250 57 355 c 256,7,8
 57 460 57 460 104.5 512.5 c 128,-1,9
 152 565 152 565 231 565 c 0,10,11
 285 565 285 565 319 542.5 c 128,-1,12
 353 520 353 520 373 483 c 1,13,-1
 377 483 l 1,14,-1
 377 623 l 1,15,-1
 237 623 l 1,16,-1
 237 697 l 1,17,-1
 377 697 l 1,18,-1
 377 758 l 1,19,-1
 486 758 l 1,20,-1
 486 697 l 1,21,-1
 552 697 l 1,22,-1
 552 623 l 1,23,-1
 486 623 l 1,24,-1
 486 155 l 1,25,-1
 377 155 l 1,26,-1
 377 227 l 1,0,-1
274 228 m 0,27,28
 320 228 320 228 348.5 250.5 c 128,-1,29
 377 273 377 273 377 307 c 2,30,-1
 377 403 l 2,31,32
 377 437 377 437 349 459.5 c 128,-1,33
 321 482 321 482 274 482 c 0,34,35
 224 482 224 482 195.5 455 c 128,-1,36
 167 428 167 428 167 382 c 2,37,-1
 167 329 l 2,38,39
 167 283 167 283 195.5 255.5 c 128,-1,40
 224 228 224 228 274 228 c 0,27,28
65 0 m 1,41,-1
 65 86 l 1,42,-1
 512 86 l 1,43,-1
 512 0 l 1,44,-1
 65 0 l 1,41,-1
EndSplineSet
Validated: 1
EndChar

StartChar: uni20AD
Encoding: 8365 8365 169
Width: 661
GlyphClass: 1
Flags: W
LayerCount: 2
Fore
SplineSet
213 0 m 1,0,-1
 97 0 l 1,1,-1
 97 319 l 1,2,-1
 8 319 l 1,3,-1
 8 412 l 1,4,-1
 97 412 l 1,5,-1
 97 715 l 1,6,-1
 213 715 l 1,7,-1
 213 412 l 1,8,-1
 275 412 l 1,9,-1
 488 715 l 1,10,-1
 618 715 l 1,11,-1
 395 412 l 1,12,-1
 600 412 l 1,13,-1
 600 319 l 1,14,-1
 404 319 l 1,15,-1
 640 0 l 1,16,-1
 503 0 l 1,17,-1
 278 319 l 1,18,-1
 213 319 l 1,19,-1
 213 0 l 1,0,-1
EndSplineSet
Validated: 1
EndChar

StartChar: uni20AE
Encoding: 8366 8366 170
Width: 621
GlyphClass: 1
Flags: W
LayerCount: 2
Fore
SplineSet
369 218 m 1,0,-1
 369 0 l 1,1,-1
 253 0 l 1,2,-1
 253 163 l 1,3,-1
 122 100 l 1,4,-1
 122 180 l 1,5,-1
 253 243 l 1,6,-1
 253 326 l 1,7,-1
 122 263 l 1,8,-1
 122 343 l 1,9,-1
 253 406 l 1,10,-1
 253 617 l 1,11,-1
 40 617 l 1,12,-1
 40 715 l 1,13,-1
 582 715 l 1,14,-1
 582 617 l 1,15,-1
 369 617 l 1,16,-1
 369 461 l 1,17,-1
 500 523 l 1,18,-1
 500 443 l 1,19,-1
 369 381 l 1,20,-1
 369 298 l 1,21,-1
 500 361 l 1,22,-1
 500 282 l 1,23,-1
 369 218 l 1,0,-1
EndSplineSet
Validated: 1
EndChar

StartChar: uni20B1
Encoding: 8369 8369 171
Width: 672
GlyphClass: 1
Flags: W
LayerCount: 2
Fore
SplineSet
225 0 m 1,0,-1
 110 0 l 1,1,-1
 110 331 l 1,2,-1
 25 331 l 1,3,-1
 25 406 l 1,4,-1
 110 406 l 1,5,-1
 110 490 l 1,6,-1
 25 490 l 1,7,-1
 25 565 l 1,8,-1
 110 565 l 1,9,-1
 110 715 l 1,10,-1
 369 715 l 2,11,12
 522 715 522 715 559 565 c 1,13,-1
 655 565 l 1,14,-1
 655 490 l 1,15,-1
 569 490 l 1,16,17
 570 480 570 480 570.5 470 c 128,-1,18
 571 460 571 460 571 449 c 256,19,20
 571 438 571 438 570.5 427 c 128,-1,21
 570 416 570 416 569 406 c 1,22,-1
 655 406 l 1,23,-1
 655 331 l 1,24,-1
 557 331 l 1,25,26
 538 257 538 257 490.5 218 c 128,-1,27
 443 179 443 179 369 179 c 2,28,-1
 225 179 l 1,29,-1
 225 0 l 1,0,-1
225 561 m 1,30,-1
 451 561 l 1,31,32
 442 591 442 591 418.5 609.5 c 128,-1,33
 395 628 395 628 360 628 c 2,34,-1
 225 628 l 1,35,-1
 225 561 l 1,30,-1
457 401 m 1,36,-1
 457 495 l 1,37,-1
 225 495 l 1,38,-1
 225 401 l 1,39,-1
 457 401 l 1,36,-1
360 266 m 2,40,41
 396 266 396 266 419.5 284.5 c 128,-1,42
 443 303 443 303 452 335 c 1,43,-1
 225 335 l 1,44,-1
 225 266 l 1,45,-1
 360 266 l 2,40,41
EndSplineSet
Validated: 1
EndChar

StartChar: uni20B2
Encoding: 8370 8370 172
Width: 689
GlyphClass: 1
Flags: W
LayerCount: 2
Fore
SplineSet
218 -84 m 1,0,-1
 237 23 l 1,1,2
 178 48 178 48 138 92.5 c 128,-1,3
 98 137 98 137 77 203 c 128,-1,4
 56 269 56 269 56 357 c 0,5,6
 56 444 56 444 77 511 c 128,-1,7
 98 578 98 578 136.5 623 c 128,-1,8
 175 668 175 668 230 690.5 c 128,-1,9
 285 713 285 713 353 713 c 2,10,-1
 357 713 l 1,11,-1
 372 799 l 1,12,-1
 461 799 l 1,13,-1
 443 700 l 1,14,15
 487 689 487 689 532.5 656 c 128,-1,16
 578 623 578 623 610 556 c 1,17,-1
 519 508 l 1,18,19
 500 554 500 554 472.5 577 c 128,-1,20
 445 600 445 600 422 607 c 1,21,-1
 382 380 l 1,22,-1
 624 380 l 1,23,-1
 624 262 l 2,24,25
 624 187 624 187 598 137.5 c 128,-1,26
 572 88 572 88 532.5 58 c 128,-1,27
 493 28 493 28 445 15 c 128,-1,28
 397 2 397 2 353 2 c 0,29,30
 338 2 338 2 323 3 c 1,31,-1
 307 -84 l 1,32,-1
 218 -84 l 1,0,-1
223 566 m 0,33,34
 176 513 176 513 176 414 c 2,35,-1
 176 301 l 2,36,37
 176 233 176 233 198.5 188 c 128,-1,38
 221 143 221 143 258 121 c 1,39,-1
 345 618 l 1,40,41
 267 615 267 615 223 566 c 0,33,34
353 96 m 2,42,43
 426 96 426 96 471 135 c 128,-1,44
 516 174 516 174 516 248 c 2,45,-1
 516 285 l 1,46,-1
 366 285 l 1,47,-1
 333 96 l 1,48,-1
 353 96 l 2,42,43
EndSplineSet
Validated: 1
EndChar

StartChar: uni20B4
Encoding: 8372 8372 173
Width: 650
GlyphClass: 1
Flags: W
LayerCount: 2
Fore
SplineSet
332 -12 m 0,0,1
 280 -12 280 -12 238.5 3 c 128,-1,2
 197 18 197 18 168 46 c 128,-1,3
 139 74 139 74 124.5 110.5 c 128,-1,4
 110 147 110 147 110 190 c 0,5,6
 110 206 110 206 112.5 220 c 128,-1,7
 115 234 115 234 118 246 c 1,8,-1
 44 246 l 1,9,-1
 44 325 l 1,10,-1
 164 325 l 1,11,-1
 318 410 l 1,12,-1
 44 410 l 1,13,-1
 44 488 l 1,14,-1
 421 488 l 1,15,16
 424 498 424 498 426 509 c 128,-1,17
 428 520 428 520 428 532 c 0,18,19
 428 583 428 583 399.5 607 c 128,-1,20
 371 631 371 631 318 631 c 0,21,22
 279 631 279 631 244.5 617 c 128,-1,23
 210 603 210 603 182 570 c 1,24,-1
 119 640 l 1,25,26
 158 684 158 684 211.5 705.5 c 128,-1,27
 265 727 265 727 325 727 c 0,28,29
 373 727 373 727 412 713 c 128,-1,30
 451 699 451 699 478.5 674.5 c 128,-1,31
 506 650 506 650 521 616.5 c 128,-1,32
 536 583 536 583 536 543 c 0,33,34
 536 529 536 529 534 515 c 128,-1,35
 532 501 532 501 528 488 c 1,36,-1
 606 488 l 1,37,-1
 606 410 l 1,38,-1
 480 410 l 1,39,-1
 329 325 l 1,40,-1
 606 325 l 1,41,-1
 606 246 l 1,42,-1
 228 246 l 1,43,44
 217 223 217 223 217 196 c 0,45,46
 217 141 217 141 250 112.5 c 128,-1,47
 283 84 283 84 338 84 c 0,48,49
 377 84 377 84 413.5 99.5 c 128,-1,50
 450 115 450 115 489 158 c 1,51,-1
 552 87 l 1,52,53
 513 40 513 40 457.5 14 c 128,-1,54
 402 -12 402 -12 332 -12 c 0,0,1
EndSplineSet
Validated: 1
EndChar

StartChar: uni20B5
Encoding: 8373 8373 174
Width: 633
GlyphClass: 1
Flags: W
LayerCount: 2
Fore
SplineSet
218 -84 m 1,0,-1
 237 24 l 1,1,2
 177 50 177 50 138 94.5 c 128,-1,3
 99 139 99 139 77.5 205 c 128,-1,4
 56 271 56 271 56 357 c 256,5,6
 56 443 56 443 77 509 c 128,-1,7
 98 575 98 575 137 621 c 128,-1,8
 176 667 176 667 231 690 c 128,-1,9
 286 713 286 713 352 713 c 2,10,-1
 357 713 l 1,11,-1
 372 799 l 1,12,-1
 461 799 l 1,13,-1
 443 699 l 1,14,15
 483 688 483 688 522.5 659 c 128,-1,16
 562 630 562 630 593 574 c 1,17,-1
 508 517 l 1,18,19
 491 554 491 554 467.5 574.5 c 128,-1,20
 444 595 444 595 422 604 c 1,21,-1
 333 98 l 1,22,-1
 352 98 l 2,23,24
 408 98 408 98 448.5 126.5 c 128,-1,25
 489 155 489 155 511 206 c 1,26,-1
 595 148 l 1,27,28
 580 118 580 118 558.5 92 c 128,-1,29
 537 66 537 66 507 46 c 128,-1,30
 477 26 477 26 439 14 c 128,-1,31
 401 2 401 2 352 2 c 0,32,33
 338 2 338 2 323 3 c 1,34,-1
 307 -84 l 1,35,-1
 218 -84 l 1,0,-1
280 604 m 0,36,37
 247 590 247 590 224 564 c 128,-1,38
 201 538 201 538 188 500 c 128,-1,39
 175 462 175 462 175 416 c 2,40,-1
 175 301 l 2,41,42
 175 255 175 255 188 217.5 c 128,-1,43
 201 180 201 180 220 158 c 128,-1,44
 239 136 239 136 259 124 c 1,45,-1
 345 618 l 1,46,47
 309 616 309 616 280 604 c 0,36,37
EndSplineSet
Validated: 1
EndChar

StartChar: uni20B8
Encoding: 8376 8376 175
Width: 621
GlyphClass: 1
Flags: W
LayerCount: 2
Fore
SplineSet
40 628 m 1,0,-1
 40 715 l 1,1,-1
 582 715 l 1,2,-1
 582 628 l 1,3,-1
 40 628 l 1,0,-1
369 453 m 1,4,-1
 369 0 l 1,5,-1
 253 0 l 1,6,-1
 253 453 l 1,7,-1
 40 453 l 1,8,-1
 40 540 l 1,9,-1
 582 540 l 1,10,-1
 582 453 l 1,11,-1
 369 453 l 1,4,-1
EndSplineSet
Validated: 1
EndChar

StartChar: uni20B9
Encoding: 8377 8377 176
Width: 629
GlyphClass: 1
Flags: W
LayerCount: 2
Fore
SplineSet
383 0 m 1,0,-1
 182 269 l 1,1,-1
 58 269 l 1,2,-1
 58 356 l 1,3,-1
 259 356 l 2,4,5
 309 356 309 356 339 379 c 128,-1,6
 369 402 369 402 371 449 c 1,7,-1
 58 449 l 1,8,-1
 58 536 l 1,9,-1
 371 536 l 1,10,11
 368 585 368 585 338 606.5 c 128,-1,12
 308 628 308 628 259 628 c 2,13,-1
 58 628 l 1,14,-1
 58 715 l 1,15,-1
 594 715 l 1,16,-1
 594 628 l 1,17,-1
 408 628 l 1,18,-1
 408 624 l 1,19,20
 417 623 417 623 427.5 617.5 c 128,-1,21
 438 612 438 612 448.5 602.5 c 128,-1,22
 459 593 459 593 467 576.5 c 128,-1,23
 475 560 475 560 480 536 c 1,24,-1
 594 536 l 1,25,-1
 594 449 l 1,26,-1
 482 449 l 1,27,28
 473 377 473 377 429.5 331.5 c 128,-1,29
 386 286 386 286 309 276 c 1,30,-1
 523 0 l 1,31,-1
 383 0 l 1,0,-1
EndSplineSet
Validated: 1
EndChar

StartChar: uni20BA
Encoding: 8378 8378 177
Width: 623
GlyphClass: 1
Flags: W
LayerCount: 2
Fore
SplineSet
111 239 m 1,0,-1
 15 193 l 1,1,-1
 15 272 l 1,2,-1
 111 318 l 1,3,-1
 111 401 l 1,4,-1
 15 355 l 1,5,-1
 15 435 l 1,6,-1
 111 481 l 1,7,-1
 111 715 l 1,8,-1
 227 715 l 1,9,-1
 227 537 l 1,10,-1
 420 629 l 1,11,-1
 420 549 l 1,12,-1
 227 457 l 1,13,-1
 227 374 l 1,14,-1
 420 466 l 1,15,-1
 420 386 l 1,16,-1
 227 294 l 1,17,-1
 227 96 l 1,18,-1
 311 96 l 2,19,20
 390 96 390 96 432 149 c 128,-1,21
 474 202 474 202 474 312 c 1,22,-1
 586 312 l 1,23,24
 586 246 586 246 570 189.5 c 128,-1,25
 554 133 554 133 521 90.5 c 128,-1,26
 488 48 488 48 438.5 24 c 128,-1,27
 389 0 389 0 323 0 c 2,28,-1
 111 0 l 1,29,-1
 111 239 l 1,0,-1
EndSplineSet
Validated: 1
EndChar

StartChar: uni20BD
Encoding: 8381 8381 178
Width: 654
GlyphClass: 1
Flags: W
LayerCount: 2
Fore
SplineSet
225 124 m 1,0,-1
 225 0 l 1,1,-1
 110 0 l 1,2,-1
 110 124 l 1,3,-1
 25 124 l 1,4,-1
 25 211 l 1,5,-1
 110 211 l 1,6,-1
 110 303 l 1,7,-1
 25 303 l 1,8,-1
 25 390 l 1,9,-1
 110 390 l 1,10,-1
 110 715 l 1,11,-1
 409 715 l 2,12,13
 507 715 507 715 561 660.5 c 128,-1,14
 615 606 615 606 615 509 c 256,15,16
 615 412 615 412 561 357.5 c 128,-1,17
 507 303 507 303 409 303 c 2,18,-1
 225 303 l 1,19,-1
 225 211 l 1,20,-1
 480 211 l 1,21,-1
 480 124 l 1,22,-1
 225 124 l 1,0,-1
225 390 m 1,23,-1
 400 390 l 2,24,25
 445 390 445 390 469.5 412.5 c 128,-1,26
 494 435 494 435 494 478 c 2,27,-1
 494 529 l 2,28,29
 494 572 494 572 469.5 594.5 c 128,-1,30
 445 617 445 617 400 617 c 2,31,-1
 225 617 l 1,32,-1
 225 390 l 1,23,-1
EndSplineSet
Validated: 1
EndChar

StartChar: uni20BF
Encoding: 8383 8383 179
Width: 667
GlyphClass: 1
Flags: W
LayerCount: 2
Fore
SplineSet
349 22 m 1,0,-1
 285 22 l 1,1,-1
 285 -84 l 1,2,-1
 196 -84 l 1,3,-1
 196 22 l 1,4,-1
 88 22 l 1,5,-1
 88 693 l 1,6,-1
 196 693 l 1,7,-1
 196 799 l 1,8,-1
 285 799 l 1,9,-1
 285 693 l 1,10,-1
 349 693 l 1,11,-1
 349 799 l 1,12,-1
 438 799 l 1,13,-1
 438 692 l 1,14,15
 509 682 509 682 548.5 636.5 c 128,-1,16
 588 591 588 591 588 520 c 0,17,18
 588 451 588 451 554 418 c 128,-1,19
 520 385 520 385 464 377 c 1,20,-1
 464 371 l 1,21,22
 493 368 493 368 520 358.5 c 128,-1,23
 547 349 547 349 568 330.5 c 128,-1,24
 589 312 589 312 601 284 c 128,-1,25
 613 256 613 256 613 215 c 0,26,27
 613 175 613 175 600 139.5 c 128,-1,28
 587 104 587 104 563.5 78 c 128,-1,29
 540 52 540 52 508 37.5 c 128,-1,30
 476 23 476 23 438 22 c 1,31,-1
 438 -84 l 1,32,-1
 349 -84 l 1,33,-1
 349 22 l 1,0,-1
199 409 m 1,34,-1
 389 409 l 2,35,36
 472 409 472 409 472 486 c 2,37,-1
 472 518 l 2,38,39
 472 596 472 596 389 596 c 2,40,-1
 199 596 l 1,41,-1
 199 409 l 1,34,-1
199 119 m 1,42,-1
 402 119 l 2,43,44
 446 119 446 119 472 140 c 128,-1,45
 498 161 498 161 498 202 c 2,46,-1
 498 233 l 2,47,48
 498 274 498 274 472 295 c 128,-1,49
 446 316 446 316 402 316 c 2,50,-1
 199 316 l 1,51,-1
 199 119 l 1,42,-1
EndSplineSet
Validated: 1
EndChar

StartChar: fi
Encoding: 64257 64257 180
Width: 615
GlyphClass: 3
Flags: W
LayerCount: 2
Fore
SplineSet
108 441 m 1,0,-1
 27 441 l 1,1,-1
 27 532 l 1,2,-1
 108 532 l 1,3,-1
 108 621 l 2,4,5
 108 686 108 686 141.5 722 c 128,-1,6
 175 758 175 758 243 758 c 2,7,-1
 331 758 l 1,8,-1
 331 667 l 1,9,-1
 219 667 l 1,10,-1
 219 532 l 1,11,-1
 536 532 l 1,12,-1
 536 0 l 1,13,-1
 424 0 l 1,14,-1
 424 441 l 1,15,-1
 219 441 l 1,16,-1
 219 0 l 1,17,-1
 108 0 l 1,18,-1
 108 441 l 1,0,-1
480 628 m 256,19,20
 445 628 445 628 429.5 644 c 128,-1,21
 414 660 414 660 414 686 c 2,22,-1
 414 703 l 2,23,24
 414 729 414 729 429.5 745.5 c 128,-1,25
 445 762 445 762 480 762 c 256,26,27
 515 762 515 762 530.5 745.5 c 128,-1,28
 546 729 546 729 546 703 c 2,29,-1
 546 686 l 2,30,31
 546 660 546 660 530.5 644 c 128,-1,32
 515 628 515 628 480 628 c 256,19,20
EndSplineSet
Validated: 1
Ligature2: "'liga' Standard Ligatures lookup 19 subtable" f i
EndChar

StartChar: aogonek
Encoding: 261 261 191
Width: 562
GlyphClass: 2
Flags: W
AnchorPoint: "Anchor-2" 265 553 basechar 0
LayerCount: 2
Fore
SplineSet
532 0 m 1,0,1
 497 -27 497 -27 476.5 -45 c 128,-1,2
 456 -63 456 -63 444 -76.5 c 128,-1,3
 432 -90 432 -90 428.5 -99.5 c 128,-1,4
 425 -109 425 -109 425 -118 c 0,5,6
 425 -136 425 -136 435 -143.5 c 128,-1,7
 445 -151 445 -151 460 -151 c 0,8,9
 476 -151 476 -151 489 -143 c 128,-1,10
 502 -135 502 -135 512 -124 c 1,11,-1
 558 -169 l 1,12,13
 547 -189 547 -189 521 -201.5 c 128,-1,14
 495 -214 495 -214 454 -214 c 0,15,16
 431 -214 431 -214 411 -209.5 c 128,-1,17
 391 -205 391 -205 375.5 -195 c 128,-1,18
 360 -185 360 -185 351.5 -170 c 128,-1,19
 343 -155 343 -155 343 -132 c 0,20,21
 343 -91 343 -91 375 -61.5 c 128,-1,22
 407 -32 407 -32 456 -3 c 1,23,-1
 454 1 l 1,24,25
 418 6 418 6 398.5 29.5 c 128,-1,26
 379 53 379 53 374 89 c 1,27,-1
 369 89 l 1,28,29
 354 39 354 39 312.5 13.5 c 128,-1,30
 271 -12 271 -12 213 -12 c 0,31,32
 130 -12 130 -12 85.5 31 c 128,-1,33
 41 74 41 74 41 146 c 0,34,35
 41 226 41 226 99 266 c 128,-1,36
 157 306 157 306 268 306 c 2,37,-1
 365 306 l 1,38,-1
 365 351 l 2,39,40
 365 400 365 400 338 427 c 128,-1,41
 311 454 311 454 255 454 c 0,42,43
 208 454 208 454 178 433.5 c 128,-1,44
 148 413 148 413 128 381 c 1,45,-1
 61 441 l 1,46,47
 88 486 88 486 136 515.5 c 128,-1,48
 184 545 184 545 262 545 c 0,49,50
 365 545 365 545 420.5 497 c 128,-1,51
 476 449 476 449 476 358 c 2,52,-1
 476 91 l 1,53,-1
 532 91 l 1,54,-1
 532 0 l 1,0,1
270 234 m 2,55,56
 154 234 154 234 155 163 c 2,57,-1
 155 144 l 2,58,59
 155 108 155 108 179 90.5 c 128,-1,60
 203 73 203 73 245 73 c 0,61,62
 297 73 297 73 331 96 c 128,-1,63
 365 119 365 119 365 158 c 2,64,-1
 365 234 l 1,65,-1
 270 234 l 2,55,56
EndSplineSet
Validated: 33
Substitution2: "'salt' Stylistic Alternatives lookup 18 subtable" aogonek.alt01
Substitution2: "'ss01' Style Set 1 lookup 13 subtable" aogonek.alt01
Substitution2: "'aalt' Access All Alternates lookup 0 subtable" aogonek.alt01
EndChar

StartChar: aogonek.alt01
Encoding: 65551 -1 214
Width: 606
GlyphClass: 2
Flags: W
AnchorPoint: "Anchor-2" 301 553 basechar 0
LayerCount: 2
Fore
SplineSet
526 0 m 1,0,1
 491 -27 491 -27 470.5 -45 c 128,-1,2
 450 -63 450 -63 438 -76.5 c 128,-1,3
 426 -90 426 -90 422.5 -99.5 c 128,-1,4
 419 -109 419 -109 419 -118 c 0,5,6
 419 -136 419 -136 429 -143.5 c 128,-1,7
 439 -151 439 -151 454 -151 c 0,8,9
 470 -151 470 -151 483 -143 c 128,-1,10
 496 -135 496 -135 506 -124 c 1,11,-1
 552 -169 l 1,12,13
 541 -189 541 -189 514.5 -201.5 c 128,-1,14
 488 -214 488 -214 447 -214 c 0,15,16
 424 -214 424 -214 404.5 -209.5 c 128,-1,17
 385 -205 385 -205 370 -195 c 128,-1,18
 355 -185 355 -185 346.5 -170 c 128,-1,19
 338 -155 338 -155 338 -132 c 0,20,21
 338 -91 338 -91 369 -61.5 c 128,-1,22
 400 -32 400 -32 449 -3 c 1,23,-1
 447 0 l 1,24,-1
 415 0 l 1,25,-1
 415 88 l 1,26,-1
 410 88 l 1,27,28
 393 41 393 41 353 14.5 c 128,-1,29
 313 -12 313 -12 260 -12 c 0,30,31
 159 -12 159 -12 103.5 61 c 128,-1,32
 48 134 48 134 48 266 c 256,33,34
 48 398 48 398 103.5 471.5 c 128,-1,35
 159 545 159 545 260 545 c 0,36,37
 313 545 313 545 352.5 519 c 128,-1,38
 392 493 392 493 410 444 c 1,39,-1
 415 444 l 1,40,-1
 415 532 l 1,41,-1
 526 532 l 1,42,-1
 526 0 l 1,0,1
294 84 m 0,43,44
 345 84 345 84 380 109 c 128,-1,45
 415 134 415 134 415 175 c 2,46,-1
 415 357 l 2,47,48
 415 398 415 398 380 423.5 c 128,-1,49
 345 449 345 449 294 449 c 0,50,51
 236 449 236 449 201 411.5 c 128,-1,52
 166 374 166 374 166 312 c 2,53,-1
 166 220 l 2,54,55
 166 159 166 159 201 121.5 c 128,-1,56
 236 84 236 84 294 84 c 0,43,44
EndSplineSet
Validated: 1
EndChar

StartChar: ae
Encoding: 230 230 228
Width: 885
GlyphClass: 2
Flags: W
AnchorPoint: "Anchor-2" 432 553 basechar 0
AnchorPoint: "Anchor-0" 432 0 basechar 0
LayerCount: 2
Fore
SplineSet
270 238 m 2,0,1
 154 236 154 236 155 165 c 2,2,-1
 155 146 l 2,3,4
 155 110 155 110 179 91.5 c 128,-1,5
 203 73 203 73 247 73 c 0,6,7
 296 73 296 73 330.5 96 c 128,-1,8
 365 119 365 119 365 158 c 2,9,-1
 365 238 l 1,10,-1
 270 238 l 2,0,1
724 311 m 1,11,-1
 724 322 l 2,12,13
 724 383 724 383 692 420.5 c 128,-1,14
 660 458 660 458 605 458 c 0,15,16
 576 458 576 458 552 447.5 c 128,-1,17
 528 437 528 437 511.5 418.5 c 128,-1,18
 495 400 495 400 485.5 374.5 c 128,-1,19
 476 349 476 349 476 318 c 2,20,-1
 476 311 l 1,21,-1
 724 311 l 1,11,-1
618 80 m 0,22,23
 667 80 667 80 701.5 101.5 c 128,-1,24
 736 123 736 123 758 159 c 1,25,-1
 823 95 l 1,26,27
 793 46 793 46 738.5 17 c 128,-1,28
 684 -12 684 -12 613 -12 c 0,29,30
 573 -12 573 -12 539 -2 c 128,-1,31
 505 8 505 8 479 24.5 c 128,-1,32
 453 41 453 41 436 61 c 128,-1,33
 419 81 419 81 412 100 c 1,34,-1
 406 100 l 1,35,36
 401 82 401 82 386 62 c 128,-1,37
 371 42 371 42 347.5 25.5 c 128,-1,38
 324 9 324 9 290 -1.5 c 128,-1,39
 256 -12 256 -12 213 -12 c 0,40,41
 132 -12 132 -12 86.5 32 c 128,-1,42
 41 76 41 76 41 146 c 0,43,44
 41 227 41 227 100.5 269 c 128,-1,45
 160 311 160 311 268 311 c 2,46,-1
 365 311 l 1,47,-1
 365 351 l 2,48,49
 365 400 365 400 338 427 c 128,-1,50
 311 454 311 454 256 454 c 0,51,52
 207 454 207 454 177.5 434 c 128,-1,53
 148 414 148 414 128 382 c 1,54,-1
 61 441 l 1,55,56
 88 486 88 486 136 515.5 c 128,-1,57
 184 545 184 545 262 545 c 0,58,59
 299 545 299 545 325.5 535.5 c 128,-1,60
 352 526 352 526 371 512 c 128,-1,61
 390 498 390 498 402 480 c 128,-1,62
 414 462 414 462 422 444 c 1,63,-1
 428 444 l 1,64,65
 436 462 436 462 452.5 480.5 c 128,-1,66
 469 499 469 499 492 513 c 128,-1,67
 515 527 515 527 545 536 c 128,-1,68
 575 545 575 545 611 545 c 0,69,70
 668 545 668 545 711.5 524.5 c 128,-1,71
 755 504 755 504 784 467.5 c 128,-1,72
 813 431 813 431 827.5 383 c 128,-1,73
 842 335 842 335 842 280 c 2,74,-1
 842 238 l 1,75,-1
 476 238 l 1,76,-1
 476 220 l 2,77,78
 476 159 476 159 513 119.5 c 128,-1,79
 550 80 550 80 618 80 c 0,22,23
EndSplineSet
Validated: 33
EndChar

StartChar: ccedilla
Encoding: 231 231 232
Width: 522
GlyphClass: 2
Flags: W
AnchorPoint: "Anchor-2" 282 553 basechar 0
LayerCount: 2
Fore
SplineSet
286 545 m 0,0,1
 366 545 366 545 417 509 c 128,-1,2
 468 473 468 473 492 414 c 1,3,-1
 399 371 l 1,4,5
 388 408 388 408 360 430 c 128,-1,6
 332 452 332 452 286 452 c 0,7,8
 225 452 225 452 193.5 413.5 c 128,-1,9
 162 375 162 375 162 313 c 2,10,-1
 162 218 l 2,11,12
 162 157 162 157 193 118.5 c 128,-1,13
 224 80 224 80 286 80 c 0,14,15
 335 80 335 80 364 104 c 128,-1,16
 393 128 393 128 411 168 c 1,17,-1
 496 123 l 1,18,19
 471 62 471 62 422.5 27.5 c 128,-1,20
 374 -7 374 -7 303 -12 c 1,21,-1
 294 -59 l 1,22,-1
 297 -63 l 1,23,24
 308 -60 308 -60 319 -58 c 128,-1,25
 330 -56 330 -56 341 -56 c 0,26,27
 371 -56 371 -56 392 -73 c 128,-1,28
 413 -90 413 -90 413 -126 c 0,29,30
 413 -150 413 -150 402.5 -166 c 128,-1,31
 392 -182 392 -182 375 -193 c 128,-1,32
 358 -204 358 -204 336 -209 c 128,-1,33
 314 -214 314 -214 290 -214 c 0,34,35
 244 -214 244 -214 216.5 -199.5 c 128,-1,36
 189 -185 189 -185 177 -171 c 1,37,-1
 220 -122 l 1,38,39
 229 -134 229 -134 245 -143 c 128,-1,40
 261 -152 261 -152 285 -152 c 0,41,42
 304 -152 304 -152 317 -144.5 c 128,-1,43
 330 -137 330 -137 330 -122 c 0,44,45
 330 -110 330 -110 315.5 -98 c 128,-1,46
 301 -86 301 -86 257 -81 c 2,47,-1
 231 -78 l 1,48,-1
 245 -9 l 1,49,50
 149 4 149 4 96.5 77 c 128,-1,51
 44 150 44 150 44 266 c 0,52,53
 44 329 44 329 60.5 381 c 128,-1,54
 77 433 77 433 107.5 469.5 c 128,-1,55
 138 506 138 506 183.5 525.5 c 128,-1,56
 229 545 229 545 286 545 c 0,0,1
EndSplineSet
Validated: 1
EndChar

StartChar: dcroat
Encoding: 273 273 236
Width: 609
GlyphClass: 2
Flags: W
AnchorPoint: "Anchor-0" 288 0 basechar 0
LayerCount: 2
Fore
SplineSet
415 88 m 1,0,-1
 410 88 l 1,1,2
 393 41 393 41 353 14.5 c 128,-1,3
 313 -12 313 -12 260 -12 c 0,4,5
 159 -12 159 -12 103.5 61 c 128,-1,6
 48 134 48 134 48 266 c 256,7,8
 48 398 48 398 103.5 471.5 c 128,-1,9
 159 545 159 545 260 545 c 0,10,11
 313 545 313 545 352.5 519 c 128,-1,12
 392 493 392 493 410 444 c 1,13,-1
 415 444 l 1,14,-1
 415 614 l 1,15,-1
 265 614 l 1,16,-1
 265 695 l 1,17,-1
 415 695 l 1,18,-1
 415 758 l 1,19,-1
 526 758 l 1,20,-1
 526 695 l 1,21,-1
 591 695 l 1,22,-1
 591 614 l 1,23,-1
 526 614 l 1,24,-1
 526 0 l 1,25,-1
 415 0 l 1,26,-1
 415 88 l 1,0,-1
294 84 m 0,27,28
 345 84 345 84 380 109 c 128,-1,29
 415 134 415 134 415 175 c 2,30,-1
 415 357 l 2,31,32
 415 398 415 398 380 423.5 c 128,-1,33
 345 449 345 449 294 449 c 0,34,35
 236 449 236 449 201 411.5 c 128,-1,36
 166 374 166 374 166 312 c 2,37,-1
 166 220 l 2,38,39
 166 159 166 159 201 121.5 c 128,-1,40
 236 84 236 84 294 84 c 0,27,28
EndSplineSet
Validated: 1
EndChar

StartChar: eth
Encoding: 240 240 237
Width: 587
GlyphClass: 2
Flags: W
AnchorPoint: "Anchor-0" 294 0 basechar 0
LayerCount: 2
Fore
SplineSet
454 721 m 1,0,-1
 376 669 l 1,1,2
 410 634 410 634 439.5 592.5 c 128,-1,3
 469 551 469 551 491 502.5 c 128,-1,4
 513 454 513 454 525.5 398.5 c 128,-1,5
 538 343 538 343 538 281 c 0,6,7
 538 206 538 206 520 151 c 128,-1,8
 502 96 502 96 469.5 60 c 128,-1,9
 437 24 437 24 392 6 c 128,-1,10
 347 -12 347 -12 293 -12 c 0,11,12
 235 -12 235 -12 189 7 c 128,-1,13
 143 26 143 26 111 61 c 128,-1,14
 79 96 79 96 62 145.5 c 128,-1,15
 45 195 45 195 45 255 c 0,16,17
 45 313 45 313 60.5 361 c 128,-1,18
 76 409 76 409 104.5 442.5 c 128,-1,19
 133 476 133 476 174 495 c 128,-1,20
 215 514 215 514 265 514 c 0,21,22
 318 514 318 514 354 487.5 c 128,-1,23
 390 461 390 461 410 414 c 1,24,-1
 416 417 l 1,25,26
 404 471 404 471 371 520.5 c 128,-1,27
 338 570 338 570 292 614 c 1,28,-1
 206 559 l 1,29,-1
 166 609 l 1,30,-1
 242 659 l 1,31,32
 207 687 207 687 170 711.5 c 128,-1,33
 133 736 133 736 95 758 c 1,34,-1
 266 758 l 1,35,36
 280 749 280 749 295.5 738 c 128,-1,37
 311 727 311 727 327 714 c 1,38,-1
 413 771 l 1,39,-1
 454 721 l 1,0,-1
292 77 m 256,40,41
 350 77 350 77 385.5 114.5 c 128,-1,42
 421 152 421 152 421 219 c 2,43,-1
 421 283 l 2,44,45
 421 351 421 351 385.5 388 c 128,-1,46
 350 425 350 425 292 425 c 256,47,48
 234 425 234 425 198.5 387.5 c 128,-1,49
 163 350 163 350 163 283 c 2,50,-1
 163 219 l 2,51,52
 163 151 163 151 198.5 114 c 128,-1,53
 234 77 234 77 292 77 c 256,40,41
EndSplineSet
Validated: 1
EndChar

StartChar: eogonek
Encoding: 281 281 248
Width: 568
GlyphClass: 2
Flags: W
AnchorPoint: "Anchor-2" 289 553 basechar 0
LayerCount: 2
Fore
SplineSet
355 -214 m 0,0,1
 333 -214 333 -214 313.5 -209.5 c 128,-1,2
 294 -205 294 -205 279 -195 c 128,-1,3
 264 -185 264 -185 255.5 -170 c 128,-1,4
 247 -155 247 -155 247 -132 c 256,5,6
 247 -109 247 -109 256 -91.5 c 128,-1,7
 265 -74 265 -74 280 -58.5 c 128,-1,8
 295 -43 295 -43 315 -30 c 128,-1,9
 335 -17 335 -17 356 -5 c 1,10,-1
 354 -1 l 1,11,12
 340 -6 340 -6 324 -9 c 128,-1,13
 308 -12 308 -12 288 -12 c 0,14,15
 231 -12 231 -12 185.5 7.5 c 128,-1,16
 140 27 140 27 109 63 c 128,-1,17
 78 99 78 99 61 151 c 128,-1,18
 44 203 44 203 44 266 c 256,19,20
 44 329 44 329 60.5 380.5 c 128,-1,21
 77 432 77 432 108.5 468.5 c 128,-1,22
 140 505 140 505 184.5 525 c 128,-1,23
 229 545 229 545 287 545 c 0,24,25
 346 545 346 545 390.5 524.5 c 128,-1,26
 435 504 435 504 465 467.5 c 128,-1,27
 495 431 495 431 509.5 383 c 128,-1,28
 524 335 524 335 524 280 c 2,29,-1
 524 238 l 1,30,-1
 160 238 l 1,31,-1
 160 220 l 2,32,33
 160 159 160 159 195.5 119.5 c 128,-1,34
 231 80 231 80 301 80 c 0,35,36
 349 80 349 80 384 101.5 c 128,-1,37
 419 123 419 123 440 159 c 1,38,-1
 506 95 l 1,39,40
 496 80 496 80 480.5 64.5 c 128,-1,41
 465 49 465 49 439 27 c 0,42,43
 421 9 421 9 401.5 -9.5 c 128,-1,44
 382 -28 382 -28 365.5 -45.5 c 128,-1,45
 349 -63 349 -63 338.5 -81 c 128,-1,46
 328 -99 328 -99 328 -118 c 0,47,48
 328 -135 328 -135 338 -143 c 128,-1,49
 348 -151 348 -151 362 -151 c 0,50,51
 377 -151 377 -151 390.5 -143 c 128,-1,52
 404 -135 404 -135 415 -124 c 1,53,-1
 460 -169 l 1,54,55
 449 -189 449 -189 423 -201.5 c 128,-1,56
 397 -214 397 -214 355 -214 c 0,0,1
407 311 m 1,57,-1
 407 322 l 2,58,59
 407 383 407 383 375.5 420.5 c 128,-1,60
 344 458 344 458 288 458 c 0,61,62
 230 458 230 458 195 419 c 128,-1,63
 160 380 160 380 160 318 c 2,64,-1
 160 311 l 1,65,-1
 407 311 l 1,57,-1
EndSplineSet
Validated: 1
EndChar

StartChar: uni0259
Encoding: 601 601 255
Width: 569
GlyphClass: 2
Flags: W
AnchorPoint: "Anchor-2" 276 553 basechar 0
AnchorPoint: "Anchor-0" 279 0 basechar 0
LayerCount: 2
Fore
SplineSet
410 295 m 1,0,-1
 410 312 l 2,1,2
 410 373 410 373 374.5 413 c 128,-1,3
 339 453 339 453 271 453 c 0,4,5
 220 453 220 453 187 430.5 c 128,-1,6
 154 408 154 408 133 373 c 1,7,-1
 67 437 l 1,8,9
 97 486 97 486 152.5 515.5 c 128,-1,10
 208 545 208 545 282 545 c 0,11,12
 338 545 338 545 383.5 525.5 c 128,-1,13
 429 506 429 506 460.5 469.5 c 128,-1,14
 492 433 492 433 508.5 381.5 c 128,-1,15
 525 330 525 330 525 266 c 256,16,17
 525 203 525 203 508.5 151 c 128,-1,18
 492 99 492 99 460.5 63 c 128,-1,19
 429 27 429 27 383.5 7.5 c 128,-1,20
 338 -12 338 -12 282 -12 c 0,21,22
 224 -12 224 -12 179 8.5 c 128,-1,23
 134 29 134 29 104 65 c 128,-1,24
 74 101 74 101 59 149.5 c 128,-1,25
 44 198 44 198 44 253 c 2,26,-1
 44 295 l 1,27,-1
 410 295 l 1,0,-1
161 211 m 2,28,29
 161 150 161 150 192.5 112.5 c 128,-1,30
 224 75 224 75 281 75 c 0,31,32
 310 75 310 75 333.5 85 c 128,-1,33
 357 95 357 95 374 113.5 c 128,-1,34
 391 132 391 132 400.5 157.5 c 128,-1,35
 410 183 410 183 410 214 c 2,36,-1
 410 221 l 1,37,-1
 161 221 l 1,38,-1
 161 211 l 2,28,29
EndSplineSet
Validated: 1
EndChar

StartChar: hbar
Encoding: 295 295 264
Width: 593
GlyphClass: 2
Flags: W
AnchorPoint: "Anchor-0" 300 0 basechar 0
LayerCount: 2
Fore
SplineSet
80 0 m 1,0,-1
 80 614 l 1,1,-1
 15 614 l 1,2,-1
 15 695 l 1,3,-1
 80 695 l 1,4,-1
 80 758 l 1,5,-1
 191 758 l 1,6,-1
 191 695 l 1,7,-1
 341 695 l 1,8,-1
 341 614 l 1,9,-1
 191 614 l 1,10,-1
 191 444 l 1,11,-1
 197 444 l 1,12,13
 214 487 214 487 249.5 516 c 128,-1,14
 285 545 285 545 346 545 c 0,15,16
 429 545 429 545 474 491 c 128,-1,17
 519 437 519 437 519 338 c 2,18,-1
 519 0 l 1,19,-1
 408 0 l 1,20,-1
 408 325 l 2,21,22
 408 449 408 449 307 449 c 0,23,24
 285 449 285 449 264.5 443 c 128,-1,25
 244 437 244 437 227.5 426 c 128,-1,26
 211 415 211 415 201 397.5 c 128,-1,27
 191 380 191 380 191 357 c 2,28,-1
 191 0 l 1,29,-1
 80 0 l 1,0,-1
EndSplineSet
Validated: 1
EndChar

StartChar: dotlessi
Encoding: 305 305 266
Width: 271
GlyphClass: 2
Flags: W
AnchorPoint: "Anchor-2" 136 553 basechar 0
AnchorPoint: "Anchor-1" 191 0 basechar 0
AnchorPoint: "Anchor-0" 136 0 basechar 0
LayerCount: 2
Fore
SplineSet
80 0 m 1,0,-1
 80 532 l 1,1,-1
 191 532 l 1,2,-1
 191 0 l 1,3,-1
 80 0 l 1,0,-1
EndSplineSet
Validated: 1
EndChar

StartChar: iogonek
Encoding: 303 303 276
Width: 271
GlyphClass: 1
Flags: W
LayerCount: 2
Fore
SplineSet
80 532 m 1,0,-1
 191 532 l 1,1,-1
 191 0 l 1,2,3
 156 -27 156 -27 135.5 -45 c 128,-1,4
 115 -63 115 -63 103 -76.5 c 128,-1,5
 91 -90 91 -90 87.5 -99.5 c 128,-1,6
 84 -109 84 -109 84 -118 c 0,7,8
 84 -136 84 -136 94 -143.5 c 128,-1,9
 104 -151 104 -151 119 -151 c 0,10,11
 135 -151 135 -151 148 -143 c 128,-1,12
 161 -135 161 -135 171 -124 c 1,13,-1
 218 -169 l 1,14,15
 207 -189 207 -189 181 -201.5 c 128,-1,16
 155 -214 155 -214 113 -214 c 0,17,18
 90 -214 90 -214 70 -209.5 c 128,-1,19
 50 -205 50 -205 35 -195 c 128,-1,20
 20 -185 20 -185 11.5 -170 c 128,-1,21
 3 -155 3 -155 3 -132 c 0,22,23
 3 -91 3 -91 35 -62 c 128,-1,24
 67 -33 67 -33 115 -4 c 1,25,-1
 114 0 l 1,26,-1
 80 0 l 1,27,-1
 80 532 l 1,0,-1
136 628 m 256,28,29
 101 628 101 628 85.5 644 c 128,-1,30
 70 660 70 660 70 686 c 2,31,-1
 70 703 l 2,32,33
 70 729 70 729 85.5 745.5 c 128,-1,34
 101 762 101 762 136 762 c 256,35,36
 171 762 171 762 186.5 745.5 c 128,-1,37
 202 729 202 729 202 703 c 2,38,-1
 202 686 l 2,39,40
 202 660 202 660 186.5 644 c 128,-1,41
 171 628 171 628 136 628 c 256,28,29
EndSplineSet
Validated: 1
EndChar

StartChar: uni0237
Encoding: 567 567 279
Width: 271
GlyphClass: 2
Flags: W
AnchorPoint: "Anchor-2" 136 553 basechar 0
LayerCount: 2
Fore
SplineSet
-3 -114 m 1,0,-1
 80 -114 l 1,1,-1
 80 532 l 1,2,-1
 191 532 l 1,3,-1
 191 -72 l 2,4,5
 191 -133 191 -133 160 -169 c 128,-1,6
 129 -205 129 -205 61 -205 c 2,7,-1
 -3 -205 l 1,8,-1
 -3 -114 l 1,0,-1
EndSplineSet
Validated: 1
EndChar

StartChar: kgreenlandic
Encoding: 312 312 282
Width: 560
GlyphClass: 2
Flags: W
AnchorPoint: "Anchor-2" 313 553 basechar 0
AnchorPoint: "Anchor-0" 313 0 basechar 0
LayerCount: 2
Fore
SplineSet
265 251 m 1,0,-1
 191 174 l 1,1,-1
 191 0 l 1,2,-1
 80 0 l 1,3,-1
 80 532 l 1,4,-1
 191 532 l 1,5,-1
 191 293 l 1,6,-1
 197 293 l 1,7,-1
 273 385 l 1,8,-1
 410 532 l 1,9,-1
 540 532 l 1,10,-1
 344 325 l 1,11,-1
 551 0 l 1,12,-1
 419 0 l 1,13,-1
 265 251 l 1,0,-1
EndSplineSet
Validated: 1
EndChar

StartChar: lslash
Encoding: 322 322 287
Width: 299
GlyphClass: 1
Flags: W
LayerCount: 2
Fore
SplineSet
269 0 m 1,0,-1
 198 0 l 2,1,2
 141 0 141 0 112.5 29 c 128,-1,3
 84 58 84 58 84 111 c 2,4,-1
 84 319 l 1,5,-1
 9 295 l 1,6,-1
 9 383 l 1,7,-1
 84 408 l 1,8,-1
 84 758 l 1,9,-1
 196 758 l 1,10,-1
 196 444 l 1,11,-1
 301 479 l 1,12,-1
 301 391 l 1,13,-1
 196 356 l 1,14,-1
 196 91 l 1,15,-1
 269 91 l 1,16,-1
 269 0 l 1,0,-1
EndSplineSet
Validated: 1
EndChar

StartChar: eng
Encoding: 331 331 293
Width: 593
GlyphClass: 2
Flags: W
AnchorPoint: "Anchor-2" 300 553 basechar 0
LayerCount: 2
Fore
SplineSet
325 -114 m 1,0,-1
 408 -114 l 1,1,-1
 408 325 l 2,2,3
 408 449 408 449 307 449 c 0,4,5
 285 449 285 449 264.5 443 c 128,-1,6
 244 437 244 437 227.5 426 c 128,-1,7
 211 415 211 415 201 398 c 128,-1,8
 191 381 191 381 191 357 c 2,9,-1
 191 0 l 1,10,-1
 80 0 l 1,11,-1
 80 532 l 1,12,-1
 191 532 l 1,13,-1
 191 444 l 1,14,-1
 197 444 l 1,15,16
 214 487 214 487 249.5 516 c 128,-1,17
 285 545 285 545 346 545 c 0,18,19
 428 545 428 545 473.5 491 c 128,-1,20
 519 437 519 437 519 338 c 2,21,-1
 519 -73 l 2,22,23
 519 -134 519 -134 488.5 -169.5 c 128,-1,24
 458 -205 458 -205 390 -205 c 2,25,-1
 325 -205 l 1,26,-1
 325 -114 l 1,0,-1
EndSplineSet
Validated: 1
EndChar

StartChar: oslash
Encoding: 248 248 304
Width: 583
GlyphClass: 2
Flags: W
AnchorPoint: "Anchor-2" 291 553 basechar 0
AnchorPoint: "Anchor-0" 291 0 basechar 0
LayerCount: 2
Fore
SplineSet
27 1 m 1,0,-1
 95 86 l 1,1,2
 71 122 71 122 59 166.5 c 128,-1,3
 47 211 47 211 47 266 c 0,4,5
 47 329 47 329 64.5 381 c 128,-1,6
 82 433 82 433 113.5 469.5 c 128,-1,7
 145 506 145 506 191 525.5 c 128,-1,8
 237 545 237 545 292 545 c 0,9,10
 373 545 373 545 433 502 c 1,11,-1
 496 578 l 1,12,-1
 557 531 l 1,13,-1
 487 445 l 1,14,15
 511 410 511 410 524 365.5 c 128,-1,16
 537 321 537 321 537 266 c 0,17,18
 537 203 537 203 519.5 151 c 128,-1,19
 502 99 502 99 470 63 c 128,-1,20
 438 27 438 27 392.5 7.5 c 128,-1,21
 347 -12 347 -12 292 -12 c 0,22,23
 250 -12 250 -12 214.5 -1.5 c 128,-1,24
 179 9 179 9 151 30 c 1,25,-1
 88 -45 l 1,26,-1
 27 1 l 1,0,-1
292 77 m 0,27,28
 350 77 350 77 385.5 114.5 c 128,-1,29
 421 152 421 152 421 223 c 2,30,-1
 421 309 l 2,31,32
 421 337 421 337 415 360 c 1,33,-1
 207 105 l 1,34,35
 239 77 239 77 292 77 c 0,27,28
163 223 m 2,36,37
 163 194 163 194 169 172 c 1,38,-1
 377 426 l 1,39,40
 342 456 342 456 292 456 c 0,41,42
 234 456 234 456 198.5 418.5 c 128,-1,43
 163 381 163 381 163 309 c 2,44,-1
 163 223 l 2,36,37
EndSplineSet
Validated: 1
EndChar

StartChar: ohorn
Encoding: 417 417 307
Width: 576
GlyphClass: 2
Flags: W
AnchorPoint: "Anchor-2" 287 553 basechar 0
AnchorPoint: "Anchor-0" 287 0 basechar 0
LayerCount: 2
Fore
SplineSet
547 644 m 1,0,-1
 547 546 l 2,1,2
 547 507 547 507 530.5 486 c 128,-1,3
 514 465 514 465 470 465 c 1,4,5
 506 422 506 422 519 374 c 128,-1,6
 532 326 532 326 532 267 c 0,7,8
 532 204 532 204 515 152 c 128,-1,9
 498 100 498 100 466 64 c 128,-1,10
 434 28 434 28 389 8 c 128,-1,11
 344 -12 344 -12 289 -12 c 256,12,13
 234 -12 234 -12 188 8 c 128,-1,14
 142 28 142 28 110.5 64 c 128,-1,15
 79 100 79 100 61.5 152 c 128,-1,16
 44 204 44 204 44 267 c 0,17,18
 44 332 44 332 61.5 383 c 128,-1,19
 79 434 79 434 110.5 470 c 128,-1,20
 142 506 142 506 187.5 525.5 c 128,-1,21
 233 545 233 545 289 545 c 0,22,23
 332 545 332 545 371 532 c 1,24,-1
 451 532 l 1,25,-1
 451 644 l 1,26,-1
 547 644 l 1,0,-1
289 80 m 256,27,28
 346 80 346 80 380.5 116 c 128,-1,29
 415 152 415 152 415 222 c 2,30,-1
 415 311 l 2,31,32
 415 382 415 382 380.5 417.5 c 128,-1,33
 346 453 346 453 289 453 c 256,34,35
 232 453 232 453 197 417.5 c 128,-1,36
 162 382 162 382 162 311 c 2,37,-1
 162 222 l 2,38,39
 162 151 162 151 197 115.5 c 128,-1,40
 232 80 232 80 289 80 c 256,27,28
EndSplineSet
Validated: 1
EndChar

StartChar: oe
Encoding: 339 339 318
Width: 943
GlyphClass: 2
Flags: W
AnchorPoint: "Anchor-2" 483 553 basechar 0
AnchorPoint: "Anchor-0" 483 0 basechar 0
LayerCount: 2
Fore
SplineSet
289 80 m 256,0,1
 346 80 346 80 381 115.5 c 128,-1,2
 416 151 416 151 416 221 c 2,3,-1
 416 311 l 2,4,5
 416 382 416 382 381 417.5 c 128,-1,6
 346 453 346 453 289 453 c 256,7,8
 232 453 232 453 197 417.5 c 128,-1,9
 162 382 162 382 162 311 c 2,10,-1
 162 221 l 2,11,12
 162 150 162 150 197 115 c 128,-1,13
 232 80 232 80 289 80 c 256,0,1
781 311 m 1,14,-1
 781 322 l 2,15,16
 781 383 781 383 749.5 420.5 c 128,-1,17
 718 458 718 458 663 458 c 0,18,19
 634 458 634 458 610 447.5 c 128,-1,20
 586 437 586 437 569 418.5 c 128,-1,21
 552 400 552 400 543 374.5 c 128,-1,22
 534 349 534 349 534 318 c 2,23,-1
 534 311 l 1,24,-1
 781 311 l 1,14,-1
669 -12 m 256,25,26
 595 -12 595 -12 546.5 16.5 c 128,-1,27
 498 45 498 45 477 87 c 1,28,-1
 471 87 l 1,29,30
 449 43 449 43 401.5 15.5 c 128,-1,31
 354 -12 354 -12 289 -12 c 0,32,33
 234 -12 234 -12 188 7.5 c 128,-1,34
 142 27 142 27 110.5 63 c 128,-1,35
 79 99 79 99 61.5 151 c 128,-1,36
 44 203 44 203 44 266 c 256,37,38
 44 329 44 329 61.5 381 c 128,-1,39
 79 433 79 433 110.5 469.5 c 128,-1,40
 142 506 142 506 187.5 525.5 c 128,-1,41
 233 545 233 545 289 545 c 0,42,43
 352 545 352 545 399 520 c 128,-1,44
 446 495 446 495 471 444 c 1,45,-1
 477 444 l 1,46,47
 500 490 500 490 548 517.5 c 128,-1,48
 596 545 596 545 664 545 c 0,49,50
 719 545 719 545 762.5 525.5 c 128,-1,51
 806 506 806 506 836.5 471 c 128,-1,52
 867 436 867 436 883 387.5 c 128,-1,53
 899 339 899 339 899 280 c 2,54,-1
 899 238 l 1,55,-1
 534 238 l 1,56,-1
 534 220 l 2,57,58
 534 159 534 159 570 119.5 c 128,-1,59
 606 80 606 80 676 80 c 0,60,61
 725 80 725 80 759 101.5 c 128,-1,62
 793 123 793 123 816 160 c 1,63,-1
 882 95 l 1,64,65
 852 46 852 46 797.5 17 c 128,-1,66
 743 -12 743 -12 669 -12 c 256,25,26
EndSplineSet
Validated: 1
EndChar

StartChar: scedilla
Encoding: 351 351 324
Width: 505
GlyphClass: 2
Flags: W
AnchorPoint: "Anchor-2" 249 553 basechar 0
LayerCount: 2
Fore
SplineSet
262 -214 m 0,0,1
 216 -214 216 -214 189 -199.5 c 128,-1,2
 162 -185 162 -185 151 -171 c 1,3,-1
 193 -122 l 1,4,5
 202 -134 202 -134 217.5 -143 c 128,-1,6
 233 -152 233 -152 257 -152 c 0,7,8
 276 -152 276 -152 289 -144.5 c 128,-1,9
 302 -137 302 -137 302 -122 c 0,10,11
 302 -110 302 -110 288 -98 c 128,-1,12
 274 -86 274 -86 229 -81 c 2,13,-1
 204 -78 l 1,14,-1
 217 -11 l 1,15,16
 156 -6 156 -6 111 20 c 128,-1,17
 66 46 66 46 33 88 c 1,18,-1
 104 154 l 1,19,20
 134 118 134 118 170.5 98 c 128,-1,21
 207 78 207 78 255 78 c 0,22,23
 304 78 304 78 328 97 c 128,-1,24
 352 116 352 116 352 150 c 0,25,26
 352 177 352 177 335 193.5 c 128,-1,27
 318 210 318 210 276 216 c 2,28,-1
 227 222 l 2,29,30
 145 233 145 233 98.5 270 c 128,-1,31
 52 307 52 307 52 381 c 0,32,33
 52 420 52 420 66.5 450 c 128,-1,34
 81 480 81 480 107 501 c 128,-1,35
 133 522 133 522 169.5 533.5 c 128,-1,36
 206 545 206 545 250 545 c 0,37,38
 322 545 322 545 367.5 522.5 c 128,-1,39
 413 500 413 500 449 460 c 1,40,-1
 380 394 l 1,41,42
 360 419 360 419 326.5 437 c 128,-1,43
 293 455 293 455 250 455 c 0,44,45
 204 455 204 455 182 436.5 c 128,-1,46
 160 418 160 418 160 388 c 0,47,48
 160 357 160 357 179.5 342 c 128,-1,49
 199 327 199 327 242 319 c 2,50,-1
 291 313 l 2,51,52
 379 300 379 300 419.5 261.5 c 128,-1,53
 460 223 460 223 460 159 c 0,54,55
 460 87 460 87 410 41.5 c 128,-1,56
 360 -4 360 -4 275 -11 c 1,57,-1
 266 -59 l 1,58,-1
 269 -63 l 1,59,60
 280 -60 280 -60 291 -58 c 128,-1,61
 302 -56 302 -56 313 -56 c 0,62,63
 344 -56 344 -56 364.5 -73 c 128,-1,64
 385 -90 385 -90 385 -126 c 0,65,66
 385 -150 385 -150 375 -166 c 128,-1,67
 365 -182 365 -182 348 -193 c 128,-1,68
 331 -204 331 -204 309 -209 c 128,-1,69
 287 -214 287 -214 262 -214 c 0,0,1
EndSplineSet
Validated: 1
Substitution2: "'locl' Localized Forms in Latin lookup 3 subtable" scommaaccent
Substitution2: "'locl' Localized Forms in Latin lookup 2 subtable" scommaaccent
EndChar

StartChar: uni017F
Encoding: 383 383 327
Width: 299
GlyphClass: 1
Flags: W
LayerCount: 2
Fore
SplineSet
108 441 m 1,0,-1
 27 441 l 1,1,-1
 27 532 l 1,2,-1
 108 532 l 1,3,-1
 108 621 l 2,4,5
 108 686 108 686 141.5 722 c 128,-1,6
 175 758 175 758 243 758 c 2,7,-1
 331 758 l 1,8,-1
 331 667 l 1,9,-1
 219 667 l 1,10,-1
 219 0 l 1,11,-1
 108 0 l 1,12,-1
 108 441 l 1,0,-1
EndSplineSet
Validated: 1
EndChar

StartChar: germandbls
Encoding: 223 223 328
Width: 677
GlyphClass: 1
Flags: W
LayerCount: 2
Fore
SplineSet
651 163 m 0,0,1
 651 122 651 122 637.5 89.5 c 128,-1,2
 624 57 624 57 599 34.5 c 128,-1,3
 574 12 574 12 539 0 c 128,-1,4
 504 -12 504 -12 461 -12 c 0,5,6
 398 -12 398 -12 352 9 c 128,-1,7
 306 30 306 30 275 70 c 1,8,-1
 343 135 l 1,9,10
 392 76 392 76 463 76 c 0,11,12
 502 76 502 76 524.5 95 c 128,-1,13
 547 114 547 114 547 150 c 0,14,15
 547 180 547 180 531.5 197.5 c 128,-1,16
 516 215 516 215 477 225 c 2,17,-1
 445 233 l 2,18,19
 415 241 415 241 391 253 c 128,-1,20
 367 265 367 265 349 282.5 c 128,-1,21
 331 300 331 300 320.5 325 c 128,-1,22
 310 350 310 350 310 384 c 0,23,24
 310 451 310 451 354.5 490 c 128,-1,25
 399 529 399 529 476 538 c 1,26,-1
 476 542 l 2,27,28
 476 682 476 682 347 682 c 0,29,30
 219 682 219 682 219 542 c 2,31,-1
 219 0 l 1,32,-1
 108 0 l 1,33,-1
 108 441 l 1,34,-1
 27 441 l 1,35,-1
 27 532 l 1,36,-1
 108 532 l 1,37,-1
 108 537 l 2,38,39
 108 646 108 646 171 708 c 128,-1,40
 234 770 234 770 346 770 c 0,41,42
 400 770 400 770 443.5 753.5 c 128,-1,43
 487 737 487 737 518 707.5 c 128,-1,44
 549 678 549 678 565.5 634.5 c 128,-1,45
 582 591 582 591 582 538 c 2,46,-1
 582 460 l 1,47,-1
 529 460 l 2,48,49
 472 460 472 460 443.5 444.5 c 128,-1,50
 415 429 415 429 415 392 c 0,51,52
 415 359 415 359 434 345 c 128,-1,53
 453 331 453 331 488 321 c 2,54,-1
 519 311 l 2,55,56
 587 294 587 294 619 259 c 128,-1,57
 651 224 651 224 651 163 c 0,0,1
EndSplineSet
Validated: 1
Substitution2: "'salt' Stylistic Alternatives lookup 18 subtable" germandbls.alt01
Substitution2: "'ss05' Style Set 5 lookup 17 subtable" germandbls.alt01
Substitution2: "'aalt' Access All Alternates lookup 0 subtable" germandbls.alt01
EndChar

StartChar: germandbls.alt01
Encoding: 65569 -1 329
Width: 590
GlyphClass: 1
Flags: W
LayerCount: 2
Fore
SplineSet
80 0 m 1,0,-1
 80 623 l 2,1,2
 80 682 80 682 112.5 720 c 128,-1,3
 145 758 145 758 214 758 c 2,4,-1
 343 758 l 1,5,-1
 343 667 l 1,6,-1
 188 667 l 1,7,-1
 188 532 l 1,8,-1
 535 532 l 1,9,-1
 535 447 l 1,10,-1
 374 224 l 1,11,12
 466 213 466 213 517.5 163 c 128,-1,13
 569 113 569 113 569 19 c 0,14,15
 569 -93 569 -93 499 -149 c 128,-1,16
 429 -205 429 -205 309 -205 c 2,17,-1
 245 -205 l 1,18,-1
 245 -114 l 1,19,-1
 303 -114 l 2,20,21
 381 -116 381 -116 417.5 -86 c 128,-1,22
 454 -56 454 -56 454 8 c 2,23,-1
 454 28 l 2,24,25
 454 91 454 91 416 117.5 c 128,-1,26
 378 144 378 144 294 144 c 2,27,-1
 274 144 l 1,28,-1
 274 234 l 1,29,-1
 422 441 l 1,30,-1
 188 441 l 1,31,-1
 188 0 l 1,32,-1
 80 0 l 1,0,-1
EndSplineSet
Validated: 33
EndChar

StartChar: tbar
Encoding: 359 359 330
Width: 380
GlyphClass: 2
Flags: W
AnchorPoint: "Anchor-0" 228 0 basechar 0
LayerCount: 2
Fore
SplineSet
328 0 m 1,0,-1
 230 0 l 2,1,2
 172 0 172 0 142.5 30 c 128,-1,3
 113 60 113 60 113 116 c 2,4,-1
 113 242 l 1,5,-1
 47 242 l 1,6,-1
 47 323 l 1,7,-1
 113 323 l 1,8,-1
 113 441 l 1,9,-1
 31 441 l 1,10,-1
 31 532 l 1,11,-1
 75 532 l 2,12,13
 104 532 104 532 114 544.5 c 128,-1,14
 124 557 124 557 124 585 c 2,15,-1
 124 678 l 1,16,-1
 224 678 l 1,17,-1
 224 532 l 1,18,-1
 336 532 l 1,19,-1
 336 441 l 1,20,-1
 224 441 l 1,21,-1
 224 323 l 1,22,-1
 315 323 l 1,23,-1
 315 242 l 1,24,-1
 224 242 l 1,25,-1
 224 91 l 1,26,-1
 328 91 l 1,27,-1
 328 0 l 1,0,-1
EndSplineSet
Validated: 1
EndChar

StartChar: uni0163
Encoding: 355 355 333
Width: 373
GlyphClass: 1
Flags: W
LayerCount: 2
Fore
SplineSet
239 -214 m 0,0,1
 192 -214 192 -214 164.5 -199.5 c 128,-1,2
 137 -185 137 -185 126 -171 c 1,3,-1
 169 -122 l 1,4,5
 178 -134 178 -134 194 -143 c 128,-1,6
 210 -152 210 -152 233 -152 c 0,7,8
 252 -152 252 -152 265.5 -144.5 c 128,-1,9
 279 -137 279 -137 279 -122 c 0,10,11
 279 -110 279 -110 264.5 -98 c 128,-1,12
 250 -86 250 -86 206 -81 c 2,13,-1
 180 -78 l 1,14,-1
 196 2 l 1,15,16
 153 10 153 10 131.5 39.5 c 128,-1,17
 110 69 110 69 110 116 c 2,18,-1
 110 441 l 1,19,-1
 27 441 l 1,20,-1
 27 532 l 1,21,-1
 72 532 l 2,22,23
 100 532 100 532 110.5 544.5 c 128,-1,24
 121 557 121 557 121 585 c 2,25,-1
 121 678 l 1,26,-1
 221 678 l 1,27,-1
 221 532 l 1,28,-1
 333 532 l 1,29,-1
 333 441 l 1,30,-1
 221 441 l 1,31,-1
 221 91 l 1,32,-1
 325 91 l 1,33,-1
 325 0 l 1,34,-1
 254 0 l 1,35,-1
 242 -59 l 1,36,-1
 246 -63 l 1,37,38
 257 -60 257 -60 268 -58 c 128,-1,39
 279 -56 279 -56 290 -56 c 0,40,41
 320 -56 320 -56 340.5 -73 c 128,-1,42
 361 -90 361 -90 361 -126 c 0,43,44
 361 -150 361 -150 351 -166 c 128,-1,45
 341 -182 341 -182 324 -193 c 128,-1,46
 307 -204 307 -204 285.5 -209 c 128,-1,47
 264 -214 264 -214 239 -214 c 0,0,1
EndSplineSet
Validated: 1
Substitution2: "'locl' Localized Forms in Latin lookup 3 subtable" uni021B
Substitution2: "'locl' Localized Forms in Latin lookup 2 subtable" uni021B
EndChar

StartChar: thorn
Encoding: 254 254 334
Width: 606
GlyphClass: 1
Flags: W
LayerCount: 2
Fore
SplineSet
80 758 m 1,0,-1
 191 758 l 1,1,-1
 191 444 l 1,2,-1
 197 444 l 1,3,4
 214 492 214 492 253.5 518.5 c 128,-1,5
 293 545 293 545 346 545 c 0,6,7
 447 545 447 545 502.5 471.5 c 128,-1,8
 558 398 558 398 558 266 c 256,9,10
 558 134 558 134 502.5 61 c 128,-1,11
 447 -12 447 -12 346 -12 c 0,12,13
 293 -12 293 -12 253.5 14.5 c 128,-1,14
 214 41 214 41 197 88 c 1,15,-1
 191 88 l 1,16,-1
 191 -205 l 1,17,-1
 80 -205 l 1,18,-1
 80 758 l 1,0,-1
312 84 m 0,19,20
 370 84 370 84 405 121.5 c 128,-1,21
 440 159 440 159 440 220 c 2,22,-1
 440 312 l 2,23,24
 440 373 440 373 405.5 411 c 128,-1,25
 371 449 371 449 312 449 c 0,26,27
 261 449 261 449 226 423.5 c 128,-1,28
 191 398 191 398 191 357 c 2,29,-1
 191 175 l 2,30,31
 191 134 191 134 226 109 c 128,-1,32
 261 84 261 84 312 84 c 0,19,20
EndSplineSet
Validated: 1
EndChar

StartChar: uogonek
Encoding: 371 371 345
Width: 594
GlyphClass: 2
Flags: W
AnchorPoint: "Anchor-2" 295 553 basechar 0
LayerCount: 2
Fore
SplineSet
514 0 m 1,0,1
 479 -27 479 -27 458 -45 c 128,-1,2
 437 -63 437 -63 425.5 -76.5 c 128,-1,3
 414 -90 414 -90 410.5 -99.5 c 128,-1,4
 407 -109 407 -109 407 -118 c 0,5,6
 407 -136 407 -136 417 -143.5 c 128,-1,7
 427 -151 427 -151 441 -151 c 0,8,9
 458 -151 458 -151 471 -143 c 128,-1,10
 484 -135 484 -135 494 -124 c 1,11,-1
 541 -169 l 1,12,13
 530 -189 530 -189 503.5 -201.5 c 128,-1,14
 477 -214 477 -214 435 -214 c 0,15,16
 412 -214 412 -214 392.5 -209.5 c 128,-1,17
 373 -205 373 -205 358 -195 c 128,-1,18
 343 -185 343 -185 334.5 -170 c 128,-1,19
 326 -155 326 -155 326 -132 c 0,20,21
 326 -91 326 -91 357 -61.5 c 128,-1,22
 388 -32 388 -32 437 -3 c 1,23,-1
 436 0 l 1,24,-1
 402 0 l 1,25,-1
 402 88 l 1,26,-1
 398 88 l 1,27,28
 391 69 391 69 379.5 50.5 c 128,-1,29
 368 32 368 32 350 18 c 128,-1,30
 332 4 332 4 307 -4 c 128,-1,31
 282 -12 282 -12 249 -12 c 0,32,33
 166 -12 166 -12 120.5 41 c 128,-1,34
 75 94 75 94 75 194 c 2,35,-1
 75 532 l 1,36,-1
 186 532 l 1,37,-1
 186 208 l 2,38,39
 186 84 186 84 289 84 c 0,40,41
 311 84 311 84 331 89.5 c 128,-1,42
 351 95 351 95 367 106.5 c 128,-1,43
 383 118 383 118 392.5 135.5 c 128,-1,44
 402 153 402 153 402 176 c 2,45,-1
 402 532 l 1,46,-1
 514 532 l 1,47,-1
 514 0 l 1,0,1
EndSplineSet
Validated: 1
EndChar

StartChar: uhorn
Encoding: 432 432 348
Width: 594
GlyphClass: 2
Flags: W
AnchorPoint: "Anchor-2" 294 553 basechar 0
AnchorPoint: "Anchor-0" 292 0 basechar 0
LayerCount: 2
Fore
SplineSet
591 544 m 2,0,1
 591 506 591 506 575.5 484.5 c 128,-1,2
 560 463 560 463 514 463 c 1,3,-1
 514 0 l 1,4,-1
 402 0 l 1,5,-1
 402 88 l 1,6,-1
 398 88 l 1,7,8
 391 69 391 69 379.5 50.5 c 128,-1,9
 368 32 368 32 350 18 c 128,-1,10
 332 4 332 4 307 -4 c 128,-1,11
 282 -12 282 -12 249 -12 c 0,12,13
 166 -12 166 -12 120.5 41 c 128,-1,14
 75 94 75 94 75 194 c 2,15,-1
 75 532 l 1,16,-1
 186 532 l 1,17,-1
 186 208 l 2,18,19
 186 84 186 84 289 84 c 0,20,21
 311 84 311 84 331 89.5 c 128,-1,22
 351 95 351 95 367 106.5 c 128,-1,23
 383 118 383 118 392.5 135.5 c 128,-1,24
 402 153 402 153 402 176 c 2,25,-1
 402 532 l 1,26,-1
 495 532 l 1,27,-1
 495 644 l 1,28,-1
 591 644 l 1,29,-1
 591 544 l 2,0,1
EndSplineSet
Validated: 1
EndChar

StartChar: Aogonek
Encoding: 260 260 381
Width: 677
GlyphClass: 2
Flags: W
AnchorPoint: "Anchor-2" 337 715 basechar 0
LayerCount: 2
Fore
SplineSet
266 715 m 1,0,-1
 412 715 l 1,1,-1
 655 0 l 1,2,3
 619 -27 619 -27 598.5 -45 c 128,-1,4
 578 -63 578 -63 566 -76.5 c 128,-1,5
 554 -90 554 -90 550.5 -99.5 c 128,-1,6
 547 -109 547 -109 547 -118 c 0,7,8
 547 -136 547 -136 557 -143.5 c 128,-1,9
 567 -151 567 -151 582 -151 c 0,10,11
 598 -151 598 -151 611 -143 c 128,-1,12
 624 -135 624 -135 634 -124 c 1,13,-1
 680 -169 l 1,14,15
 669 -189 669 -189 642.5 -201.5 c 128,-1,16
 616 -214 616 -214 575 -214 c 0,17,18
 552 -214 552 -214 532.5 -209.5 c 128,-1,19
 513 -205 513 -205 497.5 -195 c 128,-1,20
 482 -185 482 -185 473.5 -170 c 128,-1,21
 465 -155 465 -155 465 -132 c 0,22,23
 465 -91 465 -91 496.5 -62 c 128,-1,24
 528 -33 528 -33 577 -4 c 1,25,-1
 575 0 l 1,26,-1
 535 0 l 1,27,-1
 470 194 l 1,28,-1
 203 194 l 1,29,-1
 140 0 l 1,30,-1
 23 0 l 1,31,-1
 266 715 l 1,0,-1
339 608 m 1,32,-1
 334 608 l 1,33,-1
 230 293 l 1,34,-1
 441 293 l 1,35,-1
 339 608 l 1,32,-1
EndSplineSet
Validated: 1
EndChar

StartChar: AE
Encoding: 198 198 395
Width: 955
GlyphClass: 2
Flags: W
AnchorPoint: "Anchor-2" 629 715 basechar 0
AnchorPoint: "Anchor-0" 508 0 basechar 0
LayerCount: 2
Fore
SplineSet
436 193 m 1,0,-1
 213 193 l 1,1,-1
 119 0 l 1,2,-1
 2 0 l 1,3,-1
 360 715 l 1,4,-1
 894 715 l 1,5,-1
 894 612 l 1,6,-1
 552 612 l 1,7,-1
 552 414 l 1,8,-1
 862 414 l 1,9,-1
 862 311 l 1,10,-1
 552 311 l 1,11,-1
 552 102 l 1,12,-1
 894 102 l 1,13,-1
 894 0 l 1,14,-1
 436 0 l 1,15,-1
 436 193 l 1,0,-1
419 612 m 1,16,-1
 260 293 l 1,17,-1
 436 293 l 1,18,-1
 436 612 l 1,19,-1
 419 612 l 1,16,-1
EndSplineSet
Validated: 1
EndChar

StartChar: Ccedilla
Encoding: 199 199 399
Width: 649
GlyphClass: 2
Flags: W
AnchorPoint: "Anchor-2" 353 715 basechar 0
LayerCount: 2
Fore
SplineSet
356 624 m 0,0,1
 273 624 273 624 226 567.5 c 128,-1,2
 179 511 179 511 179 412 c 2,3,-1
 179 303 l 2,4,5
 179 204 179 204 226 147.5 c 128,-1,6
 273 91 273 91 356 91 c 0,7,8
 421 91 421 91 461.5 124.5 c 128,-1,9
 502 158 502 158 521 210 c 1,10,-1
 614 154 l 1,11,12
 579 79 579 79 519 35.5 c 128,-1,13
 459 -8 459 -8 371 -12 c 1,14,-1
 361 -59 l 1,15,-1
 365 -63 l 1,16,17
 376 -60 376 -60 386.5 -58 c 128,-1,18
 397 -56 397 -56 409 -56 c 0,19,20
 439 -56 439 -56 459.5 -73 c 128,-1,21
 480 -90 480 -90 480 -126 c 0,22,23
 480 -150 480 -150 470 -166 c 128,-1,24
 460 -182 460 -182 443 -193 c 128,-1,25
 426 -204 426 -204 404 -209 c 128,-1,26
 382 -214 382 -214 357 -214 c 0,27,28
 311 -214 311 -214 284 -199.5 c 128,-1,29
 257 -185 257 -185 245 -171 c 1,30,-1
 288 -122 l 1,31,32
 297 -134 297 -134 313 -143 c 128,-1,33
 329 -152 329 -152 352 -152 c 0,34,35
 371 -152 371 -152 384 -144.5 c 128,-1,36
 397 -137 397 -137 397 -122 c 0,37,38
 397 -110 397 -110 383.5 -98 c 128,-1,39
 370 -86 370 -86 325 -81 c 2,40,-1
 299 -78 l 1,41,-1
 312 -9 l 1,42,43
 191 5 191 5 123.5 98 c 128,-1,44
 56 191 56 191 56 357 c 0,45,46
 56 447 56 447 76.5 516 c 128,-1,47
 97 585 97 585 136 632 c 128,-1,48
 175 679 175 679 231 703 c 128,-1,49
 287 727 287 727 356 727 c 0,50,51
 449 727 449 727 512 686 c 128,-1,52
 575 645 575 645 611 565 c 1,53,-1
 514 512 l 1,54,55
 496 563 496 563 457 593.5 c 128,-1,56
 418 624 418 624 356 624 c 0,0,1
EndSplineSet
Validated: 1
EndChar

StartChar: Dcroat
Encoding: 272 272 403
Width: 703
GlyphClass: 2
Flags: W
AnchorPoint: "Anchor-2" 326 715 basechar 0
AnchorPoint: "Anchor-0" 326 0 basechar 0
LayerCount: 2
Fore
SplineSet
92 328 m 1,0,-1
 13 328 l 1,1,-1
 13 416 l 1,2,-1
 92 416 l 1,3,-1
 92 715 l 1,4,-1
 345 715 l 2,5,6
 414 715 414 715 469.5 692.5 c 128,-1,7
 525 670 525 670 564.5 625.5 c 128,-1,8
 604 581 604 581 625.5 513.5 c 128,-1,9
 647 446 647 446 647 357 c 256,10,11
 647 268 647 268 625.5 201 c 128,-1,12
 604 134 604 134 564.5 89.5 c 128,-1,13
 525 45 525 45 469.5 22.5 c 128,-1,14
 414 0 414 0 345 0 c 2,15,-1
 92 0 l 1,16,-1
 92 328 l 1,0,-1
345 102 m 2,17,18
 425 102 425 102 474 152.5 c 128,-1,19
 523 203 523 203 523 300 c 2,20,-1
 523 415 l 2,21,22
 523 512 523 512 474 562 c 128,-1,23
 425 612 425 612 345 612 c 2,24,-1
 208 612 l 1,25,-1
 208 416 l 1,26,-1
 341 416 l 1,27,-1
 341 328 l 1,28,-1
 208 328 l 1,29,-1
 208 102 l 1,30,-1
 345 102 l 2,17,18
EndSplineSet
Validated: 1
EndChar

StartChar: Eogonek
Encoding: 280 280 415
Width: 607
GlyphClass: 2
Flags: W
AnchorPoint: "Anchor-2" 316 715 basechar 0
LayerCount: 2
Fore
SplineSet
88 715 m 1,0,-1
 546 715 l 1,1,-1
 546 612 l 1,2,-1
 204 612 l 1,3,-1
 204 414 l 1,4,-1
 514 414 l 1,5,-1
 514 311 l 1,6,-1
 204 311 l 1,7,-1
 204 102 l 1,8,-1
 546 102 l 1,9,-1
 546 0 l 1,10,11
 511 -27 511 -27 490 -45 c 128,-1,12
 469 -63 469 -63 457.5 -76.5 c 128,-1,13
 446 -90 446 -90 442.5 -99.5 c 128,-1,14
 439 -109 439 -109 439 -118 c 0,15,16
 439 -136 439 -136 449.5 -143.5 c 128,-1,17
 460 -151 460 -151 474 -151 c 0,18,19
 490 -151 490 -151 503 -143 c 128,-1,20
 516 -135 516 -135 526 -124 c 1,21,-1
 572 -169 l 1,22,23
 561 -189 561 -189 535 -201.5 c 128,-1,24
 509 -214 509 -214 468 -214 c 0,25,26
 445 -214 445 -214 425.5 -209.5 c 128,-1,27
 406 -205 406 -205 390.5 -195 c 128,-1,28
 375 -185 375 -185 366 -170 c 128,-1,29
 357 -155 357 -155 357 -132 c 0,30,31
 357 -91 357 -91 388.5 -61.5 c 128,-1,32
 420 -32 420 -32 469 -5 c 1,33,-1
 468 0 l 1,34,-1
 88 0 l 1,35,-1
 88 715 l 1,0,-1
EndSplineSet
Validated: 1
EndChar

StartChar: uni018F
Encoding: 399 399 422
Width: 729
GlyphClass: 2
Flags: W
AnchorPoint: "Anchor-2" 360 715 basechar 0
AnchorPoint: "Anchor-0" 364 0 basechar 0
LayerCount: 2
Fore
SplineSet
550 411 m 2,0,1
 550 460 550 460 536 499.5 c 128,-1,2
 522 539 522 539 497 566.5 c 128,-1,3
 472 594 472 594 437.5 609 c 128,-1,4
 403 624 403 624 364 624 c 0,5,6
 294 624 294 624 251 589.5 c 128,-1,7
 208 555 208 555 186 495 c 1,8,-1
 85 537 l 1,9,10
 100 577 100 577 125 611.5 c 128,-1,11
 150 646 150 646 184.5 671.5 c 128,-1,12
 219 697 219 697 264 712 c 128,-1,13
 309 727 309 727 364 727 c 0,14,15
 435 727 435 727 492 702.5 c 128,-1,16
 549 678 549 678 589.5 631 c 128,-1,17
 630 584 630 584 651.5 514.5 c 128,-1,18
 673 445 673 445 673 357 c 256,19,20
 673 269 673 269 651.5 200 c 128,-1,21
 630 131 630 131 589.5 84 c 128,-1,22
 549 37 549 37 491.5 12.5 c 128,-1,23
 434 -12 434 -12 364 -12 c 256,24,25
 293 -12 293 -12 236 11.5 c 128,-1,26
 179 35 179 35 139 81.5 c 128,-1,27
 99 128 99 128 77.5 197 c 128,-1,28
 56 266 56 266 56 357 c 2,29,-1
 56 392 l 1,30,-1
 550 392 l 1,31,-1
 550 411 l 2,0,1
178 297 m 1,32,33
 179 252 179 252 192.5 214 c 128,-1,34
 206 176 206 176 231 148.5 c 128,-1,35
 256 121 256 121 290 106 c 128,-1,36
 324 91 324 91 364 91 c 256,37,38
 404 91 404 91 438 106 c 128,-1,39
 472 121 472 121 497 148.5 c 128,-1,40
 522 176 522 176 535.5 214 c 128,-1,41
 549 252 549 252 550 297 c 1,42,-1
 178 297 l 1,32,33
EndSplineSet
Validated: 1
EndChar

StartChar: Hbar
Encoding: 294 294 427
Width: 739
GlyphClass: 2
Flags: W
AnchorPoint: "Anchor-2" 370 715 basechar 0
AnchorPoint: "Anchor-0" 370 0 basechar 0
LayerCount: 2
Fore
SplineSet
531 311 m 1,0,-1
 208 311 l 1,1,-1
 208 0 l 1,2,-1
 92 0 l 1,3,-1
 92 525 l 1,4,-1
 19 525 l 1,5,-1
 19 612 l 1,6,-1
 92 612 l 1,7,-1
 92 715 l 1,8,-1
 208 715 l 1,9,-1
 208 612 l 1,10,-1
 531 612 l 1,11,-1
 531 715 l 1,12,-1
 647 715 l 1,13,-1
 647 612 l 1,14,-1
 720 612 l 1,15,-1
 720 525 l 1,16,-1
 647 525 l 1,17,-1
 647 0 l 1,18,-1
 531 0 l 1,19,-1
 531 311 l 1,0,-1
531 414 m 1,20,-1
 531 525 l 1,21,-1
 208 525 l 1,22,-1
 208 414 l 1,23,-1
 531 414 l 1,20,-1
EndSplineSet
Validated: 1
EndChar

StartChar: Iogonek
Encoding: 302 302 439
Width: 425
GlyphClass: 2
Flags: W
AnchorPoint: "Anchor-2" 212 715 basechar 0
LayerCount: 2
Fore
SplineSet
57 94 m 1,0,-1
 155 94 l 1,1,-1
 155 621 l 1,2,-1
 57 621 l 1,3,-1
 57 715 l 1,4,-1
 369 715 l 1,5,-1
 369 621 l 1,6,-1
 270 621 l 1,7,-1
 270 94 l 1,8,-1
 369 94 l 1,9,-1
 369 0 l 1,10,11
 334 -27 334 -27 313 -45 c 128,-1,12
 292 -63 292 -63 280 -76.5 c 128,-1,13
 268 -90 268 -90 264.5 -99.5 c 128,-1,14
 261 -109 261 -109 261 -118 c 0,15,16
 261 -136 261 -136 271.5 -143.5 c 128,-1,17
 282 -151 282 -151 296 -151 c 0,18,19
 312 -151 312 -151 325 -143 c 128,-1,20
 338 -135 338 -135 348 -124 c 1,21,-1
 395 -169 l 1,22,23
 384 -189 384 -189 357.5 -201.5 c 128,-1,24
 331 -214 331 -214 290 -214 c 0,25,26
 267 -214 267 -214 247 -209.5 c 128,-1,27
 227 -205 227 -205 212.5 -195 c 128,-1,28
 198 -185 198 -185 189 -170 c 128,-1,29
 180 -155 180 -155 180 -132 c 0,30,31
 180 -92 180 -92 209.5 -63.5 c 128,-1,32
 239 -35 239 -35 291 -5 c 1,33,-1
 290 0 l 1,34,-1
 57 0 l 1,35,-1
 57 94 l 1,0,-1
EndSplineSet
Validated: 1
EndChar

StartChar: IJ
Encoding: 306 306 441
Width: 665
GlyphClass: 1
Flags: W
LayerCount: 2
Fore
SplineSet
582 715 m 1,0,-1
 582 224 l 2,1,2
 582 169 582 169 564.5 125.5 c 128,-1,3
 547 82 547 82 514.5 51 c 128,-1,4
 482 20 482 20 436 4 c 128,-1,5
 390 -12 390 -12 333 -12 c 0,6,7
 279 -12 279 -12 237.5 1.5 c 128,-1,8
 196 15 196 15 165.5 39 c 128,-1,9
 135 63 135 63 116 97 c 128,-1,10
 97 131 97 131 90 171 c 1,11,-1
 197 195 l 1,12,13
 207 149 207 149 240 120 c 128,-1,14
 273 91 273 91 334 91 c 0,15,16
 392 91 392 91 429 121.5 c 128,-1,17
 466 152 466 152 466 218 c 2,18,-1
 466 617 l 1,19,-1
 339 617 l 1,20,-1
 339 715 l 1,21,-1
 582 715 l 1,0,-1
84 715 m 1,22,-1
 200 715 l 1,23,-1
 200 305 l 1,24,-1
 84 305 l 1,25,-1
 84 715 l 1,22,-1
EndSplineSet
Validated: 1
EndChar

StartChar: Lslash
Encoding: 321 321 448
Width: 534
GlyphClass: 1
Flags: W
LayerCount: 2
Fore
SplineSet
499 0 m 1,0,-1
 92 0 l 1,1,-1
 92 265 l 1,2,-1
 -7 232 l 1,3,-1
 -7 322 l 1,4,-1
 92 354 l 1,5,-1
 92 715 l 1,6,-1
 208 715 l 1,7,-1
 208 392 l 1,8,-1
 383 451 l 1,9,-1
 383 359 l 1,10,-1
 208 302 l 1,11,-1
 208 102 l 1,12,-1
 499 102 l 1,13,-1
 499 0 l 1,0,-1
EndSplineSet
Validated: 1
EndChar

StartChar: Eng
Encoding: 330 330 453
Width: 731
GlyphClass: 2
Flags: W
AnchorPoint: "Anchor-2" 365 715 basechar 0
LayerCount: 2
Fore
SplineSet
88 0 m 1,0,-1
 88 715 l 1,1,-1
 217 715 l 1,2,-1
 451 319 l 1,3,-1
 529 168 l 1,4,-1
 532 168 l 1,5,-1
 532 715 l 1,6,-1
 643 715 l 1,7,-1
 643 -69 l 2,8,9
 643 -132 643 -132 611.5 -168.5 c 128,-1,10
 580 -205 580 -205 512 -205 c 2,11,-1
 445 -205 l 1,12,-1
 445 -111 l 1,13,-1
 532 -111 l 1,14,-1
 532 0 l 1,15,-1
 514 0 l 1,16,-1
 281 395 l 1,17,-1
 202 547 l 1,18,-1
 199 547 l 1,19,-1
 199 0 l 1,20,-1
 88 0 l 1,0,-1
EndSplineSet
Validated: 1
EndChar

StartChar: Oslash
Encoding: 216 216 464
Width: 729
GlyphClass: 2
Flags: W
AnchorPoint: "Anchor-2" 364 715 basechar 0
AnchorPoint: "Anchor-0" 364 0 basechar 0
LayerCount: 2
Fore
SplineSet
365 -12 m 0,0,1
 268 -12 268 -12 198 33 c 1,2,-1
 139 -51 l 1,3,-1
 66 -3 l 1,4,-1
 132 93 l 1,5,6
 96 139 96 139 76 205 c 128,-1,7
 56 271 56 271 56 357 c 0,8,9
 56 447 56 447 78 516.5 c 128,-1,10
 100 586 100 586 140.5 632.5 c 128,-1,11
 181 679 181 679 238 703 c 128,-1,12
 295 727 295 727 365 727 c 0,13,14
 462 727 462 727 531 682 c 1,15,-1
 590 766 l 1,16,-1
 664 718 l 1,17,-1
 597 622 l 1,18,19
 633 576 633 576 653 509.5 c 128,-1,20
 673 443 673 443 673 357 c 0,21,22
 673 267 673 267 651 198 c 128,-1,23
 629 129 629 129 588.5 82.5 c 128,-1,24
 548 36 548 36 491.5 12 c 128,-1,25
 435 -12 435 -12 365 -12 c 0,0,1
177 299 m 2,26,27
 177 234 177 234 201 185 c 1,28,-1
 475 594 l 1,29,30
 429 629 429 629 365 629 c 0,31,32
 323 629 323 629 288 614 c 128,-1,33
 253 599 253 599 228.5 571.5 c 128,-1,34
 204 544 204 544 190.5 504.5 c 128,-1,35
 177 465 177 465 177 416 c 2,36,-1
 177 299 l 2,26,27
552 416 m 2,37,38
 552 481 552 481 528 529 c 1,39,-1
 254 121 l 1,40,41
 300 86 300 86 365 86 c 0,42,43
 407 86 407 86 441.5 101 c 128,-1,44
 476 116 476 116 500.5 143.5 c 128,-1,45
 525 171 525 171 538.5 210.5 c 128,-1,46
 552 250 552 250 552 299 c 2,47,-1
 552 416 l 2,37,38
EndSplineSet
Validated: 1
EndChar

StartChar: Ohorn
Encoding: 416 416 467
Width: 729
GlyphClass: 2
Flags: W
AnchorPoint: "Anchor-2" 364 715 basechar 0
AnchorPoint: "Anchor-0" 364 0 basechar 0
LayerCount: 2
Fore
SplineSet
684 826 m 1,0,-1
 684 727 l 2,1,2
 684 689 684 689 668 667.5 c 128,-1,3
 652 646 652 646 603 646 c 2,4,-1
 575 646 l 1,5,6
 625 595 625 595 649 523 c 128,-1,7
 673 451 673 451 673 357 c 0,8,9
 673 267 673 267 651 198 c 128,-1,10
 629 129 629 129 588.5 82.5 c 128,-1,11
 548 36 548 36 491 12 c 128,-1,12
 434 -12 434 -12 365 -12 c 256,13,14
 295 -12 295 -12 238 12 c 128,-1,15
 181 36 181 36 140.5 82.5 c 128,-1,16
 100 129 100 129 78 198 c 128,-1,17
 56 267 56 267 56 357 c 256,18,19
 56 447 56 447 78 516.5 c 128,-1,20
 100 586 100 586 140.5 632.5 c 128,-1,21
 181 679 181 679 238 703 c 128,-1,22
 295 727 295 727 365 727 c 0,23,24
 415 727 415 727 458 715 c 1,25,-1
 589 715 l 1,26,-1
 589 826 l 1,27,-1
 684 826 l 1,0,-1
365 91 m 0,28,29
 406 91 406 91 440 105.5 c 128,-1,30
 474 120 474 120 498 147 c 128,-1,31
 522 174 522 174 535.5 213 c 128,-1,32
 549 252 549 252 549 301 c 2,33,-1
 549 414 l 2,34,35
 549 463 549 463 535.5 502 c 128,-1,36
 522 541 522 541 498 568 c 128,-1,37
 474 595 474 595 440 609.5 c 128,-1,38
 406 624 406 624 365 624 c 0,39,40
 323 624 323 624 289 609.5 c 128,-1,41
 255 595 255 595 231 568 c 128,-1,42
 207 541 207 541 193.5 502 c 128,-1,43
 180 463 180 463 180 414 c 2,44,-1
 180 301 l 2,45,46
 180 252 180 252 193.5 213 c 128,-1,47
 207 174 207 174 231 147 c 128,-1,48
 255 120 255 120 289 105.5 c 128,-1,49
 323 91 323 91 365 91 c 0,28,29
EndSplineSet
Validated: 1
EndChar

StartChar: OE
Encoding: 338 338 478
Width: 1013
GlyphClass: 2
Flags: W
AnchorPoint: "Anchor-2" 575 715 basechar 0
AnchorPoint: "Anchor-0" 575 0 basechar 0
LayerCount: 2
Fore
SplineSet
498 0 m 1,0,1
 471 -5 471 -5 437.5 -8.5 c 128,-1,2
 404 -12 404 -12 372 -12 c 0,3,4
 299 -12 299 -12 240.5 11.5 c 128,-1,5
 182 35 182 35 141 82 c 128,-1,6
 100 129 100 129 78 197.5 c 128,-1,7
 56 266 56 266 56 357 c 0,8,9
 56 447 56 447 78 516.5 c 128,-1,10
 100 586 100 586 141 633 c 128,-1,11
 182 680 182 680 240.5 703.5 c 128,-1,12
 299 727 299 727 372 727 c 0,13,14
 405 727 405 727 438.5 723.5 c 128,-1,15
 472 720 472 720 501 715 c 1,16,-1
 952 715 l 1,17,-1
 952 612 l 1,18,-1
 610 612 l 1,19,-1
 610 414 l 1,20,-1
 921 414 l 1,21,-1
 921 311 l 1,22,-1
 610 311 l 1,23,-1
 610 102 l 1,24,-1
 952 102 l 1,25,-1
 952 0 l 1,26,-1
 498 0 l 1,0,1
378 91 m 0,27,28
 408 91 408 91 438 94 c 128,-1,29
 468 97 468 97 495 105 c 1,30,-1
 495 609 l 1,31,32
 468 616 468 616 438 620 c 128,-1,33
 408 624 408 624 378 624 c 0,34,35
 279 624 279 624 229.5 568 c 128,-1,36
 180 512 180 512 180 414 c 2,37,-1
 180 301 l 2,38,39
 180 203 180 203 229.5 147 c 128,-1,40
 279 91 279 91 378 91 c 0,27,28
EndSplineSet
Validated: 1
EndChar

StartChar: Scedilla
Encoding: 350 350 484
Width: 612
GlyphClass: 2
Flags: W
AnchorPoint: "Anchor-2" 304 715 basechar 0
LayerCount: 2
Fore
SplineSet
306 625 m 0,0,1
 245 625 245 625 211 600 c 128,-1,2
 177 575 177 575 177 528 c 0,3,4
 177 483 177 483 204.5 461 c 128,-1,5
 232 439 232 439 291 428 c 2,6,-1
 354 415 l 2,7,8
 462 395 462 395 511.5 345.5 c 128,-1,9
 561 296 561 296 561 210 c 0,10,11
 561 115 561 115 500 55.5 c 128,-1,12
 439 -4 439 -4 328 -11 c 1,13,-1
 318 -59 l 1,14,-1
 322 -63 l 1,15,16
 333 -60 333 -60 343.5 -58 c 128,-1,17
 354 -56 354 -56 366 -56 c 0,18,19
 397 -56 397 -56 417 -73 c 128,-1,20
 437 -90 437 -90 437 -126 c 0,21,22
 437 -150 437 -150 427 -166 c 128,-1,23
 417 -182 417 -182 400 -193 c 128,-1,24
 383 -204 383 -204 361 -209 c 128,-1,25
 339 -214 339 -214 314 -214 c 0,26,27
 268 -214 268 -214 241 -199.5 c 128,-1,28
 214 -185 214 -185 203 -171 c 1,29,-1
 245 -122 l 1,30,31
 254 -134 254 -134 270 -143 c 128,-1,32
 286 -152 286 -152 309 -152 c 0,33,34
 328 -152 328 -152 341 -144.5 c 128,-1,35
 354 -137 354 -137 354 -122 c 0,36,37
 354 -110 354 -110 340.5 -98 c 128,-1,38
 327 -86 327 -86 282 -81 c 2,39,-1
 256 -78 l 1,40,-1
 269 -11 l 1,41,42
 192 -6 192 -6 136.5 26 c 128,-1,43
 81 58 81 58 41 109 c 1,44,-1
 121 183 l 1,45,46
 158 137 158 137 204 113.5 c 128,-1,47
 250 90 250 90 308 90 c 0,48,49
 377 90 377 90 411.5 121 c 128,-1,50
 446 152 446 152 446 204 c 0,51,52
 446 246 446 246 421.5 270.5 c 128,-1,53
 397 295 397 295 335 307 c 2,54,-1
 271 318 l 2,55,56
 167 337 167 337 114.5 386.5 c 128,-1,57
 62 436 62 436 62 522 c 0,58,59
 62 569 62 569 80 607.5 c 128,-1,60
 98 646 98 646 130.5 672 c 128,-1,61
 163 698 163 698 209 712.5 c 128,-1,62
 255 727 255 727 312 727 c 0,63,64
 393 727 393 727 452.5 699 c 128,-1,65
 512 671 512 671 554 617 c 1,66,-1
 473 546 l 1,67,68
 445 582 445 582 405 603.5 c 128,-1,69
 365 625 365 625 306 625 c 0,0,1
EndSplineSet
Validated: 1
Substitution2: "'locl' Localized Forms in Latin lookup 3 subtable" Scommaaccent
Substitution2: "'locl' Localized Forms in Latin lookup 2 subtable" Scommaaccent
EndChar

StartChar: uni1E9E
Encoding: 7838 7838 487
Width: 730
GlyphClass: 1
Flags: W
LayerCount: 2
Fore
SplineSet
687 210 m 256,0,1
 687 160 687 160 671 119 c 128,-1,2
 655 78 655 78 625 48.5 c 128,-1,3
 595 19 595 19 552.5 3.5 c 128,-1,4
 510 -12 510 -12 458 -12 c 0,5,6
 323 -12 323 -12 254 77 c 1,7,-1
 330 148 l 1,8,9
 355 117 355 117 385.5 100.5 c 128,-1,10
 416 84 416 84 458 84 c 0,11,12
 510 84 510 84 538.5 113.5 c 128,-1,13
 567 143 567 143 567 190 c 2,14,-1
 567 223 l 2,15,16
 567 270 567 270 538 298.5 c 128,-1,17
 509 327 509 327 449 327 c 2,18,-1
 351 327 l 1,19,-1
 351 423 l 1,20,-1
 517 615 l 1,21,-1
 204 615 l 1,22,-1
 204 0 l 1,23,-1
 88 0 l 1,24,-1
 88 715 l 1,25,-1
 633 715 l 1,26,-1
 633 606 l 1,27,-1
 472 419 l 1,28,-1
 472 415 l 1,29,30
 516 414 516 414 555.5 400.5 c 128,-1,31
 595 387 595 387 624 361.5 c 128,-1,32
 653 336 653 336 670 298 c 128,-1,33
 687 260 687 260 687 210 c 256,0,1
EndSplineSet
Validated: 1
EndChar

StartChar: Tbar
Encoding: 358 358 488
Width: 603
GlyphClass: 2
Flags: W
AnchorPoint: "Anchor-2" 301 715 basechar 0
AnchorPoint: "Anchor-0" 301 0 basechar 0
LayerCount: 2
Fore
SplineSet
359 318 m 1,0,-1
 359 0 l 1,1,-1
 244 0 l 1,2,-1
 244 318 l 1,3,-1
 87 318 l 1,4,-1
 87 406 l 1,5,-1
 244 406 l 1,6,-1
 244 612 l 1,7,-1
 31 612 l 1,8,-1
 31 715 l 1,9,-1
 572 715 l 1,10,-1
 572 612 l 1,11,-1
 359 612 l 1,12,-1
 359 406 l 1,13,-1
 516 406 l 1,14,-1
 516 318 l 1,15,-1
 359 318 l 1,0,-1
EndSplineSet
Validated: 1
EndChar

StartChar: uni0162
Encoding: 354 354 491
Width: 590
GlyphClass: 1
Flags: W
LayerCount: 2
Fore
SplineSet
238 612 m 1,0,-1
 25 612 l 1,1,-1
 25 715 l 1,2,-1
 566 715 l 1,3,-1
 566 612 l 1,4,-1
 353 612 l 1,5,-1
 353 0 l 1,6,-1
 325 0 l 1,7,-1
 312 -59 l 1,8,-1
 316 -63 l 1,9,10
 327 -60 327 -60 338 -58 c 128,-1,11
 349 -56 349 -56 360 -56 c 0,12,13
 390 -56 390 -56 411 -73 c 128,-1,14
 432 -90 432 -90 432 -126 c 0,15,16
 432 -150 432 -150 422 -166 c 128,-1,17
 412 -182 412 -182 395 -193 c 128,-1,18
 378 -204 378 -204 356 -209 c 128,-1,19
 334 -214 334 -214 309 -214 c 0,20,21
 262 -214 262 -214 235 -199.5 c 128,-1,22
 208 -185 208 -185 197 -171 c 1,23,-1
 240 -122 l 1,24,25
 249 -134 249 -134 265 -143 c 128,-1,26
 281 -152 281 -152 304 -152 c 0,27,28
 323 -152 323 -152 336 -144.5 c 128,-1,29
 349 -137 349 -137 349 -122 c 0,30,31
 349 -110 349 -110 335 -98 c 128,-1,32
 321 -86 321 -86 276 -81 c 2,33,-1
 251 -78 l 1,34,-1
 266 0 l 1,35,-1
 238 0 l 1,36,-1
 238 612 l 1,0,-1
EndSplineSet
Validated: 1
Substitution2: "'locl' Localized Forms in Latin lookup 3 subtable" uni021A
Substitution2: "'locl' Localized Forms in Latin lookup 2 subtable" uni021A
EndChar

StartChar: Thorn
Encoding: 222 222 492
Width: 642
GlyphClass: 1
Flags: W
LayerCount: 2
Fore
SplineSet
88 0 m 1,0,-1
 88 715 l 1,1,-1
 204 715 l 1,2,-1
 204 578 l 1,3,-1
 395 578 l 2,4,5
 444 578 444 578 482.5 562.5 c 128,-1,6
 521 547 521 547 548 518.5 c 128,-1,7
 575 490 575 490 589 450.5 c 128,-1,8
 603 411 603 411 603 362 c 256,9,10
 603 314 603 314 589 274 c 128,-1,11
 575 234 575 234 548 206 c 128,-1,12
 521 178 521 178 482.5 162.5 c 128,-1,13
 444 147 444 147 395 147 c 2,14,-1
 204 147 l 1,15,-1
 204 0 l 1,16,-1
 88 0 l 1,0,-1
204 249 m 1,17,-1
 388 249 l 2,18,19
 432 249 432 249 456.5 272 c 128,-1,20
 481 295 481 295 481 338 c 2,21,-1
 481 387 l 2,22,23
 481 430 481 430 456.5 453 c 128,-1,24
 432 476 432 476 388 476 c 2,25,-1
 204 476 l 1,26,-1
 204 249 l 1,17,-1
EndSplineSet
Validated: 1
EndChar

StartChar: Uogonek
Encoding: 370 370 503
Width: 702
GlyphClass: 2
Flags: W
AnchorPoint: "Anchor-2" 349 715 basechar 0
LayerCount: 2
Fore
SplineSet
198 715 m 1,0,-1
 198 274 l 2,1,2
 198 183 198 183 232.5 137 c 128,-1,3
 267 91 267 91 351 91 c 256,4,5
 435 91 435 91 470 137 c 128,-1,6
 505 183 505 183 505 274 c 2,7,-1
 505 715 l 1,8,-1
 618 715 l 1,9,-1
 618 293 l 2,10,11
 618 241 618 241 612.5 199 c 128,-1,12
 607 157 607 157 593.5 121 c 128,-1,13
 580 85 580 85 557 53.5 c 128,-1,14
 534 22 534 22 498 -9 c 0,15,16
 454 -48 454 -48 428 -71 c 128,-1,17
 402 -94 402 -94 402 -119 c 0,18,19
 402 -136 402 -136 412.5 -143.5 c 128,-1,20
 423 -151 423 -151 437 -151 c 0,21,22
 453 -151 453 -151 466 -143 c 128,-1,23
 479 -135 479 -135 489 -124 c 1,24,-1
 536 -169 l 1,25,26
 525 -189 525 -189 498.5 -201.5 c 128,-1,27
 472 -214 472 -214 431 -214 c 0,28,29
 387 -214 387 -214 354.5 -195 c 128,-1,30
 322 -176 322 -176 322 -134 c 0,31,32
 322 -112 322 -112 330.5 -95 c 128,-1,33
 339 -78 339 -78 355.5 -63 c 128,-1,34
 372 -48 372 -48 393.5 -34 c 128,-1,35
 415 -20 415 -20 441 -6 c 1,36,-1
 438 -1 l 1,37,38
 418 -7 418 -7 396 -9.5 c 128,-1,39
 374 -12 374 -12 349 -12 c 0,40,41
 275 -12 275 -12 224.5 6.5 c 128,-1,42
 174 25 174 25 143 62 c 128,-1,43
 112 99 112 99 98 156.5 c 128,-1,44
 84 214 84 214 84 293 c 2,45,-1
 84 715 l 1,46,-1
 198 715 l 1,0,-1
EndSplineSet
Validated: 1
EndChar

StartChar: Uhorn
Encoding: 431 431 506
Width: 702
GlyphClass: 2
Flags: W
AnchorPoint: "Anchor-2" 349 715 basechar 0
AnchorPoint: "Anchor-0" 349 0 basechar 0
LayerCount: 2
Fore
SplineSet
198 715 m 1,0,-1
 198 274 l 2,1,2
 198 183 198 183 232.5 137 c 128,-1,3
 267 91 267 91 351 91 c 256,4,5
 435 91 435 91 470 137 c 128,-1,6
 505 183 505 183 505 274 c 2,7,-1
 505 715 l 1,8,-1
 593 715 l 1,9,-1
 593 826 l 1,10,-1
 688 826 l 1,11,-1
 688 726 l 2,12,13
 688 690 688 690 673.5 668.5 c 128,-1,14
 659 647 659 647 618 645 c 1,15,-1
 618 293 l 2,16,17
 618 214 618 214 604 156.5 c 128,-1,18
 590 99 590 99 558 62 c 128,-1,19
 526 25 526 25 475.5 6.5 c 128,-1,20
 425 -12 425 -12 351 -12 c 256,21,22
 277 -12 277 -12 226.5 6.5 c 128,-1,23
 176 25 176 25 144.5 62 c 128,-1,24
 113 99 113 99 98.5 156.5 c 128,-1,25
 84 214 84 214 84 293 c 2,26,-1
 84 715 l 1,27,-1
 198 715 l 1,0,-1
EndSplineSet
Validated: 1
EndChar

StartChar: mu
Encoding: 181 181 530
Width: 599
GlyphClass: 1
Flags: W
LayerCount: 2
Fore
SplineSet
80 -205 m 1,0,-1
 80 532 l 1,1,-1
 191 532 l 1,2,-1
 191 208 l 2,3,4
 191 84 191 84 294 84 c 0,5,6
 316 84 316 84 336 89.5 c 128,-1,7
 356 95 356 95 372 106.5 c 128,-1,8
 388 118 388 118 398 135.5 c 128,-1,9
 408 153 408 153 408 176 c 2,10,-1
 408 532 l 1,11,-1
 519 532 l 1,12,-1
 519 0 l 1,13,-1
 408 0 l 1,14,-1
 408 88 l 1,15,-1
 403 88 l 1,16,17
 396 69 396 69 385 50.5 c 128,-1,18
 374 32 374 32 357.5 18 c 128,-1,19
 341 4 341 4 319 -4 c 128,-1,20
 297 -12 297 -12 269 -12 c 0,21,22
 202 -12 202 -12 179 37 c 1,23,-1
 175 37 l 1,24,-1
 191 -73 l 1,25,-1
 191 -205 l 1,26,-1
 80 -205 l 1,0,-1
EndSplineSet
Validated: 1
EndChar

StartChar: Delta
Encoding: 8710 8710 531
Width: 675
GlyphClass: 1
Flags: W
LayerCount: 2
Fore
SplineSet
47 97 m 1,0,-1
 265 715 l 1,1,-1
 411 715 l 1,2,-1
 629 97 l 1,3,-1
 629 0 l 1,4,-1
 47 0 l 1,5,-1
 47 97 l 1,0,-1
339 608 m 1,6,-1
 334 608 l 1,7,-1
 165 102 l 1,8,-1
 507 102 l 1,9,-1
 339 608 l 1,6,-1
EndSplineSet
Validated: 1
EndChar

StartChar: product
Encoding: 8719 8719 532
Width: 732
GlyphClass: 1
Flags: W
LayerCount: 2
Fore
SplineSet
129 -205 m 1,0,-1
 129 612 l 1,1,-1
 39 612 l 1,2,-1
 39 715 l 1,3,-1
 693 715 l 1,4,-1
 693 612 l 1,5,-1
 603 612 l 1,6,-1
 603 -205 l 1,7,-1
 487 -205 l 1,8,-1
 487 612 l 1,9,-1
 245 612 l 1,10,-1
 245 -205 l 1,11,-1
 129 -205 l 1,0,-1
EndSplineSet
Validated: 1
EndChar

StartChar: summation
Encoding: 8721 8721 533
Width: 539
GlyphClass: 1
Flags: W
LayerCount: 2
Fore
SplineSet
503 -205 m 1,0,-1
 32 -205 l 1,1,-1
 32 -99 l 1,2,-1
 280 253 l 1,3,-1
 280 257 l 1,4,-1
 32 609 l 1,5,-1
 32 715 l 1,6,-1
 503 715 l 1,7,-1
 503 612 l 1,8,-1
 157 612 l 1,9,-1
 385 293 l 1,10,-1
 385 217 l 1,11,-1
 157 -102 l 1,12,-1
 503 -102 l 1,13,-1
 503 -205 l 1,0,-1
EndSplineSet
Validated: 1
EndChar

